<svg width="127" height="67" viewBox="0 0 127 67" fill="none" xmlns="http://www.w3.org/2000/svg">
<path d="M3.61364 29.7273H14.1136L9.61364 57H18.9545L23.4545 29.7273H33.9545L35.25 22.0909H4.90909L3.61364 29.7273ZM34.2827 66.8182C40.8622 66.8182 44.4759 63.5114 46.6577 59.1818L60.9077 30.8182H50.6804L43.3509 48.9545H43.0781L41.8849 30.8182H32.4077L37.0781 58.1591L36.7713 58.6364C35.8509 60.0682 34.1122 60.0341 31.9304 59.2159L28.7599 65.8977C30.1577 66.4773 32.1009 66.8182 34.2827 66.8182ZM57.5838 66.8182H66.9929L69.3111 52.7045H69.5156C70.1293 55.3636 72.3111 57.3409 75.9929 57.3409C81.5838 57.3409 87.0384 52.9773 88.5384 43.9091C90.1065 34.4318 85.7429 30.4773 80.5611 30.4773C76.6747 30.4773 73.8111 32.7273 72.3793 35.3864H72.1747L72.9247 30.8182H63.5838L57.5838 66.8182ZM70.6065 43.9091C71.2202 40.0227 73.1974 37.7045 75.7884 37.7045C78.3793 37.7045 79.4702 40.0227 78.8565 43.9091C78.1747 47.7955 76.3338 50.1136 73.7429 50.1136C71.152 50.1136 69.9929 47.7273 70.6065 43.9091Z" fill="#144776" fill-opacity="0.9"/>
<path d="M84.8447 20.6107L81.9457 25.6318C81.1926 26.9363 81.187 28.5531 81.9393 29.8214L87.8214 39.7217C88.5248 40.9141 89.7774 41.6373 91.1617 41.6502L102.677 41.7941C104.151 41.8115 105.549 40.9982 106.302 39.6938L109.201 34.6726L95.2883 34.5026C93.9041 34.4897 92.6515 33.7665 91.9481 32.5741L84.8447 20.6107ZM105.318 9.41594L85.907 9.16838C84.3146 9.15435 83.2829 10.9412 84.0913 12.3133L94.0114 29.0004C94.7148 30.1927 95.9674 30.9159 97.3517 30.9288L115.868 31.1599L109.771 41.7205C109.203 42.7033 109.522 43.9594 110.479 44.5118C111.436 45.0643 112.683 44.7121 113.25 43.7294L119.863 32.2753C120.245 31.6142 120.237 30.8236 119.866 30.1806L108.659 11.3444C108.307 10.7661 107.819 10.2877 107.236 9.95133C106.654 9.61501 105.995 9.43113 105.318 9.41594Z" fill="#144776"/>
</svg>
