<svg width="44" height="38" viewBox="0 0 44 38" fill="none" xmlns="http://www.w3.org/2000/svg">
<path d="M7.10593 21.9638L7.27784 27.7592C7.3225 29.2648 8.16729 30.6434 9.4738 31.3272L19.6806 36.6598C20.9056 37.3046 22.3513 37.2618 23.5359 36.5454L33.4087 30.6172C34.6724 29.8572 35.434 28.4309 35.3894 26.9254L35.2174 21.13L23.2912 28.2957C22.1066 29.0121 20.6609 29.0549 19.4359 28.4101L7.10593 21.9638ZM18.6431 1.68104L1.99733 11.6703C0.635086 12.4951 0.696264 14.5576 2.10501 15.3002L19.3136 24.2852C20.5385 24.9301 21.9843 24.8872 23.1689 24.1709L39.0443 14.6379L39.4059 26.8269C39.4395 27.9612 40.3707 28.8625 41.475 28.8297C42.5794 28.797 43.4555 27.8421 43.4218 26.7077L43.0297 13.4876C43.007 12.7245 42.5853 12.0558 41.9317 11.7036L22.4984 1.56668C21.8955 1.25929 21.2284 1.10893 20.556 1.12888C19.8837 1.14882 19.2267 1.33845 18.6431 1.68104V1.68104Z" fill="#144776"/>
</svg>
