<svg width="37" height="44" viewBox="0 0 37 44" fill="none" xmlns="http://www.w3.org/2000/svg">
<path d="M7.27264 23.7146H18.909V26.4289H7.27264V23.7146Z" fill="white"/>
<path d="M7.27264 16.9285H24.7272V19.6428H7.27264V16.9285Z" fill="white"/>
<path d="M7.27264 30.5002H14.5454V33.2145H7.27264V30.5002Z" fill="white"/>
<path d="M33.6364 4.70759H28.5909V3.13839C28.5909 2.30604 28.2365 1.50778 27.6057 0.919214C26.9749 0.330651 26.1194 0 25.2273 0H11.7727C10.8806 0 10.0251 0.330651 9.39428 0.919214C8.76347 1.50778 8.40909 2.30604 8.40909 3.13839V4.70759H3.36364C2.47154 4.70759 1.61599 5.03824 0.985186 5.6268C0.354382 6.21537 0 7.01363 0 7.84598V40.7991C0 41.6315 0.354382 42.4297 0.985186 43.0183C1.61599 43.6068 2.47154 43.9375 3.36364 43.9375H33.6364C34.5285 43.9375 35.384 43.6068 36.0148 43.0183C36.6456 42.4297 37 41.6315 37 40.7991V7.84598C37 7.01363 36.6456 6.21537 36.0148 5.6268C35.384 5.03824 34.5285 4.70759 33.6364 4.70759ZM11.7727 3.13839H25.2273V9.41518H11.7727V3.13839ZM33.6364 40.7991H3.36364V7.84598H8.40909V12.5536H28.5909V7.84598H33.6364V40.7991Z" fill="white"/>
</svg>
