<svg width="40" height="40" viewBox="0 0 40 40" fill="none" xmlns="http://www.w3.org/2000/svg">
<path d="M39.1721 19.6723L20.998 0.438059C20.8671 0.299195 20.7117 0.189027 20.5406 0.113859C20.3695 0.0386912 20.1861 0 20.0008 0C19.8156 0 19.6322 0.0386912 19.461 0.113859C19.2899 0.189027 19.1345 0.299195 19.0037 0.438059L0.829507 19.6723C0.300034 20.233 0 20.9948 0 21.7892C0 23.4388 1.26632 24.7799 2.82385 24.7799H4.73878V38.5046C4.73878 39.3318 5.36973 40 6.15071 40H17.177V29.5324H22.1187V40H33.8509C34.6319 40 35.2629 39.3318 35.2629 38.5046V24.7799H37.1778C37.9279 24.7799 38.6471 24.4668 39.1766 23.9014C40.2752 22.7331 40.2752 20.8405 39.1721 19.6723V19.6723Z" fill="white"/>
</svg>
