<svg width="281" height="224" viewBox="0 0 281 224" fill="none" xmlns="http://www.w3.org/2000/svg">
<path opacity="0.1" d="M164.797 37.686C147.016 37.069 130.08 31.3401 113.909 25.071C97.739 18.8019 81.7225 11.8554 64.3681 8.53441C53.2061 6.39809 40.4396 6.09643 31.4478 12.0693C22.7912 17.8284 19.9945 27.7421 18.4918 36.951C17.3599 43.8783 16.6951 51.1676 19.7967 57.6533C21.9478 62.1563 25.7692 65.9408 28.4094 70.2683C37.6044 85.2747 31.1072 103.78 21.1429 118.433C16.4725 125.308 11.0467 131.871 7.44232 139.182C3.83793 146.493 2.1676 154.882 5.32144 162.347C8.45056 169.751 15.9039 175.302 23.9753 179.21C40.3736 187.149 59.6896 189.42 78.5385 190.706C120.25 193.555 162.181 192.321 204.003 191.087C219.481 190.629 235.025 190.166 250.25 187.777C258.706 186.45 267.434 184.346 273.574 179.262C281.365 172.809 283.297 161.881 278.077 153.79C269.316 140.218 245.11 136.848 238.978 122.28C235.61 114.264 239.071 105.335 243.967 97.8979C254.473 81.9481 272.08 67.9537 273.008 49.7223C273.646 37.1979 265.179 24.6597 252.091 18.7334C238.374 12.4999 219.346 13.2897 209.231 23.5709C198.808 34.1648 180.495 38.229 164.797 37.686Z" fill="#3895EA"/>
<path d="M119.629 189.362L25.5962 188.904L16.2527 167.028L49.2912 164.634L43.533 140.649L108.879 132.194L46.3049 110.48L51.8324 109.169L152.451 125.555L146.909 162.986L138.989 183.556L119.629 189.362Z" fill="#3895EA"/>
<path d="M27.0385 179.742C27.0385 179.742 32.8077 178.82 36.2692 182.89C36.2692 182.89 33.7308 184.886 28.2692 182.122L27.0385 179.742Z" fill="#3895EA"/>
<path d="M26.4341 179.651C26.4341 179.651 22.7528 184.173 24.5659 189.208C24.5659 189.208 27.5659 188.01 27.8929 181.905L26.4341 179.651Z" fill="#3895EA"/>
<path d="M23.1264 172.216C23.1264 172.216 25.4341 167.99 34.6648 173.906C34.6648 173.906 33.4341 176.747 29.3571 176.516C25.2802 176.286 24.2033 174.443 23.1264 172.216Z" fill="#3895EA"/>
<path d="M22.5302 171.912C22.5302 171.912 17.7418 171.364 17.2775 182.306C17.2775 182.306 20.3132 182.934 22.4698 179.473C24.6264 176.012 23.7417 174.07 22.5302 171.912Z" fill="#3895EA"/>
<path d="M19.7418 163.183C19.7418 163.183 22.4341 155.735 32.2033 161.033C32.2033 161.033 29.9725 167.867 20.7418 165.717L19.7418 163.183Z" fill="#3895EA"/>
<path d="M16.7418 152.049C16.7418 152.049 21.8187 144.524 30.8187 151.501C30.8187 151.501 27.6648 158.565 17.511 154.726L16.7418 152.049Z" fill="#3895EA"/>
<path d="M15.6648 141.452C15.6648 141.452 21.5879 134.539 30.5 141.452C30.5 141.452 24.8846 147.519 15.6648 143.218V141.452Z" fill="#3895EA"/>
<path d="M14.7418 131.16C14.7418 131.16 20.7418 123.942 29.2802 130.776C29.2802 130.776 22.511 137.15 14.7418 132.85V131.16Z" fill="#3895EA"/>
<path d="M15.2802 122.023C15.2802 122.023 21.5989 112.731 29.5879 119.028C29.5879 119.028 22.8187 127.014 15.2802 123.789V122.023Z" fill="#3895EA"/>
<path d="M16.7418 111.349C16.7418 111.349 23.4341 102.135 31.2033 109.199C31.2033 109.199 23.2802 117.185 16.7418 113.038V111.349Z" fill="#3895EA"/>
<path d="M18.9725 101.808C18.9725 101.808 26.8956 93.1479 33.8077 96.5978C33.8077 96.5978 25.5522 105.796 18.6264 104.106L18.9725 101.808Z" fill="#3895EA"/>
<path d="M21.7418 92.7641C21.7418 92.7641 30.8846 82.1565 36.2033 85.6997C36.2033 85.6997 29.467 93.9268 21.0934 94.7495L21.7418 92.7641Z" fill="#3895EA"/>
<path d="M25.739 82.2743C25.739 82.2743 33.7417 73.6139 39.5879 75.7639C39.5879 75.7639 32.7417 84.7479 24.6648 84.9783L25.739 82.2743Z" fill="#3895EA"/>
<path d="M29.3572 72.462C29.3572 72.462 38.2033 64.169 42.0495 65.628C42.0495 65.628 35.6648 74.8424 28.9725 74.3049L29.3572 72.462Z" fill="#3895EA"/>
<path d="M32.8956 63.4013C32.8956 63.4013 40.511 53.4931 44.6676 54.2609C44.6676 54.2609 40.0494 63.0942 32.8956 64.4078V63.4013Z" fill="#3895EA"/>
<path d="M36.7363 51.1839C36.7363 51.1839 43.467 43.5903 47.1044 43.6067C47.1044 43.6067 41.7912 53.7536 36.4588 53.6603L36.7363 51.1839Z" fill="#3895EA"/>
<path d="M39.011 43.05L45.5138 27.2319C45.5138 27.2319 45.8379 41.5307 38.1841 45.9844L39.011 43.05Z" fill="#3895EA"/>
<path d="M41.6511 25.6056C41.6511 25.6056 42.728 12.3956 42.0357 11.3206C42.0357 11.3206 46.6841 22.3038 41.6071 31.4415L41.6511 25.6056Z" fill="#3895EA"/>
<path d="M19.489 163.007C19.489 163.007 12.7472 158.836 8.38187 169.041C8.38187 169.041 14.3819 173.017 20.283 165.61L19.489 163.007Z" fill="#3895EA"/>
<path d="M16.5247 151.624C16.5247 151.624 8.2555 147.859 4.24451 158.513C4.24451 158.513 10.6319 162.901 17.2775 154.317L16.5247 151.624Z" fill="#3895EA"/>
<path d="M15.2802 142.086C15.2802 142.086 9.35716 135.172 0.445068 142.086C0.445068 142.086 6.06045 148.152 15.2802 143.852V142.086Z" fill="#3895EA"/>
<path d="M14.5385 131.16C14.5385 131.16 8.53846 123.942 0 130.776C0 130.776 6.76923 137.15 14.5385 132.85V131.16Z" fill="#3895EA"/>
<path d="M15.2802 122.286C15.2802 122.286 11.0714 111.878 1.92307 116.354C1.92307 116.354 6.86812 125.582 14.9066 124.014L15.2802 122.286Z" fill="#3895EA"/>
<path d="M17.272 111.297C17.272 111.297 13.0879 100.709 3.81042 105.618C3.81042 105.618 9.49174 115.323 16.8599 112.932L17.272 111.297Z" fill="#3895EA"/>
<path d="M19.8654 101.861C19.8654 101.861 18.217 90.252 10.5247 89.2126C10.5247 89.2126 12.1566 101.455 18.8297 103.953L19.8654 101.861Z" fill="#3895EA"/>
<path d="M21.9368 92.7858C21.9368 92.7858 21.294 78.7997 14.9341 78.3115C14.9341 78.3115 15.1484 88.9273 21.2198 94.7659L21.9368 92.7858Z" fill="#3895EA"/>
<path d="M26.3983 81.8823C26.3983 81.8823 24.5027 70.2519 18.4313 68.8313C18.4313 68.8313 19.1841 80.0943 25.7967 84.7371L26.3983 81.8823Z" fill="#3895EA"/>
<path d="M30.0769 72.558C30.0769 72.558 30.0137 60.4422 26.3049 58.6624C26.3049 58.6624 24.0055 69.6319 29.0027 74.1047L30.0769 72.558Z" fill="#3895EA"/>
<path d="M33.1786 63.2642C33.1786 63.2642 32.6593 50.7891 28.8187 49.0312C28.8187 49.0312 27.5055 58.9038 32.6044 64.0815L33.1786 63.2642Z" fill="#3895EA"/>
<path d="M37.272 52.1793C37.272 52.1793 37.25 42.0325 34.5082 39.6521C34.5082 39.6521 31.7829 50.767 35.8406 54.2197L37.272 52.1793Z" fill="#3895EA"/>
<path d="M38.6896 42.551L36.022 25.6633C36.022 25.6633 32.3983 39.5014 38.8159 45.6005L38.6896 42.551Z" fill="#3895EA"/>
<path d="M39.2088 25.7646C39.2088 25.7646 32.3626 14.4112 32.5027 13.1497C32.5027 13.1497 33.2308 25.0489 41.8434 30.9752L39.2088 25.7646Z" fill="#3895EA"/>
<path d="M40.011 22.4108C40.011 22.4108 33.5494 6.2856 30.6264 4.98022C30.6264 4.98022 39.8571 9.66422 40.5494 21.9501L40.011 22.4108Z" fill="#3895EA"/>
<path d="M36.4258 53.7563L35.9835 53.6219C41.4368 35.8704 42.7967 24.5526 39.8159 21.7142L40.1319 21.3796C43.294 24.3743 42.011 35.5688 36.4258 53.7563Z" fill="#444053"/>
<path d="M21.4093 95.32L20.7555 95.0869C21.3352 93.4607 21.9588 91.8098 22.6126 90.1835C28.3049 76.0218 33.1511 62.8474 36.2582 52.7335L36.8269 52.4592C33.7143 62.5924 28.9533 76.2714 23.2555 90.4523C22.6044 92.0483 21.9835 93.691 21.4093 95.32Z" fill="#444053"/>
<path d="M35.1676 193.026C35.0797 192.93 26.2418 182.994 20.0797 166.032C16.4691 156.102 14.4597 145.663 14.1264 135.104C13.7033 121.905 16.478 107.167 21.2308 93.7788L21.7473 94.3821C11.0769 124.43 15.3159 150.179 20.9396 165.684C27.0357 182.492 35.7747 192.318 35.8599 192.417L35.1676 193.026Z" fill="#444053"/>
<path d="M173.277 171.931C173.277 171.931 167.049 179.52 171.994 190.991L122.269 212.519L117.497 213.517L115.299 203.919L116.769 191.805V185.185L173.277 171.931Z" fill="#D5D6DB"/>
<path d="M16.2527 167.028L85.0769 154.503L176.272 169.005L119.629 189.362L16.2527 167.028Z" fill="#3895EA"/>
<path d="M16.2527 167.028L85.0769 154.503L176.272 169.005L119.629 189.362L16.2527 167.028Z" fill="#3895EA"/>
<path d="M16.2527 167.025C16.2527 167.025 9.81593 179.199 17.2335 190.442L119.294 212.519C119.294 212.519 112.959 202.822 119.621 189.362L16.2527 167.025Z" fill="#3895EA"/>
<path opacity="0.1" d="M16.2527 167.025C16.2527 167.025 9.81593 179.199 17.2335 190.442L119.294 212.519C119.294 212.519 112.959 202.822 119.621 189.362L16.2527 167.025Z" fill="black"/>
<path opacity="0.1" d="M19.294 171.246C19.294 171.246 15.6154 180.153 19.294 185.917V171.246Z" fill="black"/>
<path d="M119.294 212.519L176.272 188.249C176.272 188.249 179.459 188.934 177.398 191.265C175.338 193.596 120.393 214.85 120.393 214.85L17.2335 190.442L119.294 212.519Z" fill="#3895EA"/>
<path opacity="0.1" d="M119.294 212.519L176.272 188.249C176.272 188.249 179.459 188.934 177.398 191.265C175.338 193.596 120.393 214.85 120.393 214.85L17.2335 190.442L119.294 212.519Z" fill="black"/>
<path opacity="0.1" d="M114.624 191.814C114.624 191.814 109.129 198.395 114.624 208.268V191.814Z" fill="black"/>
<path opacity="0.1" d="M141.224 191.702L116.579 199.91L116.666 200.17L141.311 191.962L141.224 191.702Z" fill="black"/>
<path opacity="0.1" d="M146.161 190.886L116.571 202.117L116.669 202.374L146.258 191.142L146.161 190.886Z" fill="black"/>
<path opacity="0.1" d="M150.694 190.846L116.737 204.721L116.841 204.975L150.798 191.1L150.694 190.846Z" fill="black"/>
<path opacity="0.1" d="M155.624 189.658L117.133 207.015L117.246 207.265L155.737 189.908L155.624 189.658Z" fill="black"/>
<path opacity="0.1" d="M159.766 189.664L117.438 208.133L117.548 208.384L159.876 189.915L159.766 189.664Z" fill="black"/>
<path opacity="0.1" d="M168.825 188.128L118.076 210.008L118.185 210.26L168.934 188.38L168.825 188.128Z" fill="black"/>
<path opacity="0.3" d="M41.8214 168.366L90.1731 158.219L119.629 163.841L80.0082 176.593L41.8214 168.366Z" fill="white"/>
<path d="M176.272 169.005C176.272 169.005 178.772 170.012 177.305 171.567C175.838 173.121 119.621 189.362 119.621 189.362L176.272 169.005Z" fill="#3895EA"/>
<path d="M200.555 145.555C200.555 145.555 194.33 153.14 199.275 164.615L149.549 186.142L144.777 187.146L142.58 177.548L144.071 165.437V158.809L200.555 145.555Z" fill="#D5D6DB"/>
<path d="M43.533 140.649L112.354 128.127L203.552 142.629L146.909 162.986L43.533 140.649Z" fill="#3A3768"/>
<path d="M43.522 140.649C43.522 140.649 37.0824 152.822 44.5 164.066L146.56 186.142C146.56 186.142 140.228 176.437 146.898 162.983L43.522 140.649Z" fill="#3A3768"/>
<path opacity="0.1" d="M43.522 140.649C43.522 140.649 37.0824 152.822 44.5 164.066L146.56 186.142C146.56 186.142 140.228 176.437 146.898 162.983L114.624 156.009L43.522 140.649Z" fill="black"/>
<path opacity="0.1" d="M46.5714 144.869C46.5714 144.869 42.8956 153.774 46.5714 159.541V144.869Z" fill="black"/>
<path d="M146.571 186.142L203.552 161.872C203.552 161.872 206.736 162.558 204.676 164.889C202.615 167.22 147.67 188.473 147.67 188.473L44.511 164.066L146.571 186.142Z" fill="#3A3768"/>
<path opacity="0.1" d="M146.571 186.142L203.552 161.872C203.552 161.872 206.736 162.558 204.676 164.889C202.615 167.22 147.67 188.473 147.67 188.473L44.511 164.066L146.571 186.142Z" fill="black"/>
<path opacity="0.1" d="M141.901 165.437C141.901 165.437 136.407 172.019 141.901 181.892V165.437Z" fill="black"/>
<path opacity="0.1" d="M168.504 165.329L143.859 173.537L143.946 173.797L168.591 165.589L168.504 165.329Z" fill="black"/>
<path opacity="0.1" d="M173.444 164.511L143.854 175.743L143.952 175.999L173.542 164.767L173.444 164.511Z" fill="black"/>
<path opacity="0.1" d="M177.973 164.468L144.016 178.343L144.12 178.596L178.077 164.722L177.973 164.468Z" fill="black"/>
<path opacity="0.1" d="M182.906 163.28L144.415 180.637L144.528 180.887L183.019 163.53L182.906 163.28Z" fill="black"/>
<path opacity="0.1" d="M187.044 163.282L144.716 181.751L144.826 182.002L187.154 163.533L187.044 163.282Z" fill="black"/>
<path opacity="0.1" d="M196.105 161.747L145.356 183.627L145.465 183.878L196.214 161.998L196.105 161.747Z" fill="black"/>
<path opacity="0.45" d="M69.1017 141.99L117.453 131.843L146.909 137.465L107.288 150.217L69.1017 141.99Z" fill="white"/>
<path d="M203.552 142.629C203.552 142.629 206.049 143.635 204.585 145.188C203.121 146.74 146.909 162.983 146.909 162.983L203.552 142.629Z" fill="#3A3768"/>
<path d="M203.137 115.38C203.137 115.38 196.909 129.002 201.854 140.473L152.129 155.968L147.368 156.974L145.17 147.376L146.64 135.263V128.634L203.137 115.38Z" fill="#D5D6DB"/>
<path d="M46.1236 110.477L114.948 97.9526L206.146 112.454L149.5 132.811L46.1236 110.477Z" fill="#3895EA"/>
<path d="M46.1236 110.474C46.1236 110.474 39.6758 122.648 47.0934 133.892L149.154 155.968C149.154 155.968 142.819 146.263 149.489 132.811L46.1236 110.474Z" fill="#3895EA"/>
<path opacity="0.1" d="M46.1236 110.474C46.1236 110.474 39.6758 122.648 47.0934 133.892L149.154 155.968C149.154 155.968 142.819 146.263 149.489 132.811L46.1236 110.474Z" fill="black"/>
<path opacity="0.1" d="M49.1648 114.695C49.1648 114.695 45.4863 123.602 49.1648 129.367V114.695Z" fill="black"/>
<path d="M149.165 155.968L206.143 137.731C206.143 137.731 209.33 138.417 207.269 140.748C205.209 143.079 150.264 158.299 150.264 158.299L47.1044 133.892L149.165 155.968Z" fill="#3895EA"/>
<path opacity="0.1" d="M149.165 155.968L206.143 137.731C206.143 137.731 209.33 138.417 207.269 140.748C205.209 143.079 150.264 158.299 150.264 158.299L47.1044 133.892L149.165 155.968Z" fill="black"/>
<path opacity="0.1" d="M144.494 135.263C144.494 135.263 139 141.844 144.494 151.717V135.263Z" fill="black"/>
<path opacity="0.1" d="M171.098 135.154L146.453 143.362L146.54 143.622L171.185 135.414L171.098 135.154Z" fill="black"/>
<path opacity="0.1" d="M176.036 134.337L146.447 145.569L146.544 145.825L176.134 134.594L176.036 134.337Z" fill="black"/>
<path opacity="0.1" d="M180.563 134.295L146.605 148.17L146.709 148.424L180.667 134.549L180.563 134.295Z" fill="black"/>
<path opacity="0.1" d="M185.5 133.105L147.009 150.462L147.122 150.712L185.613 133.355L185.5 133.105Z" fill="black"/>
<path opacity="0.1" d="M189.639 133.11L147.311 151.579L147.421 151.83L189.749 133.361L189.639 133.11Z" fill="black"/>
<path opacity="0.1" d="M198.699 131.576L147.95 153.456L148.059 153.708L198.808 131.828L198.699 131.576Z" fill="black"/>
<path opacity="0.3" d="M71.6923 111.815L120.044 101.668L149.5 107.29L109.879 120.042L71.6923 111.815Z" fill="white"/>
<path d="M206.143 112.454C206.143 112.454 208.643 113.461 207.176 115.016C205.709 116.571 149.5 132.811 149.5 132.811L206.143 112.454Z" fill="#3895EA"/>
<path d="M85.2802 29.2064C85.2802 29.2064 74.8407 28.5784 76.0604 35.8896C76.0604 35.8896 75.8159 37.1812 76.989 37.7681C76.989 37.7681 77.0082 37.2196 78.0604 37.4089C78.4359 37.4732 78.8179 37.4917 79.1978 37.4637C79.71 37.4287 80.1969 37.2285 80.5852 36.8933C80.5852 36.8933 83.522 35.6811 84.6648 30.8875C84.6648 30.8875 85.511 29.8426 85.489 29.5738L83.7198 30.3253C83.7198 30.3253 84.3214 31.595 83.8489 32.6508C83.8489 32.6508 83.7912 30.3719 83.4505 30.424C83.3819 30.424 82.5357 30.8655 82.5357 30.8655C82.5357 30.8655 83.5714 33.0786 82.7885 34.6857C82.7885 34.6857 83.0852 31.9597 82.2115 31.0246L80.9698 31.7486C80.9698 31.7486 82.1813 34.033 81.3599 35.8978C81.3599 35.8978 81.5714 33.0375 80.7088 31.9241L79.5824 32.8016C79.5824 32.8016 80.7225 35.0531 80.0275 36.5998C80.0275 36.5998 79.9368 33.2706 79.3407 33.0183C79.3407 33.0183 78.3544 33.8849 78.206 34.2414C78.206 34.2414 78.9863 35.8868 78.5 36.7397C78.5 36.7397 78.206 34.5211 77.9505 34.5101C77.9505 34.5101 76.9698 35.9801 76.8681 36.9783C76.9156 36.0477 77.2064 35.1457 77.7115 34.3621C77.1463 34.4688 76.6248 34.7386 76.2115 35.1382C76.2115 35.1382 76.3626 34.0988 77.956 34.0083C77.956 34.0083 78.7665 32.8921 78.9835 32.8263C78.9835 32.8263 77.3984 32.6919 76.4396 33.117C76.4396 33.117 77.2857 32.138 79.272 32.5685L80.3709 31.6636C80.3709 31.6636 78.2885 31.3893 77.4038 31.6937C77.4038 31.6937 78.4231 30.8271 80.6703 31.4579L81.8819 30.7366C81.8819 30.7366 80.1044 30.3554 79.0467 30.4925C79.0467 30.4925 80.1621 29.892 82.2363 30.5419L83.0989 30.1552C83.0989 30.1552 81.7994 29.9002 81.4176 29.8591C81.0357 29.8179 81.0165 29.7137 81.0165 29.7137C81.8412 29.5785 82.6874 29.6734 83.4615 29.988C83.4615 29.988 85.3159 29.3215 85.2802 29.2064Z" fill="#3895EA"/>
<path opacity="0.1" d="M232.148 59.2574C232.148 59.2574 221.709 58.6294 222.929 65.9406C222.929 65.9406 222.684 67.2323 223.857 67.8191C223.857 67.8191 223.876 67.2706 224.929 67.4599C225.304 67.5228 225.686 67.5412 226.066 67.5147C226.573 67.4774 227.055 67.2773 227.44 66.9443C227.44 66.9443 230.379 65.7322 231.519 60.9385C231.519 60.9385 232.365 59.8936 232.343 59.6249L230.58 60.3763C230.58 60.3763 231.181 61.646 230.709 62.7018C230.709 62.7018 230.651 60.4229 230.313 60.475C230.244 60.475 229.396 60.9165 229.396 60.9165C229.396 60.9165 230.431 63.1296 229.651 64.7367C229.651 64.7367 229.948 62.0108 229.071 61.0756L227.83 61.7996C227.83 61.7996 229.041 64.084 228.22 65.9488C228.22 65.9488 228.431 63.0885 227.569 61.9751L226.445 62.8527C226.445 62.8527 227.582 65.1042 226.887 66.6509C226.887 66.6509 226.797 63.3216 226.201 63.0693C226.201 63.0693 225.217 63.9359 225.066 64.2924C225.066 64.2924 225.846 65.9378 225.363 66.7907C225.363 66.7907 225.066 64.5721 224.813 64.5612C224.813 64.5612 223.832 66.0311 223.731 67.0293C223.778 66.0983 224.07 65.1961 224.577 64.4131C224.011 64.5201 223.489 64.7898 223.074 65.1892C223.074 65.1892 223.228 64.1498 224.819 64.0593C224.819 64.0593 225.629 62.9432 225.846 62.8746C225.846 62.8746 224.264 62.743 223.302 63.168C223.302 63.168 224.148 62.189 226.135 62.6196L227.234 61.7146C227.234 61.7146 225.148 61.4403 224.266 61.7447C224.266 61.7447 225.283 60.8781 227.533 61.5089L228.742 60.7876C228.742 60.7876 226.964 60.4065 225.907 60.5436C225.907 60.5436 227.022 59.943 229.096 60.5929L229.962 60.2063C229.962 60.2063 228.659 59.9512 228.277 59.9101C227.896 59.8689 227.876 59.7647 227.876 59.7647C228.701 59.6278 229.548 59.7227 230.321 60.039C230.321 60.039 232.181 59.3726 232.148 59.2574Z" fill="#3895EA"/>
<path opacity="0.1" d="M102.863 74.3736C102.863 74.3736 98.3132 64.959 92.522 69.5991C92.522 69.5991 91.272 70.016 91.3324 71.3241C91.3324 71.3241 91.8132 71.0745 92.1566 72.0837C92.2849 72.4405 92.4545 72.781 92.6621 73.0984C92.9432 73.5287 93.3569 73.8559 93.8407 74.0308C93.8407 74.0308 96.3324 75.9999 101.082 74.6561C101.082 74.6561 102.409 74.8837 102.626 74.7247L101.11 73.5537C101.11 73.5537 100.286 74.6972 99.1374 74.7987C99.1374 74.7987 101.104 73.6387 100.893 73.3699C100.849 73.3151 100.069 72.7858 100.069 72.7858C100.069 72.7858 98.6374 74.7685 96.8517 74.87C96.8517 74.87 99.3791 73.8005 99.7692 72.5801L98.533 71.8506C98.533 71.8506 97.1236 74.0226 95.0934 74.2146C95.0934 74.2146 97.6978 73.0052 98.25 71.7108L96.9368 71.1623C96.9368 71.1623 95.522 73.252 93.8297 73.4028C93.8297 73.4028 96.6978 71.6998 96.6264 71.0553C96.6264 71.0553 95.3874 70.622 95.0028 70.6632C95.0028 70.6632 93.9533 72.1413 92.9643 72.1413C92.9643 72.1413 94.7583 70.8003 94.6484 70.5836C94.6484 70.5836 92.8846 70.4465 91.9561 70.8579C92.7928 70.4427 93.7239 70.2536 94.6566 70.3094C94.2866 69.8689 93.7958 69.5459 93.2445 69.3797C93.2445 69.3797 94.228 69.0068 95.0824 70.3478C95.0824 70.3478 96.4561 70.5096 96.6181 70.6659C96.6181 70.6659 95.9615 69.2234 95.1236 68.5954C95.1236 68.5954 96.3929 68.8505 96.9725 70.7893L98.305 71.3159C98.305 71.3159 97.5385 69.3633 96.8324 68.7462C96.8324 68.7462 98.0852 69.2097 98.6319 71.4886L99.8517 72.1907C99.8517 72.1907 99.3214 70.4548 98.6841 69.6019C98.6841 69.6019 99.7528 70.282 100.195 72.4046L100.956 72.9695C100.956 72.9695 100.544 71.7108 100.407 71.3597C100.269 71.0087 100.338 70.9374 100.338 70.9374C100.861 71.5885 101.192 72.3718 101.294 73.1999C101.294 73.1999 102.764 74.4559 102.863 74.3736Z" fill="#3895EA"/>
<path opacity="0.1" d="M208.297 45.9569C208.297 45.9569 203.75 36.5423 197.956 41.1824C197.956 41.1824 196.709 41.5992 196.766 42.9073C196.766 42.9073 197.25 42.6605 197.591 43.667C197.719 44.0252 197.889 44.3668 198.099 44.6844C198.379 45.1138 198.792 45.4403 199.275 45.6141C199.275 45.6141 201.769 47.5831 206.516 46.2421C206.516 46.2421 207.843 46.467 208.063 46.3079L206.555 45.1342C206.555 45.1342 205.731 46.2805 204.585 46.3819C204.585 46.3819 206.549 45.2192 206.338 44.9504C206.294 44.8956 205.514 44.3663 205.514 44.3663C205.514 44.3663 204.085 46.349 202.297 46.4505C202.297 46.4505 204.827 45.381 205.217 44.1634L203.962 43.4394C203.962 43.4394 202.555 45.6086 200.522 45.8033C200.522 45.8033 203.126 44.5912 203.681 43.2968L202.365 42.7483C202.365 42.7483 200.951 44.8407 199.261 44.9888C199.261 44.9888 202.126 43.2858 202.055 42.6441C202.055 42.6441 200.819 42.208 200.434 42.2519C200.434 42.2519 199.385 43.7273 198.393 43.7273C198.393 43.7273 200.19 42.3863 200.08 42.1696C200.08 42.1696 198.316 42.0325 197.385 42.4439C198.221 42.0286 199.152 41.8395 200.085 41.8954C199.717 41.4547 199.227 41.1314 198.676 40.9657C198.676 40.9657 199.659 40.5928 200.514 41.9338C200.514 41.9338 201.887 42.0983 202.049 42.2547C202.049 42.2547 201.393 40.8094 200.552 40.1814C200.552 40.1814 201.821 40.4392 202.401 42.389L203.736 42.9156C203.736 42.9156 202.97 40.9602 202.264 40.3432C202.264 40.3432 203.516 40.8067 204.06 43.0856L205.283 43.7876C205.283 43.7876 204.75 42.0545 204.113 41.1988C204.113 41.1988 205.184 41.8789 205.624 44.0016L206.385 44.5665C206.385 44.5665 205.975 43.3077 205.835 42.9567C205.695 42.6057 205.766 42.5371 205.766 42.5371C206.288 43.1888 206.618 43.972 206.72 44.7996C206.72 44.7996 208.212 46.0446 208.297 45.9569Z" fill="#3895EA"/>
<path opacity="0.1" d="M222.827 92.5255C222.827 92.5255 218.28 83.1081 212.478 87.7483C212.478 87.7483 211.231 88.1651 211.288 89.4732C211.288 89.4732 211.772 89.2264 212.113 90.2329C212.24 90.591 212.409 90.9325 212.618 91.2503C212.898 91.6797 213.311 92.0061 213.794 92.18C213.794 92.18 216.288 94.1517 221.038 92.808C221.038 92.808 222.363 93.0356 222.582 92.8738L221.066 91.7028C221.066 91.7028 220.242 92.8491 219.093 92.9506C219.093 92.9506 221.058 91.7878 220.846 91.5191C220.802 91.4642 220.022 90.9349 220.022 90.9349C220.022 90.9349 218.593 92.9177 216.805 93.0219C216.805 93.0219 219.335 91.9496 219.725 90.732L218.486 90.0025C218.486 90.0025 217.08 92.1745 215.047 92.3665C215.047 92.3665 217.651 91.1543 218.206 89.8599L216.89 89.3114C216.89 89.3114 215.475 91.4011 213.786 91.552C213.786 91.552 216.654 89.8489 216.582 89.2045C216.582 89.2045 215.343 88.7684 214.959 88.8123C214.959 88.8123 213.909 90.2877 212.918 90.2877C212.918 90.2877 214.714 88.9467 214.604 88.73C214.604 88.73 212.841 88.5929 211.909 89.0043C212.747 88.5893 213.679 88.4002 214.613 88.4558C214.243 88.0144 213.752 87.6911 213.201 87.5261C213.201 87.5261 214.184 87.1504 215.038 88.4942C215.038 88.4942 216.412 88.656 216.574 88.8123C216.574 88.8123 215.918 87.3698 215.08 86.7391C215.08 86.7391 216.349 86.9968 216.929 88.9467L218.261 89.4732C218.261 89.4732 217.495 87.5179 216.788 86.9036C216.788 86.9036 218.041 87.3643 218.585 89.646L219.808 90.3453C219.808 90.3453 219.275 88.6121 218.637 87.7565C218.637 87.7565 219.709 88.4366 220.151 90.562L220.912 91.1104C220.912 91.1104 220.5 89.8517 220.363 89.5006C220.225 89.1496 220.294 89.0811 220.294 89.0811C220.816 89.732 221.146 90.5156 221.247 91.3435C221.247 91.3435 222.742 92.6078 222.827 92.5255Z" fill="#3895EA"/>
<path opacity="0.1" d="M55.4808 215.047C58.969 215.047 61.7967 214.731 61.7967 214.342C61.7967 213.953 58.969 213.637 55.4808 213.637C51.9926 213.637 49.1648 213.953 49.1648 214.342C49.1648 214.731 51.9926 215.047 55.4808 215.047Z" fill="#3895EA"/>
<path opacity="0.1" d="M14.0769 203.068C17.5651 203.068 20.3929 202.753 20.3929 202.363C20.3929 201.974 17.5651 201.659 14.0769 201.659C10.5887 201.659 7.76099 201.974 7.76099 202.363C7.76099 202.753 10.5887 203.068 14.0769 203.068Z" fill="#3895EA"/>
<path opacity="0.1" d="M87.0412 223.003C90.5294 223.003 93.3571 222.687 93.3571 222.298C93.3571 221.909 90.5294 221.593 87.0412 221.593C83.553 221.593 80.7253 221.909 80.7253 222.298C80.7253 222.687 83.553 223.003 87.0412 223.003Z" fill="#3895EA"/>
<path opacity="0.1" d="M248.772 205.673C252.26 205.673 255.088 205.358 255.088 204.969C255.088 204.579 252.26 204.264 248.772 204.264C245.284 204.264 242.456 204.579 242.456 204.969C242.456 205.358 245.284 205.673 248.772 205.673Z" fill="#3895EA"/>
<path opacity="0.1" d="M196.214 202.254C199.702 202.254 202.53 201.938 202.53 201.549C202.53 201.16 199.702 200.844 196.214 200.844C192.726 200.844 189.898 201.16 189.898 201.549C189.898 201.938 192.726 202.254 196.214 202.254Z" fill="#3895EA"/>
<path opacity="0.1" d="M162.214 218.933C166.34 218.933 169.684 218.36 169.684 217.652C169.684 216.945 166.34 216.372 162.214 216.372C158.089 216.372 154.745 216.945 154.745 217.652C154.745 218.36 158.089 218.933 162.214 218.933Z" fill="#3895EA"/>
<path d="M165.547 204.78C165.547 204.78 155.146 210.144 160.519 216.462C160.519 216.462 161.025 217.833 162.486 217.737C162.486 217.737 162.195 217.205 163.31 216.78C163.707 216.627 164.085 216.427 164.434 216.185C164.906 215.859 165.259 215.388 165.44 214.844C165.44 214.844 167.566 212.003 165.918 206.746C165.918 206.746 166.132 205.259 165.945 205.018L164.681 206.749C164.681 206.749 165.986 207.623 166.137 208.91C166.137 208.91 164.764 206.751 164.489 206.99C164.429 207.039 163.863 207.936 163.863 207.936C163.863 207.936 166.126 209.469 166.294 211.46C166.294 211.46 165.019 208.671 163.643 208.273L162.854 209.677C162.854 209.677 165.327 211.18 165.602 213.44C165.602 213.44 164.165 210.574 162.698 209.996L162.118 211.479C162.118 211.479 164.503 212.993 164.723 214.874C164.723 214.874 162.728 211.729 162.011 211.827C162.011 211.827 161.56 213.221 161.621 213.651C161.621 213.651 163.305 214.776 163.335 215.881C163.335 215.881 161.78 213.92 161.541 214.049C161.541 214.049 161.442 216.021 161.92 217.046C161.92 217.046 161.096 215.582 161.231 214.049C160.749 214.474 160.402 215.031 160.234 215.65C160.234 215.65 159.786 214.567 161.261 213.569C161.261 213.569 161.401 212.036 161.571 211.847C161.571 211.847 159.975 212.625 159.297 213.58C159.297 213.58 159.547 212.157 161.712 211.449L162.261 209.946C162.261 209.946 160.096 210.862 159.429 211.668C159.429 211.668 159.909 210.256 162.431 209.579L163.179 208.208C163.179 208.208 161.255 208.855 160.316 209.579C160.316 209.579 161.044 208.364 163.409 207.804L164.016 206.941C164.016 206.941 162.621 207.437 162.231 207.615C161.841 207.793 161.764 207.706 161.764 207.706C162.477 207.104 163.343 206.711 164.266 206.57C164.266 206.57 165.643 204.873 165.547 204.78Z" fill="#3895EA"/>
<path d="M196.418 103.468C194.621 98.5945 184.731 98.1365 180.44 99.3788C177.39 100.265 170.962 101.263 167.527 101.765L167.305 101.553C167.75 101.422 167.761 101.098 167.706 100.618C167.674 99.9858 167.683 99.3519 167.734 98.7206C169.838 99.3733 171.712 97.8293 171.712 97.8293C174.184 96.7324 173.519 92.0374 173.992 90.754C174.346 89.7941 174.728 84.1393 174.898 81.3202H174.934L174.953 80.374C174.978 79.9654 174.989 79.7268 174.989 79.7268C174.989 79.7268 175.231 72.8325 175.703 71.4366C176.143 70.1532 176.5 63.6866 176.555 62.661C176.555 62.5732 176.555 62.5266 176.555 62.5266L176.519 61.9287C176.544 61.4927 176.555 61.0073 176.552 60.4972C176.552 58.1525 176.308 55.1989 176.277 54.7217C176.277 54.6532 176.277 54.5709 176.277 54.4722C176.297 53.4712 176.17 48.4581 171.898 46.5631C170.324 45.8611 168.431 45.0247 166.599 44.2102C166.126 40.1377 165.047 36.0872 165.14 31.9846C165.14 31.3676 165.195 30.7505 165.256 30.1362C165.256 30.3145 165.236 30.4955 165.234 30.6847C165.234 31.0824 165.234 31.4827 165.234 31.8804C165.396 26.7494 167.338 21.591 167.157 16.5696C167.14 17.0605 167.104 17.5542 167.058 18.0478C167.153 16.3494 166.974 14.6468 166.53 13.0045C166.365 12.4259 166.143 11.828 165.668 11.4414C165.218 11.13 164.703 10.9263 164.162 10.8463C162.862 10.5141 161.541 10.2686 160.209 10.1113C160.006 9.49256 159.706 8.91019 159.319 8.38635C156.533 4.56895 152.407 0.981905 147.528 0.159189C145.08 -0.252169 142.264 0.0906291 140.599 1.83753C140.425 1.99099 140.262 2.1559 140.11 2.33116C139.214 3.39795 138.83 4.79931 137.912 5.86336C137.852 5.93466 137.783 6.00048 137.717 6.06904C135.92 7.67333 133.121 8.0079 131.124 9.44766C130.772 9.70612 130.442 9.99322 130.137 10.306C129.333 11.1021 128.611 11.9778 127.984 12.9195C127.085 14.181 126.162 15.4946 125.876 17.0002C125.302 20.0168 127.36 22.8771 127.742 25.913C128.593 32.7058 121.063 38.7336 122.489 45.436C122.869 47.0826 123.71 48.5878 124.912 49.7772C121.975 52.4318 119.475 55.0069 119.475 55.0069V55.1605H119.011L119.058 55.709H119.011L119.267 58.6845L119.011 63.0175C119.011 63.0175 119.011 63.0641 119.011 63.1518V63.1738V63.2917C119.011 63.2917 119.011 63.3383 119.011 63.4261H119.027C119.113 65.0139 119.451 70.7236 119.852 71.9275C120.324 73.3234 120.563 80.2177 120.563 80.2177C120.563 80.2177 121.085 89.9614 121.563 91.2503C122.041 92.5393 121.363 97.2205 123.843 98.3257C124.569 98.8814 125.428 99.237 126.335 99.3568C126.209 100.382 126.288 101.126 126.698 101.359C126.873 101.462 127.072 101.518 127.275 101.523C127.106 101.773 126.957 102.034 126.827 102.305C125.842 102.202 124.875 101.975 123.948 101.628C121.283 100.531 112.44 98.0624 109.871 99.7984C107.302 101.534 101.121 103.108 103.975 110.096C106.83 117.084 108.159 117.259 108.159 117.259C109.038 117.896 109.809 118.669 110.442 119.549C111.299 120.835 119.286 123.778 121.283 123.778C122.132 123.765 122.981 123.807 123.824 123.904C123.824 123.904 121.657 125.802 121.945 126.904C122.234 128.007 121.286 136.832 121.286 136.832C121.286 136.832 123.484 139.042 124.423 136.143L124.456 136.187C124.632 136.426 125.582 137.503 127.371 136.143C128.103 135.589 128.88 135.097 129.695 134.673L138.354 133.45C139.257 133.394 140.162 133.387 141.066 133.431C142.44 133.543 143.788 132.732 144.637 132.104C146.431 132.784 148.448 133.527 149.407 133.798C151.352 134.347 160.291 136.741 162.382 135.992C162.816 135.82 163.203 135.545 163.508 135.192L165.503 135.255L164.569 135.441C164.569 135.441 166.387 135.471 168.86 135.504L168.756 135.565L171.857 135.537C176.396 135.578 181.495 135.592 182.165 135.441C183.214 135.208 188.668 135.373 190.275 135.441H190.723C190.723 135.441 196.714 134.248 194.242 128.179C192.341 123.517 186.497 122.163 183.904 121.79C184.635 121.644 185.264 121.532 185.681 121.466C187.492 121.192 191.008 119.546 191.294 118.984C191.58 118.422 194.527 116.79 195.288 115.861C196.049 114.931 198.223 108.341 196.418 103.468ZM146.788 117.106L146.495 117.202L146.297 117.267L145.918 117.64C145.615 117.437 145.291 117.224 144.953 117.004C145.549 117.04 146.162 117.075 146.788 117.106Z" fill="url(#paint0_linear)"/>
<path d="M164.305 88.1898C164.305 88.1898 168.508 99.1593 170.898 98.0624C173.288 96.9654 172.64 92.3034 173.096 91.0254C173.552 89.7475 174.058 80.0559 174.058 80.0559C174.058 80.0559 174.288 73.1999 174.745 71.8122C175.168 70.537 175.511 64.1061 175.569 63.0942C175.569 63.0064 175.569 62.9598 175.569 62.9598L175.115 55.0069L172.549 54.3679L166.599 56.5618L165.775 61.2595L165.453 63.0942L165.316 63.8758L164.305 88.1898Z" fill="#BE6F72"/>
<path opacity="0.1" d="M165.69 86.3523C165.69 86.3523 169.701 89.6294 170.909 89.9174C172.118 90.2053 172.86 92.7613 172.86 92.7613" fill="black"/>
<path d="M131.434 88.6695C131.434 88.6695 127.231 99.6391 124.841 98.5421C122.451 97.4452 123.099 92.7831 122.643 91.5051C122.187 90.2272 121.681 80.5356 121.681 80.5356C121.681 80.5356 121.451 73.6796 120.994 72.292C120.571 71.0168 120.228 64.5859 120.17 63.5739C120.17 63.4862 120.17 63.4396 120.17 63.4396L120.626 55.4866L123.192 54.8477L129.143 57.0416L129.967 61.7393L130.288 63.5739L130.426 64.3555L131.434 88.6695Z" fill="#BE6F72"/>
<path d="M158.805 29.9661H149.423V44.5638H158.805V29.9661Z" fill="#3E373A"/>
<path opacity="0.1" d="M158.805 29.9661H149.423V44.5638H158.805V29.9661Z" fill="black"/>
<path d="M129.786 99.5953C129.786 99.5953 126.58 103.114 127.769 103.753C128.959 104.392 136.654 116.368 136.654 116.368C136.654 116.368 161.929 119.475 166.695 114.813C171.462 110.151 171.365 101.822 171.365 101.822C171.365 101.822 167.536 102.645 167.118 102.198C166.701 101.751 164.407 99.5953 164.407 99.5953C164.407 99.5953 131.984 97.6318 129.786 99.5953Z" fill="#4B4B5B"/>
<path opacity="0.02" d="M129.786 99.5953C129.786 99.5953 126.58 103.114 127.769 103.753C128.959 104.392 136.654 116.368 136.654 116.368C136.654 116.368 161.929 119.475 166.695 114.813C171.462 110.151 171.365 101.822 171.365 101.822C171.365 101.822 167.536 102.645 167.118 102.198C166.701 101.751 164.407 99.5953 164.407 99.5953C164.407 99.5953 131.984 97.6318 129.786 99.5953Z" fill="black"/>
<path d="M175.286 55.1221L167.044 61.7038L164.552 61.8848L163.637 61.9506L148.272 63.075L132.338 61.9122L129.967 61.7394L126.945 61.52L120.626 55.4868C120.626 55.4868 125.099 50.7041 129.016 47.4763C130.56 46.2011 132.019 45.1699 133.082 44.7641L133.264 44.701C133.932 44.4407 134.53 44.0252 135.006 43.4888C138.099 40.3049 140.959 32.448 140.959 32.448C140.959 32.448 154.604 25.411 152.956 34.6419C151.308 43.8728 159.091 41.5911 159.091 41.5911L161.657 42.7594L162.67 43.2228L165.256 44.4048L171.088 47.0759C175.665 49.1793 175.286 55.1221 175.286 55.1221Z" fill="#BE6F72"/>
<path opacity="0.1" d="M147.632 39.9649C154.409 39.9649 159.904 34.4802 159.904 27.7146C159.904 20.949 154.409 15.4644 147.632 15.4644C140.854 15.4644 135.36 20.949 135.36 27.7146C135.36 34.4802 140.854 39.9649 147.632 39.9649Z" fill="black"/>
<path opacity="0.1" d="M175.305 63.8484H120.17C120.17 63.7606 120.17 63.714 120.17 63.714L120.626 55.7611C120.626 55.7611 125.099 50.9783 129.016 47.7506L163.632 46.3794L165.242 44.6846L171.074 47.3557C175.654 49.4563 175.286 55.3991 175.286 55.3991C175.286 55.3991 175.912 62.2852 175.305 63.8484Z" fill="black"/>
<path d="M175.305 63.574H120.17C120.17 63.4862 120.17 63.4396 120.17 63.4396L120.626 55.4867C120.626 55.4867 125.099 50.7039 129.016 47.4761L163.632 46.105L165.242 44.4102L171.074 47.0812C175.654 49.1819 175.286 55.1247 175.286 55.1247C175.286 55.1247 175.912 62.0108 175.305 63.574Z" fill="#E7C7CA"/>
<path opacity="0.1" d="M138.794 41.273C138.794 41.273 147.492 52.3358 159.077 41.0454C170.662 29.755 160.36 66.2288 160.36 66.2288L135.36 69.1905L138.794 41.273Z" fill="black"/>
<path d="M138.794 41.8214C138.794 41.8214 147.492 52.8842 159.077 41.5938C170.662 30.3033 160.36 66.7771 160.36 66.7771L135.36 69.7389L138.794 41.8214Z" fill="#E7C7CA"/>
<path opacity="0.1" d="M162.657 43.763L163.577 57.7739L164.563 62.436L165.316 66.0011C165.316 66.0011 167.239 93.4249 166.69 94.7961C166.14 96.1673 166.964 97.2643 167.08 97.9937C167.195 98.7232 166.964 100.555 167.055 101.378C167.146 102.201 167.055 102.565 164.951 102.272C162.846 101.978 159.912 101.468 159.912 101.468C159.912 101.468 152.494 102.017 149.931 101.104C147.368 100.19 142.514 100.188 142.514 100.188C142.514 100.188 135.187 100.371 132.808 100.097C130.429 99.8229 129.143 103.023 127.588 102.107C126.033 101.191 129.418 92.328 130.516 89.7666C131.615 87.2052 129.052 80.7167 129.052 80.7167L132.349 62.4606L133.082 58.3224V45.3125L133.264 45.2494C133.932 44.9891 134.53 44.5736 135.005 44.0373L135.83 57.1294L161.654 58.0454V43.3105" fill="black"/>
<path d="M162.657 43.2145L163.577 57.2253L164.563 61.8874L165.316 65.4525C165.316 65.4525 167.239 92.8764 166.69 94.2475C166.14 95.6187 166.964 96.7157 167.08 97.4452C167.195 98.1746 166.964 100.007 167.055 100.829C167.146 101.652 167.055 102.017 164.951 101.723C162.846 101.43 159.912 100.92 159.912 100.92C159.912 100.92 152.494 101.468 149.931 100.555C147.368 99.6418 142.514 99.6391 142.514 99.6391C142.514 99.6391 135.187 99.8228 132.808 99.5486C130.429 99.2743 129.143 102.475 127.588 101.559C126.033 100.643 129.418 91.7794 130.516 89.218C131.615 86.6566 129.052 80.1681 129.052 80.1681L132.349 61.9121L133.082 57.7738V44.7639L133.264 44.7008C133.932 44.4405 134.53 44.025 135.005 43.4887L135.83 56.5809L161.654 57.4968V42.762" fill="#E7C7CA"/>
<path opacity="0.1" d="M165.626 13.9753C165.47 13.4021 165.253 12.807 164.802 12.4231C164.372 12.1147 163.875 11.9118 163.352 11.8307C162.099 11.5018 160.825 11.2581 159.538 11.1012C159.355 10.4923 159.077 9.91581 158.714 9.39273C156.022 5.59727 152.038 2.01845 147.352 1.20945C144.898 0.78438 142.055 1.16557 140.484 3.09621C139.621 4.15752 139.25 5.56436 138.379 6.60647C136.701 8.63035 133.67 8.87991 131.555 10.4458C130.426 11.2685 129.607 12.4615 128.808 13.6188C127.942 14.872 127.052 16.1774 126.777 17.6747C126.228 20.6667 128.209 23.5188 128.574 26.5381C129.398 33.2926 122.146 39.2848 123.516 45.9488C124.316 49.8347 127.912 52.5716 131.632 53.9593C132.942 54.4502 134.44 54.9383 135.052 56.1943C135.327 56.7428 135.374 57.3763 135.632 57.9302C136.5 59.7786 139.354 59.8499 140.887 58.5034C142.42 57.1569 142.904 54.9794 143.085 52.9473C143.821 44.073 140.261 35.3055 140.676 26.4092C140.799 23.719 141.558 20.6667 143.973 19.4491C147.223 17.8036 151.132 20.546 154.709 20.0222C156.401 24.1334 156.761 28.6708 155.736 32.9965C155.168 35.3631 154.184 37.6585 154.113 40.0992C154.006 43.8152 156.014 47.2103 157.75 50.4956C158.123 51.11 158.372 51.7909 158.484 52.5003C158.511 53.2201 158.377 53.9369 158.091 54.5982C157.11 57.2337 155.418 59.6799 155.225 62.4854C155.169 62.8128 155.243 63.1494 155.431 63.4233C155.625 63.6061 155.875 63.7182 156.14 63.7414C159.107 64.2487 161.673 61.6242 163.121 58.9888C164.735 56.078 165.676 52.8433 165.874 49.5221C166.173 43.9386 164.168 38.4456 164.291 32.8566C164.434 26.5025 167.31 20.1045 165.626 13.9753Z" fill="black"/>
<path d="M165.901 13.7008C165.745 13.1277 165.527 12.5326 165.077 12.1487C164.647 11.8403 164.15 11.6374 163.626 11.5563C162.373 11.2274 161.099 10.9837 159.813 10.8268C159.629 10.2179 159.351 9.6414 158.989 9.11832C156.297 5.32286 152.313 1.74404 147.626 0.935036C145.173 0.509966 142.33 0.891157 140.758 2.8218C139.896 3.8831 139.525 5.28995 138.654 6.33206C136.975 8.35594 133.945 8.60549 131.83 10.1714C130.701 10.9941 129.882 12.1871 129.082 13.3443C128.217 14.5976 127.327 15.903 127.052 17.4003C126.503 20.3923 128.484 23.2444 128.849 26.2637C129.673 33.0182 122.42 39.0103 123.791 45.6744C124.591 49.5603 128.187 52.2972 131.907 53.6849C133.217 54.1757 134.714 54.6639 135.327 55.9199C135.602 56.4684 135.648 57.1019 135.907 57.6558C136.775 59.5042 139.629 59.5755 141.162 58.229C142.695 56.8825 143.179 54.705 143.36 52.6729C144.096 43.7986 140.536 35.0311 140.951 26.1348C141.074 23.4446 141.832 20.3923 144.247 19.1747C147.497 17.5292 151.407 20.2716 154.984 19.7478C156.676 23.859 157.035 28.3964 156.011 32.7221C155.442 35.0887 154.459 37.3841 154.387 39.8248C154.28 43.5408 156.288 46.9358 158.025 50.2212C158.397 50.8356 158.646 51.5165 158.758 52.2259C158.786 52.9457 158.651 53.6625 158.365 54.3238C157.385 56.9593 155.692 59.4055 155.5 62.2109C155.444 62.5384 155.518 62.875 155.706 63.1488C155.9 63.3316 156.149 63.4438 156.415 63.467C159.382 63.9743 161.948 61.3498 163.396 58.7144C165.01 55.8036 165.95 52.5688 166.148 49.2477C166.448 43.6642 164.442 38.1712 164.566 32.5822C164.709 26.2281 167.585 19.8301 165.901 13.7008Z" fill="#3E373A"/>
<path d="M159.832 135.126L170.731 135.474L169.168 127.406L160.819 128.199L159.832 135.126Z" fill="#C3C7D9"/>
<path d="M193.602 116.003C192.868 116.916 190.03 118.562 189.755 119.11C189.481 119.659 186.093 121.304 184.352 121.578C182.61 121.853 177.118 123.043 176.11 123.682C175.387 124.142 169.588 125.601 165.777 126.41C164.745 126.654 163.701 126.842 162.648 126.973C161 127.063 142.962 120.939 142.962 120.939L146.44 117.374L146.632 117.308C147.615 116.977 152.159 115.444 154.681 114.714C157.522 113.891 160.819 110.51 160.819 110.51C160.819 110.51 165.67 108.865 166.313 108.681C166.956 108.497 164.665 102.283 164.665 102.283C164.665 102.283 175.195 100.824 179.316 99.5871C183.437 98.3503 192.962 98.8083 194.701 103.654C196.44 108.5 194.346 115.09 193.602 116.003Z" fill="#4B4B5B"/>
<path d="M145.615 131.451C145.615 131.451 143.511 133.645 141.404 133.464C139.297 133.283 131.929 134.012 131.929 134.012C130.593 134.544 129.343 135.267 128.217 136.16C126.494 137.514 125.58 136.434 125.409 136.203L125.379 136.16C124.462 139.042 122.357 136.845 122.357 136.845C122.357 136.845 123.272 128.069 122.992 126.973C122.712 125.876 124.802 123.992 124.802 123.992L127.275 123.364L133.538 121.762L142.514 124.869L145.615 131.451Z" fill="#E7C7CA"/>
<path opacity="0.1" d="M127.264 123.364L125.409 136.203L125.379 136.16C124.462 139.042 122.357 136.845 122.357 136.845C122.357 136.845 123.272 128.069 122.992 126.973C122.712 125.876 124.802 123.992 124.802 123.992L127.264 123.364Z" fill="black"/>
<path opacity="0.1" d="M140.225 86.8406C140.225 86.8406 145.077 88.486 149.291 86.8406H140.225Z" fill="black"/>
<path opacity="0.1" d="M156.788 89.9504C156.788 89.9504 158.802 90.9542 160.36 89.9504H156.788Z" fill="black"/>
<path opacity="0.1" d="M156.788 92.3306C156.788 92.3306 160.176 92.7831 160.819 91.8699L156.788 92.3306Z" fill="black"/>
<path opacity="0.1" d="M155.69 97.4453C155.69 97.4453 162.052 96.6226 163.632 95.5256L155.69 97.4453Z" fill="black"/>
<path opacity="0.1" d="M136.275 95.5256C136.275 95.5256 139.846 97.5358 142.503 97.4453L136.275 95.5256Z" fill="black"/>
<path opacity="0.1" d="M165.775 126.41C164.743 126.654 163.698 126.842 162.646 126.973C160.997 127.063 142.959 120.939 142.959 120.939L146.437 117.374L146.629 117.308C147.179 117.695 147.629 118.027 147.951 118.279C149.464 119.469 150.926 117.914 151.475 117.914C152.025 117.914 156.786 121.844 156.786 121.844C156.786 121.844 161.181 122.851 161.915 123.764C162.648 124.677 165.212 124.496 165.668 125.135C165.805 125.333 165.821 125.818 165.775 126.41Z" fill="black"/>
<path d="M131.929 102.656C131.929 102.656 127.484 102.911 124.92 101.833C122.357 100.755 113.841 98.268 111.368 100.015C108.896 101.762 102.942 103.306 105.69 110.255C108.437 117.204 109.72 117.385 109.72 117.385C110.57 118.022 111.312 118.79 111.918 119.661C112.742 120.942 120.434 123.865 122.357 123.865C124.28 123.865 127.668 123.865 132.429 127.156C137.19 130.447 141.495 130.815 141.495 130.815C141.495 130.815 147.538 133.283 149.42 133.831C151.302 134.38 159.901 136.755 161.918 136.025C163.934 135.296 165.214 130.721 165.214 130.721C165.214 130.721 166.129 126.608 165.67 125.969C165.212 125.33 162.648 125.511 161.918 124.598C161.187 123.684 156.788 122.678 156.788 122.678C156.788 122.678 152.038 118.745 151.489 118.745C150.94 118.745 149.478 120.298 147.964 119.11C144.949 116.881 141.781 114.865 138.484 113.077C135.005 111.248 131.929 102.656 131.929 102.656Z" fill="#4B4B5B"/>
<path opacity="0.1" d="M122.992 105.308C123.783 105.146 124.601 105.169 125.382 105.375C126.163 105.581 126.886 105.965 127.494 106.495C129.692 108.324 137.088 111.996 137.088 111.996" fill="black"/>
<path opacity="0.1" d="M177.942 105.193C177.942 105.193 168.143 106.674 166.313 108.684L177.942 105.193Z" fill="black"/>
<path d="M189.206 135.474H188.775C187.225 135.419 181.975 135.254 180.964 135.474C179.775 135.748 164.022 135.474 164.022 135.474L167.102 134.835C167.102 134.835 165.959 130.837 166.684 130.505C166.684 130.505 162.563 127.795 165.67 125.966C168.777 124.137 172.126 124.907 172.126 124.907L179.926 122.269L181.423 121.762C181.423 121.762 190.214 122.22 192.593 128.253C194.973 134.286 189.206 135.474 189.206 135.474Z" fill="#E7C7CA"/>
<path opacity="0.1" d="M189.206 135.474H188.775C191.332 133.368 197.118 126.956 179.926 122.283L181.423 121.776C181.423 121.776 190.214 122.234 192.593 128.267C194.973 134.3 189.206 135.474 189.206 135.474Z" fill="black"/>
<path d="M173.044 128.366C173.309 128.366 173.525 128.151 173.525 127.886C173.525 127.621 173.309 127.406 173.044 127.406C172.778 127.406 172.563 127.621 172.563 127.886C172.563 128.151 172.778 128.366 173.044 128.366Z" fill="#4B4B5B"/>
<path d="M170.25 129.158C170.516 129.158 170.731 128.943 170.731 128.678C170.731 128.413 170.516 128.198 170.25 128.198C169.984 128.198 169.769 128.413 169.769 128.678C169.769 128.943 169.984 129.158 170.25 129.158Z" fill="#4B4B5B"/>
<g opacity="0.1">
<path opacity="0.1" d="M156.637 27.2621C156.744 24.2457 156.206 21.2412 155.06 18.448C151.489 18.9801 147.577 16.2294 144.324 17.8749C141.918 19.0925 141.162 22.1448 141.027 24.8351C140.994 25.5453 140.989 26.2556 141.003 26.9659C141.003 26.7136 141.003 26.4586 141.027 26.2063C141.154 23.516 141.909 20.4637 144.324 19.2461C147.577 17.6006 151.484 20.343 155.06 19.8192C156.031 22.1851 156.565 24.7066 156.637 27.2621Z" fill="black"/>
<path opacity="0.1" d="M128.962 26.7602C129.009 26.1626 128.997 25.5619 128.926 24.9667C128.635 22.5534 127.313 20.247 127.074 17.894C126.766 20.7324 128.577 23.4583 128.926 26.3379C128.962 26.4859 128.962 26.6176 128.962 26.7602Z" fill="black"/>
<path opacity="0.1" d="M143.437 51.3703C143.267 53.4051 142.786 55.5799 141.239 56.9291C139.692 58.2784 136.843 58.2043 135.984 56.356C135.709 55.8075 135.668 55.1685 135.401 54.62C134.791 53.364 133.291 52.8759 131.981 52.385C128.258 50.9946 124.668 48.2714 123.868 44.3745C123.797 44.0214 123.748 43.6642 123.723 43.3049C123.655 44.1213 123.704 44.9431 123.868 45.7457C124.668 49.6316 128.264 52.3658 131.981 53.7562C133.291 54.2471 134.791 54.7352 135.401 55.9912C135.676 56.5397 135.723 57.1732 135.984 57.7271C136.849 59.5755 139.703 59.6468 141.239 58.3003C142.775 56.9538 143.253 54.7763 143.437 52.7415C143.521 51.6705 143.549 50.5959 143.522 49.5219C143.522 50.1444 143.486 50.7587 143.437 51.3703Z" fill="black"/>
<path opacity="0.1" d="M164.657 31.2824C164.657 31.68 164.657 32.0749 164.657 32.4698C164.81 27.369 166.684 22.2407 166.5 17.2468C166.357 21.865 164.761 26.5874 164.657 31.2824Z" fill="black"/>
<path opacity="0.1" d="M158.761 51.916C158.829 51.5906 158.85 51.2573 158.824 50.926C158.714 50.2162 158.464 49.5351 158.091 48.9213C156.503 45.9046 154.692 42.8167 154.478 39.4683C154.478 39.6109 154.459 39.7425 154.456 39.8961C154.346 43.6093 156.354 47.0071 158.091 50.2925C158.386 50.8013 158.611 51.3473 158.761 51.916Z" fill="black"/>
<path opacity="0.1" d="M166.236 47.9479C166.031 51.2704 165.084 54.5049 163.464 57.4146C162.014 60.05 159.451 62.6745 156.481 62.1672C156.215 62.1443 155.965 62.031 155.772 61.8463C155.716 61.7835 155.672 61.711 155.643 61.6324C155.61 61.8463 155.582 62.063 155.566 62.2823C155.509 62.609 155.583 62.9448 155.772 63.2175C155.965 63.4022 156.215 63.5155 156.481 63.5384C159.451 64.0457 162.014 61.4212 163.464 58.7858C165.084 55.8761 166.031 52.6415 166.236 49.3191C166.269 48.6774 166.272 48.0384 166.253 47.3994C166.247 47.5832 166.247 47.7642 166.236 47.9479Z" fill="black"/>
</g>
<path opacity="0.1" d="M166.684 130.505C166.684 130.505 173.637 133.417 178.223 126.972" stroke="black" stroke-miterlimit="10"/>
<path opacity="0.1" d="M168.052 135.595C168.052 135.595 173.731 131.909 180.964 135.474" stroke="black" stroke-miterlimit="10"/>
<path opacity="0.1" d="M130.041 134.758C130.041 134.758 132.426 129.389 138.794 133.483" stroke="black" stroke-miterlimit="10"/>
<path opacity="0.1" d="M122.31 55.3496L127.173 50.9618C127.173 50.9618 146.027 49.7277 146.808 56.1257C146.808 56.1257 153.492 48.5402 167.549 50.2295L173.497 54.9574L157.058 62.1589L141.082 67.6903L129.316 62.4332L122.31 55.3496Z" fill="black"/>
<path d="M122.31 55.6238L127.173 51.2359C127.173 51.2359 146.027 50.0019 146.808 56.3998C146.808 56.3998 153.492 48.8144 167.549 50.5037L173.497 55.2316L157.058 62.4331L141.082 67.9645L129.316 62.7073L122.31 55.6238Z" fill="#D5D6DB"/>
<path opacity="0.1" d="M120.159 56.1724L122.31 81.8603L145.113 83.0039L144.124 57.4256L144.104 56.9951L120.159 56.1724Z" fill="black"/>
<path d="M120.159 55.6238L122.31 81.3117L145.113 82.4553L144.124 56.877L144.104 56.4465L120.159 55.6238Z" fill="#3895EA"/>
<path opacity="0.1" d="M174.541 55.6238L151.019 59.145V84.9481L174.005 81.6326L174.541 55.6238Z" fill="black"/>
<path d="M174.541 55.0754L151.019 58.5967V84.3998L174.005 81.0842L174.541 55.0754Z" fill="#3895EA"/>
<path opacity="0.3" d="M168.995 61.3718L156.288 62.7814L156.566 67.1034L168.986 65.7487L168.995 61.3718Z" fill="white"/>
<path d="M123.547 95.0676L124.841 98.5422C124.841 98.5422 126.764 100.188 128.868 99.3649C130.973 98.5422 132.808 98.1336 133.723 97.3328C134.637 96.532 135.92 92.509 135.92 92.509C135.92 92.509 137.203 88.1211 138.484 87.0242C139.764 85.9272 143.154 70.8139 138.484 72.2921C133.813 73.7702 130.242 87.4822 130.242 87.4822C130.242 87.4822 129.418 88.4859 128.228 88.5791C127.038 88.6724 124.657 88.3954 124.198 89.4018C123.739 90.4083 122.173 93.0574 123.547 95.0676Z" fill="#BE6F72"/>
<path opacity="0.1" d="M151.019 59.1423C149.815 59.4132 148.564 59.399 147.366 59.1009C146.168 58.8028 145.057 58.2291 144.121 57.4255L145.113 83.001C145.113 83.001 147.448 85.524 151.019 84.9481V59.1423Z" fill="black"/>
<path d="M151.019 58.5939C149.815 58.8648 148.564 58.8507 147.366 58.5526C146.168 58.2545 145.057 57.6807 144.121 56.8772L145.113 82.4527C145.113 82.4527 147.448 84.9757 151.019 84.3998V58.5939Z" fill="#3895EA"/>
<path opacity="0.1" d="M151.019 58.5939C149.815 58.8648 148.564 58.8507 147.366 58.5526C146.168 58.2545 145.057 57.6807 144.121 56.8772L145.113 82.4527C145.113 82.4527 147.448 84.9757 151.019 84.3998V58.5939Z" fill="black"/>
<path opacity="0.1" d="M151.569 55.7116C151.569 55.7116 161.137 52.7909 163.632 53.2023L151.569 55.7116Z" fill="black"/>
<path opacity="0.1" d="M140.865 54.4365C140.865 54.4365 131.591 52.2426 130.041 52.8651L140.865 54.4365Z" fill="black"/>
<path opacity="0.1" d="M157.602 56.0764C157.602 56.0764 164 53.7344 166.313 54.8478L157.602 56.0764Z" fill="black"/>
<path opacity="0.1" d="M154.379 114.827C155.371 114.083 156.426 113.429 157.533 112.871C159.181 112.079 162.203 110.022 162.203 110.022" fill="black"/>
<path opacity="0.1" d="M130.041 86.8406C130.041 86.8406 126.027 90.1177 124.821 90.4057C123.615 90.6936 122.871 93.2495 122.871 93.2495" fill="black"/>
<path d="M172.181 94.5794L170.901 98.0623C170.901 98.0623 168.978 99.7077 166.871 98.885C164.764 98.0623 162.934 97.6536 162.016 96.8529C161.099 96.0521 159.819 92.029 159.819 92.029C159.819 92.029 158.538 87.6412 157.255 86.5442C155.973 85.4473 152.585 70.334 157.255 71.8121C161.926 73.2903 165.497 87.0022 165.497 87.0022C165.497 87.0022 166.321 88.0059 167.511 88.0992C168.701 88.1924 171.082 87.9154 171.541 88.9219C172 89.9283 173.555 92.5775 172.181 94.5794Z" fill="#BE6F72"/>
<path opacity="0.1" d="M169.937 88.1733C169.937 88.1733 172.56 89.8572 172.549 91.8701L169.937 88.1733Z" fill="black"/>
<path d="M147.676 39.3643C154.453 39.3643 159.948 33.8796 159.948 27.114C159.948 20.3484 154.453 14.8638 147.676 14.8638C140.898 14.8638 135.404 20.3484 135.404 27.114C135.404 33.8796 140.898 39.3643 147.676 39.3643Z" fill="#BE6F72"/>
<path d="M139.97 23.8259C141.459 23.5928 142.764 22.7289 144.187 22.2326C147.371 21.1164 150.893 21.8815 154.115 22.888C155.352 23.2747 156.607 23.7107 157.904 23.7107C159.201 23.7107 160.577 23.1814 161.239 22.0653C161.849 21.0396 161.731 19.7068 161.217 18.6291C160.703 17.5513 159.843 16.6847 158.975 15.8675C156.118 13.1744 152.574 10.6569 148.654 10.9312C147.077 11.0436 145.569 11.6058 144.118 12.2283C142.292 13.014 140.514 13.9078 138.794 14.9049C137.473 15.67 135.025 16.6929 134.264 18.0915C132.533 21.2425 137.277 24.2482 139.97 23.8259Z" fill="#3E373A"/>
<path opacity="0.1" d="M161.239 20.9134C160.577 22.0296 159.201 22.5589 157.904 22.5589C156.607 22.5589 155.352 22.1393 154.113 21.7526C150.89 20.7461 147.371 19.9783 144.184 21.0972C142.764 21.5935 141.456 22.4684 139.967 22.6878C137.797 23.0278 134.302 21.141 133.923 18.7415C133.497 21.514 137.549 23.8889 139.967 23.5105C141.456 23.2774 142.764 22.4135 144.184 21.9199C147.371 20.801 150.89 21.5689 154.113 22.5753C155.352 22.962 156.604 23.398 157.904 23.3816C159.203 23.3651 160.577 22.855 161.239 21.7361C161.582 21.1274 161.717 20.4237 161.624 19.7315C161.581 20.1482 161.45 20.5511 161.239 20.9134Z" fill="black"/>
<path d="M260.83 169.537C260.83 169.537 262.459 171.662 260.077 174.874C257.695 178.085 255.734 180.795 256.525 182.797C256.525 182.797 260.118 176.835 263.041 176.75C265.964 176.665 264.041 173.121 260.83 169.537Z" fill="#3895EA"/>
<path opacity="0.1" d="M260.83 169.537C260.972 169.742 261.083 169.967 261.162 170.204C264.014 173.549 265.536 176.673 262.791 176.75C260.236 176.824 257.173 181.384 256.44 182.533C256.463 182.626 256.491 182.718 256.525 182.808C256.525 182.808 260.118 176.846 263.041 176.761C265.964 176.676 264.041 173.121 260.83 169.537Z" fill="black"/>
<path d="M263.852 172.247C263.852 172.995 263.766 173.601 263.665 173.601C263.563 173.601 263.475 172.995 263.475 172.247C263.475 171.498 263.58 171.852 263.684 171.852C263.788 171.852 263.852 171.498 263.852 172.247Z" fill="#FFD037"/>
<path d="M264.893 173.141C264.236 173.497 263.662 173.714 263.613 173.623C263.563 173.533 264.055 173.168 264.712 172.801C265.368 172.433 265.11 172.702 265.159 172.801C265.209 172.899 265.552 172.781 264.893 173.141Z" fill="#FFD037"/>
<path d="M252.22 169.537C252.22 169.537 250.591 171.662 252.973 174.874C255.354 178.085 257.316 180.795 256.522 182.797C256.522 182.797 252.931 176.835 250.005 176.75C247.08 176.665 249.016 173.121 252.22 169.537Z" fill="#3895EA"/>
<path opacity="0.1" d="M252.22 169.537C252.078 169.742 251.966 169.967 251.887 170.204C249.036 173.549 247.514 176.673 250.258 176.75C252.81 176.824 255.876 181.384 256.61 182.533C256.587 182.627 256.557 182.718 256.522 182.808C256.522 182.808 252.931 176.846 250.005 176.761C247.08 176.676 249.016 173.121 252.22 169.537Z" fill="black"/>
<path d="M249.192 172.247C249.192 172.995 249.275 173.601 249.379 173.601C249.484 173.601 249.569 172.995 249.569 172.247C249.569 171.498 249.462 171.852 249.36 171.852C249.258 171.852 249.192 171.498 249.192 172.247Z" fill="#FFD037"/>
<path d="M248.154 173.141C248.81 173.497 249.385 173.714 249.434 173.623C249.483 173.533 248.992 173.168 248.335 172.801C247.679 172.433 247.937 172.702 247.887 172.801C247.838 172.899 247.494 172.781 248.154 173.141Z" fill="#FFD037"/>
<path opacity="0.1" d="M256.525 199.064C265.932 199.064 273.558 197.897 273.558 196.456C273.558 195.016 265.932 193.848 256.525 193.848C247.118 193.848 239.492 195.016 239.492 196.456C239.492 197.897 247.118 199.064 256.525 199.064Z" fill="#3895EA"/>
<path d="M265.291 179.931L265.209 180.594L265.093 181.532L265.047 181.924L264.931 182.862L264.882 183.255L264.769 184.19L263.464 194.858C263.349 195.809 261.791 196.552 259.909 196.552H253.137C251.255 196.552 249.701 195.809 249.582 194.858L248.277 184.19L248.162 183.255L248.115 182.862L248 181.924L247.951 181.532L247.838 180.594L247.755 179.931C247.692 179.382 248.533 178.938 249.599 178.938H263.451C264.514 178.938 265.357 179.39 265.291 179.931Z" fill="#65617D"/>
<path d="M265.209 180.594L265.096 181.532H247.953L247.838 180.594H265.209Z" fill="#9D9CB5"/>
<path d="M265.047 181.925L264.934 182.862H248.115L248 181.925H265.047Z" fill="#9D9CB5"/>
<path d="M264.885 183.255L264.769 184.193H248.277L248.165 183.255H264.885Z" fill="#9D9CB5"/>
<defs>
<linearGradient id="paint0_linear" x1="150.176" y1="137.646" x2="150.176" y2="0.000129773" gradientUnits="userSpaceOnUse">
<stop stop-color="#808080" stop-opacity="0.25"/>
<stop offset="0.54" stop-color="#808080" stop-opacity="0.12"/>
<stop offset="1" stop-color="#808080" stop-opacity="0.1"/>
</linearGradient>
</defs>
</svg>
