<svg width="600" height="480" viewBox="0 0 600 480" fill="none" xmlns="http://www.w3.org/2000/svg">
<path opacity="0.1" d="M172.365 82.3218H127.357C124.761 82.3218 122.656 84.4283 122.656 87.0268V94.0811C122.656 96.6797 124.761 98.7862 127.357 98.7862H172.365C174.961 98.7862 177.066 96.6797 177.066 94.0811V87.0268C177.066 84.4283 174.961 82.3218 172.365 82.3218Z" fill="#2C83D3"/>
<path opacity="0.1" d="M229.305 98.7861H184.297C181.701 98.7861 179.596 100.893 179.596 103.491V110.546C179.596 113.144 181.701 115.251 184.297 115.251H229.305C231.901 115.251 234.006 113.144 234.006 110.546V103.491C234.006 100.893 231.901 98.7861 229.305 98.7861Z" fill="#2C83D3"/>
<path opacity="0.1" d="M286.246 115.251H241.237C238.641 115.251 236.537 117.357 236.537 119.956V127.01C236.537 129.609 238.641 131.715 241.237 131.715H286.246C288.842 131.715 290.946 129.609 290.946 127.01V119.956C290.946 117.357 288.842 115.251 286.246 115.251Z" fill="#2C83D3"/>
<path opacity="0.1" d="M172.365 57.6255H127.357C124.761 57.6255 122.656 59.732 122.656 62.3305V69.3849C122.656 71.9834 124.761 74.0899 127.357 74.0899H172.365C174.961 74.0899 177.066 71.9834 177.066 69.3849V62.3305C177.066 59.732 174.961 57.6255 172.365 57.6255Z" fill="#2C83D3"/>
<path opacity="0.1" d="M229.305 74.0896H184.297C181.701 74.0896 179.596 76.1961 179.596 78.7946V85.849C179.596 88.4475 181.701 90.554 184.297 90.554H229.305C231.901 90.554 234.006 88.4475 234.006 85.849V78.7946C234.006 76.1961 231.901 74.0896 229.305 74.0896Z" fill="#2C83D3"/>
<path opacity="0.1" d="M286.246 90.554H241.237C238.641 90.554 236.537 92.6605 236.537 95.259V102.313C236.537 104.912 238.641 107.018 241.237 107.018H286.246C288.842 107.018 290.946 104.912 290.946 102.313V95.259C290.946 92.6605 288.842 90.554 286.246 90.554Z" fill="#2C83D3"/>
<path opacity="0.1" d="M349.513 82.3218H304.505C301.908 82.3218 299.804 84.4283 299.804 87.0268V94.0811C299.804 96.6797 301.908 98.7862 304.505 98.7862H349.513C352.109 98.7862 354.214 96.6797 354.214 94.0811V87.0268C354.214 84.4283 352.109 82.3218 349.513 82.3218Z" fill="#2C83D3"/>
<path opacity="0.1" d="M406.453 98.7861H361.445C358.849 98.7861 356.744 100.893 356.744 103.491V110.546C356.744 113.144 358.849 115.251 361.445 115.251H406.453C409.049 115.251 411.154 113.144 411.154 110.546V103.491C411.154 100.893 409.049 98.7861 406.453 98.7861Z" fill="#2C83D3"/>
<path opacity="0.1" d="M463.394 115.251H418.385C415.789 115.251 413.685 117.357 413.685 119.956V127.01C413.685 129.609 415.789 131.715 418.385 131.715H463.394C465.99 131.715 468.094 129.609 468.094 127.01V119.956C468.094 117.357 465.99 115.251 463.394 115.251Z" fill="#2C83D3"/>
<path opacity="0.1" d="M349.513 57.6255H304.505C301.908 57.6255 299.804 59.732 299.804 62.3305V69.3849C299.804 71.9834 301.908 74.0899 304.505 74.0899H349.513C352.109 74.0899 354.214 71.9834 354.214 69.3849V62.3305C354.214 59.732 352.109 57.6255 349.513 57.6255Z" fill="#2C83D3"/>
<path opacity="0.1" d="M406.453 74.0896H361.445C358.849 74.0896 356.744 76.1961 356.744 78.7946V85.849C356.744 88.4475 358.849 90.554 361.445 90.554H406.453C409.049 90.554 411.154 88.4475 411.154 85.849V78.7946C411.154 76.1961 409.049 74.0896 406.453 74.0896Z" fill="#2C83D3"/>
<path opacity="0.1" d="M463.394 90.554H418.385C415.789 90.554 413.685 92.6605 413.685 95.259V102.313C413.685 104.912 415.789 107.018 418.385 107.018H463.394C465.99 107.018 468.094 104.912 468.094 102.313V95.259C468.094 92.6605 465.99 90.554 463.394 90.554Z" fill="#2C83D3"/>
<path opacity="0.1" d="M172.365 24.6965H127.357C124.761 24.6965 122.656 26.803 122.656 29.4015V36.4559C122.656 39.0544 124.761 41.1609 127.357 41.1609H172.365C174.961 41.1609 177.066 39.0544 177.066 36.4559V29.4015C177.066 26.803 174.961 24.6965 172.365 24.6965Z" fill="#2C83D3"/>
<path opacity="0.1" d="M229.305 41.1609H184.297C181.701 41.1609 179.596 43.2674 179.596 45.8659V52.9203C179.596 55.5188 181.701 57.6253 184.297 57.6253H229.305C231.901 57.6253 234.006 55.5188 234.006 52.9203V45.8659C234.006 43.2674 231.901 41.1609 229.305 41.1609Z" fill="#2C83D3"/>
<path opacity="0.1" d="M286.246 57.6255H241.237C238.641 57.6255 236.537 59.732 236.537 62.3305V69.3849C236.537 71.9834 238.641 74.0899 241.237 74.0899H286.246C288.842 74.0899 290.946 71.9834 290.946 69.3849V62.3305C290.946 59.732 288.842 57.6255 286.246 57.6255Z" fill="#2C83D3"/>
<path opacity="0.1" d="M172.365 0H127.357C124.761 0 122.656 2.10651 122.656 4.70501V11.7594C122.656 14.3579 124.761 16.4644 127.357 16.4644H172.365C174.961 16.4644 177.066 14.3579 177.066 11.7594V4.70501C177.066 2.10651 174.961 0 172.365 0Z" fill="#2C83D3"/>
<path opacity="0.1" d="M229.305 16.4644H184.297C181.701 16.4644 179.596 18.5709 179.596 21.1694V28.2237C179.596 30.8222 181.701 32.9287 184.297 32.9287H229.305C231.901 32.9287 234.006 30.8222 234.006 28.2237V21.1694C234.006 18.5709 231.901 16.4644 229.305 16.4644Z" fill="#2C83D3"/>
<path opacity="0.1" d="M286.246 32.9287H241.237C238.641 32.9287 236.537 35.0352 236.537 37.6337V44.6881C236.537 47.2866 238.641 49.3931 241.237 49.3931H286.246C288.842 49.3931 290.946 47.2866 290.946 44.6881V37.6337C290.946 35.0352 288.842 32.9287 286.246 32.9287Z" fill="#2C83D3"/>
<path opacity="0.1" d="M349.513 24.6965H304.505C301.908 24.6965 299.804 26.803 299.804 29.4015V36.4559C299.804 39.0544 301.908 41.1609 304.505 41.1609H349.513C352.109 41.1609 354.214 39.0544 354.214 36.4559V29.4015C354.214 26.803 352.109 24.6965 349.513 24.6965Z" fill="#2C83D3"/>
<path opacity="0.1" d="M406.453 41.1609H361.445C358.849 41.1609 356.744 43.2674 356.744 45.8659V52.9203C356.744 55.5188 358.849 57.6253 361.445 57.6253H406.453C409.049 57.6253 411.154 55.5188 411.154 52.9203V45.8659C411.154 43.2674 409.049 41.1609 406.453 41.1609Z" fill="#2C83D3"/>
<path opacity="0.1" d="M463.394 57.6255H418.385C415.789 57.6255 413.685 59.732 413.685 62.3305V69.3849C413.685 71.9834 415.789 74.0899 418.385 74.0899H463.394C465.99 74.0899 468.094 71.9834 468.094 69.3849V62.3305C468.094 59.732 465.99 57.6255 463.394 57.6255Z" fill="#2C83D3"/>
<path opacity="0.1" d="M349.513 0H304.505C301.908 0 299.804 2.10651 299.804 4.70501V11.7594C299.804 14.3579 301.908 16.4644 304.505 16.4644H349.513C352.109 16.4644 354.214 14.3579 354.214 11.7594V4.70501C354.214 2.10651 352.109 0 349.513 0Z" fill="#2C83D3"/>
<path opacity="0.1" d="M406.453 16.4644H361.445C358.849 16.4644 356.744 18.5709 356.744 21.1694V28.2237C356.744 30.8222 358.849 32.9287 361.445 32.9287H406.453C409.049 32.9287 411.154 30.8222 411.154 28.2237V21.1694C411.154 18.5709 409.049 16.4644 406.453 16.4644Z" fill="#2C83D3"/>
<path opacity="0.1" d="M463.394 32.9287H418.385C415.789 32.9287 413.685 35.0352 413.685 37.6337V44.6881C413.685 47.2866 415.789 49.3931 418.385 49.3931H463.394C465.99 49.3931 468.094 47.2866 468.094 44.6881V37.6337C468.094 35.0352 465.99 32.9287 463.394 32.9287Z" fill="#2C83D3"/>
<path opacity="0.1" d="M172.365 375.515H127.357C124.761 375.515 122.656 377.621 122.656 380.22V387.274C122.656 389.873 124.761 391.979 127.357 391.979H172.365C174.961 391.979 177.066 389.873 177.066 387.274V380.22C177.066 377.621 174.961 375.515 172.365 375.515Z" fill="#2C83D3"/>
<path opacity="0.1" d="M229.305 391.979H184.297C181.701 391.979 179.596 394.086 179.596 396.684V403.738C179.596 406.337 181.701 408.443 184.297 408.443H229.305C231.901 408.443 234.006 406.337 234.006 403.738V396.684C234.006 394.086 231.901 391.979 229.305 391.979Z" fill="#2C83D3"/>
<path opacity="0.1" d="M286.246 408.443H241.237C238.641 408.443 236.537 410.55 236.537 413.148V420.202C236.537 422.801 238.641 424.907 241.237 424.907H286.246C288.842 424.907 290.946 422.801 290.946 420.202V413.148C290.946 410.55 288.842 408.443 286.246 408.443Z" fill="#2C83D3"/>
<path opacity="0.1" d="M172.365 350.818H127.357C124.761 350.818 122.656 352.924 122.656 355.523V362.577C122.656 365.176 124.761 367.282 127.357 367.282H172.365C174.961 367.282 177.066 365.176 177.066 362.577V355.523C177.066 352.924 174.961 350.818 172.365 350.818Z" fill="#2C83D3"/>
<path opacity="0.1" d="M229.305 367.282H184.297C181.701 367.282 179.596 369.389 179.596 371.987V379.042C179.596 381.64 181.701 383.747 184.297 383.747H229.305C231.901 383.747 234.006 381.64 234.006 379.042V371.987C234.006 369.389 231.901 367.282 229.305 367.282Z" fill="#2C83D3"/>
<path opacity="0.1" d="M286.246 383.747H241.237C238.641 383.747 236.537 385.853 236.537 388.452V395.506C236.537 398.104 238.641 400.211 241.237 400.211H286.246C288.842 400.211 290.946 398.104 290.946 395.506V388.452C290.946 385.853 288.842 383.747 286.246 383.747Z" fill="#2C83D3"/>
<path opacity="0.1" d="M349.513 375.515H304.505C301.908 375.515 299.804 377.621 299.804 380.22V387.274C299.804 389.873 301.908 391.979 304.505 391.979H349.513C352.109 391.979 354.214 389.873 354.214 387.274V380.22C354.214 377.621 352.109 375.515 349.513 375.515Z" fill="#2C83D3"/>
<path opacity="0.1" d="M406.453 391.979H361.445C358.849 391.979 356.744 394.086 356.744 396.684V403.738C356.744 406.337 358.849 408.443 361.445 408.443H406.453C409.049 408.443 411.154 406.337 411.154 403.738V396.684C411.154 394.086 409.049 391.979 406.453 391.979Z" fill="#2C83D3"/>
<path opacity="0.1" d="M463.394 408.443H418.385C415.789 408.443 413.685 410.55 413.685 413.148V420.202C413.685 422.801 415.789 424.907 418.385 424.907H463.394C465.99 424.907 468.094 422.801 468.094 420.202V413.148C468.094 410.55 465.99 408.443 463.394 408.443Z" fill="#2C83D3"/>
<path opacity="0.1" d="M349.513 350.818H304.505C301.908 350.818 299.804 352.924 299.804 355.523V362.577C299.804 365.176 301.908 367.282 304.505 367.282H349.513C352.109 367.282 354.214 365.176 354.214 362.577V355.523C354.214 352.924 352.109 350.818 349.513 350.818Z" fill="#2C83D3"/>
<path opacity="0.1" d="M406.453 367.282H361.445C358.849 367.282 356.744 369.389 356.744 371.987V379.042C356.744 381.64 358.849 383.747 361.445 383.747H406.453C409.049 383.747 411.154 381.64 411.154 379.042V371.987C411.154 369.389 409.049 367.282 406.453 367.282Z" fill="#2C83D3"/>
<path opacity="0.1" d="M463.394 383.747H418.385C415.789 383.747 413.685 385.853 413.685 388.452V395.506C413.685 398.104 415.789 400.211 418.385 400.211H463.394C465.99 400.211 468.094 398.104 468.094 395.506V388.452C468.094 385.853 465.99 383.747 463.394 383.747Z" fill="#2C83D3"/>
<path opacity="0.1" d="M172.365 317.889H127.357C124.761 317.889 122.656 319.996 122.656 322.594V329.649C122.656 332.247 124.761 334.354 127.357 334.354H172.365C174.961 334.354 177.066 332.247 177.066 329.649V322.594C177.066 319.996 174.961 317.889 172.365 317.889Z" fill="#2C83D3"/>
<path opacity="0.1" d="M229.305 334.354H184.297C181.701 334.354 179.596 336.46 179.596 339.059V346.113C179.596 348.711 181.701 350.818 184.297 350.818H229.305C231.901 350.818 234.006 348.711 234.006 346.113V339.059C234.006 336.46 231.901 334.354 229.305 334.354Z" fill="#2C83D3"/>
<path opacity="0.1" d="M286.246 350.818H241.237C238.641 350.818 236.537 352.924 236.537 355.523V362.577C236.537 365.176 238.641 367.282 241.237 367.282H286.246C288.842 367.282 290.946 365.176 290.946 362.577V355.523C290.946 352.924 288.842 350.818 286.246 350.818Z" fill="#2C83D3"/>
<path opacity="0.1" d="M172.365 293.193H127.357C124.761 293.193 122.656 295.299 122.656 297.898V304.952C122.656 307.551 124.761 309.657 127.357 309.657H172.365C174.961 309.657 177.066 307.551 177.066 304.952V297.898C177.066 295.299 174.961 293.193 172.365 293.193Z" fill="#2C83D3"/>
<path opacity="0.1" d="M229.305 309.657H184.297C181.701 309.657 179.596 311.763 179.596 314.362V321.416C179.596 324.015 181.701 326.121 184.297 326.121H229.305C231.901 326.121 234.006 324.015 234.006 321.416V314.362C234.006 311.763 231.901 309.657 229.305 309.657Z" fill="#2C83D3"/>
<path opacity="0.1" d="M286.246 326.121H241.237C238.641 326.121 236.537 328.228 236.537 330.826V337.881C236.537 340.479 238.641 342.586 241.237 342.586H286.246C288.842 342.586 290.946 340.479 290.946 337.881V330.826C290.946 328.228 288.842 326.121 286.246 326.121Z" fill="#2C83D3"/>
<path opacity="0.1" d="M349.513 317.889H304.505C301.908 317.889 299.804 319.996 299.804 322.594V329.649C299.804 332.247 301.908 334.354 304.505 334.354H349.513C352.109 334.354 354.214 332.247 354.214 329.649V322.594C354.214 319.996 352.109 317.889 349.513 317.889Z" fill="#2C83D3"/>
<path opacity="0.1" d="M406.453 334.354H361.445C358.849 334.354 356.744 336.46 356.744 339.059V346.113C356.744 348.711 358.849 350.818 361.445 350.818H406.453C409.049 350.818 411.154 348.711 411.154 346.113V339.059C411.154 336.46 409.049 334.354 406.453 334.354Z" fill="#2C83D3"/>
<path opacity="0.1" d="M463.394 350.818H418.385C415.789 350.818 413.685 352.924 413.685 355.523V362.577C413.685 365.176 415.789 367.282 418.385 367.282H463.394C465.99 367.282 468.094 365.176 468.094 362.577V355.523C468.094 352.924 465.99 350.818 463.394 350.818Z" fill="#2C83D3"/>
<path opacity="0.1" d="M349.513 293.193H304.505C301.908 293.193 299.804 295.299 299.804 297.898V304.952C299.804 307.551 301.908 309.657 304.505 309.657H349.513C352.109 309.657 354.214 307.551 354.214 304.952V297.898C354.214 295.299 352.109 293.193 349.513 293.193Z" fill="#2C83D3"/>
<path opacity="0.1" d="M406.453 309.657H361.445C358.849 309.657 356.744 311.763 356.744 314.362V321.416C356.744 324.015 358.849 326.121 361.445 326.121H406.453C409.049 326.121 411.154 324.015 411.154 321.416V314.362C411.154 311.763 409.049 309.657 406.453 309.657Z" fill="#2C83D3"/>
<path opacity="0.1" d="M463.394 326.121H418.385C415.789 326.121 413.685 328.228 413.685 330.826V337.881C413.685 340.479 415.789 342.586 418.385 342.586H463.394C465.99 342.586 468.094 340.479 468.094 337.881V330.826C468.094 328.228 465.99 326.121 463.394 326.121Z" fill="#2C83D3"/>
<path opacity="0.1" d="M305.182 480C458.4 480 582.608 469.794 582.608 457.203C582.608 444.613 458.4 434.406 305.182 434.406C151.963 434.406 27.7552 444.613 27.7552 457.203C27.7552 469.794 151.963 480 305.182 480Z" fill="#2C83D3"/>
<path d="M53.5556 118.29C79.7166 129.638 94.7488 153.119 94.7488 153.119C94.7488 153.119 67.3605 158.185 41.1932 146.843C15.0259 135.502 0 112.015 0 112.015C0 112.015 27.3883 106.943 53.5556 118.29Z" fill="#2C83D3"/>
<path d="M133.842 74.7229C141.933 61.4247 155.713 55.0923 155.713 55.0923C155.713 55.0923 156.346 70.2522 148.279 83.5123C140.213 96.7725 126.401 103.099 126.401 103.099C126.401 103.099 125.743 87.9451 133.842 74.7229Z" fill="#2C83D3"/>
<path d="M74.3578 88.9521C80.1468 109.634 96.1027 123.249 96.1027 123.249C96.1027 123.249 102.676 103.32 96.8872 82.6323C91.0983 61.9441 75.136 48.3357 75.136 48.3357C75.136 48.3357 68.5626 68.2639 74.3578 88.9521Z" fill="#46455B"/>
<path d="M531.861 88.021H79.7672C77.2479 88.021 75.2056 90.0651 75.2056 92.5867V314.59C75.2056 317.111 77.2479 319.156 79.7672 319.156H531.861C534.381 319.156 536.423 317.111 536.423 314.59V92.5867C536.423 90.0651 534.381 88.021 531.861 88.021Z" fill="#3F3D56"/>
<path opacity="0.1" d="M75.2056 305.224H536.423V314.59C536.423 315.801 535.942 316.962 535.087 317.819C534.231 318.675 533.071 319.156 531.861 319.156H79.7672C78.5574 319.156 77.3971 318.675 76.5417 317.819C75.6862 316.962 75.2056 315.801 75.2056 314.59V305.224Z" fill="black"/>
<path d="M152.708 288.126H121.707C120.833 288.126 120.125 288.835 120.125 289.71V303.641C120.125 304.515 120.833 305.224 121.707 305.224H152.708C153.581 305.224 154.289 304.515 154.289 303.641V289.71C154.289 288.835 153.581 288.126 152.708 288.126Z" fill="#2C83D3"/>
<path d="M185.923 302.691H165.045C164.346 302.691 163.78 303.258 163.78 303.958C163.78 304.657 164.346 305.224 165.045 305.224H185.923C186.622 305.224 187.188 304.657 187.188 303.958C187.188 303.258 186.622 302.691 185.923 302.691Z" fill="#2C83D3"/>
<path d="M142.996 133.222C159.693 136.306 176.724 133.222 193.351 131.133L243.882 124.8C245.926 124.54 248.899 123.318 250.101 125.82C250.778 127.219 250.323 130.252 250.373 131.861C250.506 136.293 250.493 140.726 250.373 145.159C250.145 153.632 249.525 162.086 248.735 170.52C247.197 187.029 245.021 203.449 243.933 220.021C243.376 228.456 243.098 236.916 243.344 245.351C243.401 247.365 243.483 249.378 243.604 251.386C243.737 253.634 244.742 256.971 242.294 258.472C240.896 259.333 238.144 259.289 236.543 259.542C234.012 259.941 231.482 260.258 228.9 260.517C211.888 262.221 194.654 261.511 177.578 261.41L126.015 261.144L113.438 261.074C112.299 261.074 108.193 261.758 107.491 260.403C107.193 259.827 107.984 257.129 108.123 256.407C108.318 255.217 108.528 254.029 108.756 252.842C110.224 244.515 111.957 236.239 113.704 227.968C117.455 210.238 121.296 192.418 122.839 174.307C123.605 165.22 123.099 156.051 124.035 146.983C124.472 142.772 124.991 133.374 130.59 133.001C135.335 132.684 140.219 133.001 144.977 133.001C145.228 133.001 145.47 132.901 145.648 132.722C145.826 132.544 145.926 132.303 145.926 132.051C145.926 131.799 145.826 131.557 145.648 131.379C145.47 131.201 145.228 131.101 144.977 131.101C140.485 131.101 135.986 130.981 131.494 131.069C128.508 131.126 126.433 131.835 125.009 134.584C121.372 141.638 121.745 151.048 121.631 158.748C121.359 177.182 118.531 195.223 114.849 213.252C112.995 222.326 110.996 231.369 109.155 240.45C108.288 244.787 107.459 249.138 106.7 253.501C106.346 255.578 104.555 260.156 106.131 262.062C107.706 263.968 112.552 262.943 114.722 262.955L129.818 263.044L158.744 263.208C177.433 263.316 196.185 263.842 214.868 263.291C223.788 263.025 233.215 262.658 241.902 260.524C244.489 259.89 245.736 258.7 245.837 255.939C245.989 251.658 245.293 247.244 245.204 242.945C244.572 206.153 253.208 169.874 252.322 133.07C252.265 130.569 253.208 124.262 250.474 122.748C249.247 122.064 247.653 122.438 246.362 122.59C243.895 122.875 241.434 123.223 238.966 123.515L206.921 127.517C196.678 128.783 186.442 130.151 176.18 131.316C165.317 132.583 154.346 133.336 143.521 131.316C142.326 131.095 141.813 132.925 143.015 133.146L142.996 133.222Z" fill="#2C83D3"/>
<path d="M122.852 155.607L249.272 149.402C250.493 149.338 250.5 147.438 249.272 147.502L122.852 153.708C121.637 153.765 121.631 155.664 122.852 155.607Z" fill="#2C83D3"/>
<path d="M161.799 139.947C161.446 140.322 161.189 140.778 161.052 141.275C160.914 141.772 160.9 142.295 161.01 142.799C161.121 143.302 161.352 143.771 161.685 144.165C162.017 144.559 162.441 144.865 162.919 145.058C164.621 145.837 166.62 145.184 168.309 144.76C170.84 144.127 173.371 143.563 175.971 143.101C181.631 142.098 187.363 141.564 193.11 141.505C195.729 141.473 198.33 141.594 200.949 141.708C202.847 141.784 204.891 141.936 206.498 140.758C208.332 139.415 208.927 136.794 207.13 135.16C204.599 132.849 199.146 134.191 196.223 134.432C185.617 135.314 175.079 136.887 164.678 139.143C163.489 139.396 163.988 141.233 165.184 140.973C172.046 139.491 178.962 138.301 185.929 137.402C189.354 136.98 192.785 136.623 196.223 136.332C197.843 136.199 199.462 136.078 201.082 135.983C201.715 135.945 202.385 135.876 203.03 135.895C205.036 135.939 205.27 135.578 204.068 138.003C202.999 140.15 203.34 139.903 201.487 139.833C200.702 139.833 199.918 139.745 199.133 139.707C197.526 139.639 195.919 139.603 194.312 139.599C190.892 139.599 187.479 139.764 184.076 140.093C181.191 140.372 178.312 140.764 175.459 141.271C173.675 141.587 171.903 141.955 170.138 142.36C169.36 142.544 168.575 142.734 167.797 142.93C167.424 143.031 167.044 143.12 166.671 143.215C165.287 143.696 164.109 143.063 163.134 141.315C163.982 140.435 162.647 139.086 161.793 139.973L161.799 139.947Z" fill="#2C83D3"/>
<path d="M184.715 166.974C175.56 166.62 165.671 169.096 159.642 176.473C154.922 182.242 152.233 192.139 157.231 198.637C162.603 205.602 174.383 204.374 181.488 201.404C189.004 198.238 197.229 191.709 199.488 183.54C202.303 173.338 193.161 165.625 183.639 165.511C182.418 165.511 182.418 167.411 183.639 167.411C189.067 167.475 194.395 169.805 196.925 174.865C199.576 180.196 197.292 185.794 193.762 190.062C188.106 196.857 179.261 201.98 170.252 201.834C164.842 201.752 158.864 199.897 157.187 194.185C155.808 189.556 156.858 184.496 159.262 180.393C164.463 171.527 175.047 168.526 184.753 168.906C185.974 168.95 185.974 167.05 184.753 167.006L184.715 166.974Z" fill="#2C83D3"/>
<path d="M175.623 181.045C175.233 180.9 174.812 180.856 174.401 180.918C173.989 180.98 173.6 181.145 173.269 181.397C172.938 181.65 172.676 181.983 172.508 182.364C172.34 182.745 172.271 183.163 172.308 183.578C172.498 186.047 175.218 186.744 177.262 186.598C179.027 186.446 181.089 185.794 180.469 183.584C180.355 183.193 180.158 182.831 179.892 182.523C179.626 182.215 179.296 181.968 178.926 181.798C178.36 181.574 177.745 181.497 177.142 181.577C176.908 181.577 174.763 182.362 175.674 181.418L174.181 181.222C174.346 181.386 174.473 181.584 174.552 181.804C174.631 182.023 174.66 182.257 174.636 182.489C174.639 182.654 174.685 182.816 174.769 182.958C174.853 183.101 174.973 183.219 175.116 183.302C175.26 183.384 175.422 183.428 175.587 183.428C175.753 183.429 175.916 183.387 176.06 183.305C176.277 183.214 176.515 183.186 176.747 183.223C176.98 183.26 177.197 183.361 177.375 183.515C177.553 183.669 177.685 183.87 177.756 184.094C177.826 184.319 177.833 184.559 177.774 184.787C177.723 185.007 177.751 185.237 177.853 185.438C177.956 185.638 178.125 185.797 178.332 185.884C178.54 185.972 178.771 185.984 178.986 185.918C179.201 185.851 179.386 185.711 179.508 185.522C180.14 184.382 180.906 182.115 179.957 180.924C179.324 180.12 178.103 180.361 177.344 180.829C176.875 181.161 176.439 181.537 176.041 181.95C175.275 182.628 174.775 182.944 175.06 181.646C175.535 179.284 177.787 177.404 179.843 176.46L178.451 175.39C177.722 178.135 176.417 180.693 174.624 182.894L176.243 183.565C176.197 182.696 176.421 181.833 176.883 181.095C177.344 180.357 178.023 179.78 178.825 179.443H177.895L178.388 180.253C178.205 181.45 180.033 181.963 180.216 180.753C180.457 179.189 179.47 177.157 177.641 177.923C175.459 178.835 174.326 181.336 174.371 183.565C174.371 184.325 175.446 184.914 175.996 184.243C178.009 181.796 179.477 178.949 180.305 175.89C180.349 175.709 180.339 175.518 180.277 175.342C180.215 175.166 180.103 175.012 179.955 174.899C179.806 174.785 179.628 174.717 179.442 174.703C179.256 174.689 179.07 174.73 178.907 174.82C177.012 175.677 175.41 177.074 174.301 178.835C173.529 180.101 172.561 182.077 173.346 183.533C173.474 183.766 173.648 183.972 173.856 184.137C174.064 184.303 174.303 184.425 174.559 184.498C174.815 184.57 175.083 184.591 175.347 184.559C175.611 184.527 175.866 184.443 176.098 184.312C176.683 183.965 177.217 183.539 177.686 183.046C177.92 182.837 178.179 182.476 178.489 182.413C178.768 182.223 178.755 182.33 178.445 182.748C178.441 183.404 178.25 184.046 177.895 184.597L179.628 185.325C179.784 184.734 179.766 184.11 179.576 183.529C179.385 182.948 179.031 182.435 178.555 182.051C178.079 181.667 177.502 181.429 176.895 181.367C176.287 181.304 175.674 181.419 175.13 181.697L176.56 182.52C176.59 181.714 176.337 180.923 175.845 180.285C175.77 180.162 175.669 180.057 175.548 179.978C175.428 179.899 175.291 179.849 175.148 179.83C175.006 179.811 174.86 179.825 174.724 179.869C174.587 179.914 174.462 179.989 174.358 180.089C173.396 181.095 173.213 182.837 174.421 183.768C175.326 184.458 175.769 183.768 176.762 183.609C180.134 183.172 178.167 184.692 176.977 184.743C176.445 184.8 175.907 184.761 175.389 184.629C174.069 184.181 173.987 183.605 175.142 182.9C176.275 183.362 176.762 181.526 175.649 181.07L175.623 181.045Z" fill="#2C83D3"/>
<path d="M174.098 184.515C174.877 187.048 171.663 187.884 170.138 188.758C169.068 189.358 168.135 190.176 167.398 191.158C165.804 193.298 165.209 196.021 164.684 198.586C164.444 199.783 166.272 200.289 166.519 199.092C166.808 197.208 167.347 195.37 168.12 193.627C169.258 191.36 170.891 190.6 173.017 189.435C175.142 188.27 176.68 186.465 175.927 184.008C175.573 182.843 173.738 183.344 174.098 184.515Z" fill="#2C83D3"/>
<path d="M177.262 183.242C176.809 183.305 176.396 183.535 176.104 183.886C175.811 184.237 175.66 184.685 175.68 185.142C175.68 185.896 176.18 186.377 176.522 186.979C177.332 188.209 177.951 189.557 178.356 190.974C178.66 192.336 178.957 194.774 178.249 196.04C176.939 198.39 174.573 197.94 172.555 197.94C170.657 197.94 169.189 198.573 169.252 195.926C169.29 194.438 170.328 192.931 171.15 191.76L169.417 191.532C169.782 193.465 169.975 195.428 169.992 197.395C169.992 198.276 171.34 198.763 171.758 197.87C172.775 195.729 173.582 193.494 174.168 191.196L172.302 190.943L172.631 195.755C172.636 195.961 172.707 196.159 172.834 196.32C172.961 196.482 173.136 196.598 173.335 196.652C173.533 196.706 173.743 196.695 173.934 196.62C174.125 196.545 174.287 196.411 174.396 196.237C174.617 195.992 174.78 195.699 174.87 195.382C174.934 195.084 174.351 193.077 174.117 193.792L175.977 194.046L176.11 189.474L174.212 189.727C174.613 191.016 174.734 192.376 174.567 193.716C174.446 194.774 176.224 195.014 176.465 193.97L177.654 187.827L175.92 188.049C176.332 188.898 176.446 189.862 176.243 190.784C176.104 192 178.002 191.988 178.141 190.784C178.302 189.523 178.1 188.243 177.559 187.093C177.463 186.934 177.323 186.807 177.156 186.727C176.989 186.647 176.802 186.617 176.618 186.641C176.434 186.665 176.262 186.742 176.121 186.863C175.98 186.983 175.878 187.143 175.826 187.321L174.63 193.463L176.496 193.716C176.686 192.207 176.541 190.674 176.072 189.227C176.009 189.009 175.87 188.82 175.68 188.696C175.489 188.572 175.261 188.52 175.036 188.55C174.811 188.58 174.605 188.69 174.453 188.859C174.302 189.028 174.217 189.246 174.212 189.474L174.079 194.046C174.079 195.154 175.617 195.312 175.946 194.299L176.047 193.989C176.091 193.827 176.092 193.657 176.05 193.494C176.007 193.332 175.924 193.184 175.807 193.064C173.839 190.924 173.44 194.331 172.757 195.274L174.529 195.755L174.2 190.943C174.13 189.917 172.612 189.6 172.333 190.689C171.799 192.831 171.057 194.916 170.119 196.914L171.89 197.395C171.87 195.257 171.658 193.125 171.258 191.025C171.093 190.151 169.948 190.189 169.524 190.797C168.259 192.621 166.07 196.604 167.759 198.789C169.233 200.688 173.871 199.954 175.851 199.833C178.976 199.656 180.109 197.674 180.45 194.723C180.613 193.31 180.534 191.88 180.216 190.493C180.046 189.746 178.318 185.009 177.8 185.104C179.002 184.883 178.489 183.046 177.293 183.268L177.262 183.242Z" fill="#2C83D3"/>
<path d="M173.586 187.51L168.404 194.356L170.043 195.312L173.839 189.815L172.105 189.081L170.214 196.306C170.163 196.526 170.191 196.756 170.293 196.957C170.395 197.157 170.565 197.315 170.772 197.403C170.979 197.491 171.211 197.503 171.426 197.437C171.641 197.37 171.825 197.23 171.947 197.041C172.808 195.613 173.775 194.252 174.839 192.969L173.257 192.044C172.832 193.68 172.013 195.187 170.872 196.433L172.46 197.357C172.557 196.482 172.79 195.628 173.149 194.824C173.637 193.729 172.093 192.76 171.511 193.862C170.975 194.865 170.364 195.827 169.682 196.737L171.416 196.965L171.802 195.16L170.068 194.932L170.347 196.515C170.392 196.674 170.479 196.819 170.597 196.935C170.715 197.051 170.862 197.134 171.022 197.176C171.182 197.218 171.35 197.218 171.51 197.175C171.67 197.133 171.817 197.049 171.935 196.933C173.539 195.271 174.826 193.329 175.731 191.202H174.098C174.528 191.994 174.829 192.849 174.99 193.735C175.218 194.875 176.73 194.451 176.851 193.482C177.122 191.361 177.262 189.225 177.268 187.086H175.37V191.069C175.37 192.101 177.059 192.405 177.236 191.322C177.362 190.362 177.678 189.436 178.166 188.6H176.503C176.904 189.247 177.122 189.991 177.135 190.753C177.135 191.005 177.235 191.246 177.413 191.424C177.591 191.602 177.833 191.702 178.084 191.702C178.336 191.702 178.577 191.602 178.755 191.424C178.933 191.246 179.033 191.005 179.033 190.753L179.274 189.486H177.445C177.629 190.607 178.325 196.92 175.851 196.179C175.433 196.078 175.313 196.103 175.49 196.249L176.053 195.046L177.376 192.241L175.604 191.759C175.718 193.064 175.838 194.926 175.054 196.04C174.421 196.946 172.472 197.307 171.479 196.775C170.823 196.307 170.263 195.718 169.828 195.04L168.531 196.306C169.581 197.072 171.283 198.953 172.637 199.061C173.668 199.143 174.535 198.288 175.212 197.604C176.25 196.53 177.06 195.256 177.592 193.86C178.124 192.463 178.366 190.973 178.306 189.48C178.306 189.228 178.206 188.986 178.028 188.808C177.85 188.63 177.608 188.53 177.357 188.53C177.105 188.53 176.864 188.63 176.686 188.808C176.508 188.986 176.408 189.228 176.408 189.48V191.645C176.408 191.897 176.508 192.139 176.686 192.317C176.864 192.495 177.105 192.595 177.357 192.595C177.608 192.595 177.85 192.495 178.028 192.317C178.206 192.139 178.306 191.897 178.306 191.645V186.333C178.306 186.081 178.206 185.839 178.028 185.661C177.85 185.483 177.608 185.383 177.357 185.383C177.105 185.383 176.864 185.483 176.686 185.661C176.508 185.839 176.408 186.081 176.408 186.333C176.404 187.606 176.294 188.877 176.079 190.132L177.945 190.385C177.796 188.872 177.727 187.353 177.736 185.832C177.733 185.605 177.649 185.386 177.498 185.215C177.347 185.045 177.141 184.934 176.915 184.903C176.69 184.873 176.461 184.924 176.27 185.048C176.08 185.172 175.94 185.36 175.876 185.579C175.592 186.788 175.244 187.979 174.908 189.163L176.642 188.935L176.509 188.429C176.42 187.219 174.522 187.213 174.611 188.429C174.632 188.941 174.766 189.443 175.003 189.898C175.37 190.67 176.515 190.398 176.737 189.67C177.097 188.479 177.42 187.289 177.705 186.086L175.838 185.832C175.829 187.353 175.898 188.872 176.047 190.385C176.142 191.36 177.711 191.778 177.907 190.639C178.16 189.208 178.293 187.76 178.306 186.307H176.408V191.62H178.306V189.454H176.408C176.519 191.843 175.69 194.181 174.098 195.964C173.852 196.245 173.585 196.507 173.301 196.749C172.852 197.18 172.441 197.117 172.08 196.553C171.182 196.179 170.252 195.217 169.467 194.653C168.683 194.09 167.607 195.204 168.164 195.952C169.619 197.889 171.789 200.049 174.491 199.118C177.331 198.111 177.717 194.261 177.502 191.728C177.433 190.886 176.174 190.316 175.737 191.253C175.104 192.589 174.472 193.919 173.839 195.261C173.618 195.73 173.206 196.376 173.27 196.933C173.478 198.358 175.206 198.124 176.268 198.041C180.387 197.731 179.736 191.886 179.261 188.948C179.103 187.973 177.686 188.125 177.433 188.948C177.232 189.526 177.127 190.134 177.123 190.746H179.021C178.952 189.657 178.647 188.596 178.129 187.637C178.044 187.495 177.924 187.378 177.78 187.297C177.636 187.215 177.474 187.173 177.309 187.173C177.144 187.173 176.982 187.215 176.838 187.297C176.695 187.378 176.575 187.495 176.49 187.637C175.924 188.615 175.542 189.688 175.364 190.803L177.262 191.057V187.073C177.262 186.822 177.162 186.58 176.984 186.402C176.806 186.224 176.564 186.124 176.313 186.124C176.061 186.124 175.82 186.224 175.642 186.402C175.464 186.58 175.364 186.822 175.364 187.073C175.357 189.212 175.218 191.348 174.946 193.469L176.813 193.216C176.598 192.181 176.233 191.182 175.731 190.252C175.646 190.111 175.526 189.993 175.382 189.912C175.239 189.831 175.076 189.788 174.911 189.788C174.746 189.788 174.584 189.831 174.441 189.912C174.297 189.993 174.177 190.111 174.092 190.252C173.267 192.236 172.081 194.048 170.593 195.597L172.181 196.015L171.903 194.432C171.758 193.59 170.568 193.564 170.17 194.204C169.855 194.68 169.642 195.216 169.543 195.778C169.444 196.34 169.461 196.916 169.594 197.471C169.752 198.371 170.891 198.276 171.327 197.699C172.009 196.791 172.62 195.832 173.156 194.831L171.517 193.868C171.08 194.814 170.781 195.819 170.631 196.851C170.517 197.687 171.511 198.56 172.219 197.775C173.579 196.286 174.564 194.492 175.092 192.545C175.326 191.683 174.136 190.867 173.504 191.62C172.34 193.016 171.282 194.498 170.34 196.053L172.074 196.787L174.004 189.587C174.054 189.368 174.026 189.138 173.924 188.937C173.822 188.736 173.653 188.578 173.445 188.49C173.238 188.403 173.007 188.391 172.792 188.457C172.577 188.523 172.392 188.664 172.27 188.853L168.474 194.356C167.765 195.375 169.391 196.255 170.113 195.312L175.275 188.473C176.009 187.498 174.364 186.573 173.637 187.51H173.586Z" fill="#2C83D3"/>
<path d="M254.302 210.364C261.894 205.716 267.93 198.782 274.636 192.982C281.912 186.693 289.548 180.836 297.412 175.289C312.685 164.524 328.723 154.892 344.749 145.286C344.956 145.154 345.105 144.947 345.163 144.708C345.222 144.469 345.185 144.217 345.061 144.004C344.938 143.792 344.736 143.636 344.5 143.569C344.263 143.502 344.01 143.529 343.793 143.645C327.768 153.252 311.723 162.864 296.451 173.649C289.245 178.715 282.209 184.085 275.465 189.784C268.126 195.99 261.591 203.715 253.322 208.724C252.278 209.357 253.233 211.004 254.277 210.364H254.302Z" fill="#2C83D3"/>
<path d="M369.252 115.789C361.028 116.625 352.17 118.721 347.109 125.921C342.737 132.114 342.832 142.917 346.938 149.275C351.601 156.5 361.129 156.76 368.531 154.423C375.933 152.087 383.595 147.989 383.525 139.137C383.487 134.387 381.773 129.442 379.881 125.136C378.249 121.418 375.357 118.17 370.979 118.582C369.771 118.696 369.758 120.595 370.979 120.481C376.844 119.937 378.73 126.909 380.122 131.31C381.387 135.42 382.557 140.283 380.571 144.367C378.584 148.452 373.795 150.535 369.701 152.03C365.273 153.638 360.407 154.62 355.783 153.296C346.622 150.731 344.091 139.111 346.729 130.866C349.766 121.368 360.521 118.575 369.284 117.689C370.486 117.568 370.499 115.669 369.284 115.789H369.252Z" fill="#2C83D3"/>
<path d="M381.906 189.245C373.681 190.081 364.824 192.177 359.762 199.377C355.39 205.57 355.485 216.373 359.591 222.731C364.254 229.957 373.782 230.216 381.184 227.88C388.587 225.543 396.248 221.446 396.179 212.593C396.141 207.844 394.426 202.898 392.535 198.592C390.902 194.875 388.011 191.626 383.633 192.038C382.424 192.152 382.412 194.052 383.633 193.938C389.498 193.393 391.383 200.365 392.775 204.766C394.04 208.876 395.211 213.739 393.224 217.824C391.238 221.908 386.448 223.991 382.355 225.486C377.926 227.094 373.061 228.076 368.436 226.752C359.275 224.188 356.744 212.568 359.383 204.323C362.419 194.824 373.175 192.032 381.937 191.145C383.139 191.025 383.152 189.125 381.937 189.245H381.906Z" fill="#2C83D3"/>
<path d="M356.845 134.286L362.837 141.125C362.955 141.24 363.102 141.322 363.261 141.363C363.421 141.404 363.588 141.403 363.748 141.361C363.907 141.318 364.052 141.235 364.17 141.119C364.287 141.004 364.373 140.859 364.419 140.701C365.684 137.37 365.443 133.919 365.741 130.417C366.069 126.798 366.977 123.255 368.43 119.924C371.349 113.169 376.298 107.492 382.589 103.681C383.633 103.048 382.677 101.402 381.634 102.041C375.43 105.78 370.454 111.252 367.316 117.784C365.78 120.962 364.715 124.348 364.153 127.833C363.52 131.943 364.096 136.249 362.577 140.194L364.165 139.77L358.206 132.944C357.396 132.025 356.061 133.374 356.864 134.286H356.845Z" fill="#2C83D3"/>
<path d="M257.358 217.767C289.991 216.77 322.633 216.559 355.283 217.134C356.504 217.134 356.504 215.234 355.283 215.234C322.641 214.651 290 214.862 257.358 215.867C256.137 215.905 256.131 217.805 257.358 217.767Z" fill="#2C83D3"/>
<path d="M362.103 199.035C373.259 203.418 383.989 208.814 394.16 215.158C395.198 215.791 396.153 214.164 395.116 213.518C384.811 207.096 373.938 201.636 362.634 197.205C361.502 196.756 361.008 198.592 362.135 199.035H362.103Z" fill="#2C83D3"/>
<path d="M382.361 190.43C371.049 203.629 364.496 220.251 363.754 237.625C363.704 238.848 365.602 238.848 365.652 237.625C366.371 220.75 372.727 204.603 383.702 191.772C384.493 190.848 383.158 189.499 382.361 190.43Z" fill="#2C83D3"/>
<path d="M129.324 210.871L200.038 209.946L208.168 209.839C209.629 209.839 211.091 209.788 212.552 209.782C214.608 209.782 215.994 211.491 215.956 213.581C215.861 218.014 213.077 217.855 209.433 218.014L200.645 218.413L164.861 219.989C158.452 220.274 152.037 220.623 145.628 220.844C139.846 221.022 128.85 219.135 131.418 210.712C131.773 209.541 129.944 209.041 129.584 210.206C128.318 214.347 130.558 218.552 134.164 220.724C139.283 223.802 146.027 222.757 151.677 222.503L195.609 220.509L206.276 220.034C209.009 219.907 212.812 220.464 215.323 219.192C218.271 217.703 218.79 211.795 216.93 209.307C215.975 208.04 214.634 207.926 213.134 207.869C209.199 207.717 205.194 207.977 201.253 208.027L179.35 208.319L129.299 208.952C128.078 208.952 128.078 210.852 129.299 210.852L129.324 210.871Z" fill="#2C83D3"/>
<path d="M415.026 443.588C413.432 444.589 411.609 445.152 409.965 446.032C408.32 446.913 406.719 448.236 406.251 450.06C406.076 450.626 406.105 451.235 406.333 451.782C406.742 452.443 407.369 452.94 408.104 453.188C411.446 454.674 415.056 455.461 418.712 455.502C422.368 455.544 425.994 454.838 429.369 453.429C430.556 452.858 431.782 452.371 433.038 451.972C434.585 451.657 436.16 451.495 437.739 451.491C439.398 451.394 441.049 451.182 442.68 450.858C443.5 450.766 444.276 450.444 444.92 449.927C445.506 449.25 445.859 448.402 445.926 447.508C446.674 442.574 445.545 437.539 442.762 433.399C442.412 432.819 441.941 432.32 441.383 431.936C440.702 431.584 439.953 431.383 439.188 431.348C436.024 430.961 432.709 430.252 429.514 430.176C427.224 430.125 426.072 431.215 424.453 432.791C421.106 436.141 419.151 441.011 415.026 443.588Z" fill="#323444"/>
<path d="M461.647 443.12C461.647 446.222 462.021 449.509 463.9 451.985C464.759 453.056 465.8 453.967 466.975 454.676C470.948 457.209 476.212 458.14 480.4 455.993C481.076 455.689 481.655 455.203 482.07 454.588C482.703 453.486 482.367 452.112 482.013 450.896L475.952 429.872C472.036 430.474 466.279 430.898 462.799 432.886C460.275 434.324 461.647 440.346 461.647 443.12Z" fill="#323444"/>
<path d="M411.47 313.665C411.103 314.824 409.775 315.362 409.047 316.337C408.193 317.483 408.282 319.073 408.592 320.466C408.975 322.52 409.939 324.421 411.369 325.944C412.095 326.698 412.991 327.267 413.981 327.604C414.972 327.941 416.028 328.036 417.063 327.881C419.1 327.495 420.859 325.69 420.929 323.62C420.892 322.678 420.691 321.75 420.334 320.878L416.019 308.39C416.002 308.302 415.965 308.218 415.913 308.145C415.861 308.072 415.793 308.011 415.716 307.966C415.553 307.93 415.382 307.959 415.241 308.048C414.222 308.529 412.179 309.036 411.584 310.093C410.989 311.151 411.901 312.519 411.47 313.665Z" fill="#FBB3B2"/>
<path d="M409.452 313.038C411.027 312.791 412.407 311.867 413.881 311.259C415.355 310.651 417.202 310.417 418.442 311.43C418.797 311.721 419.138 312.12 419.6 312.114C418.972 309.017 418.022 305.995 416.766 303.096C416.722 302.957 416.635 302.836 416.519 302.748C416.347 302.678 416.154 302.678 415.981 302.748L411.723 303.863C410.148 304.274 409.965 304.148 410.085 305.699C410.116 306.389 410.471 313.038 409.452 313.038Z" fill="#323444"/>
<path d="M408.984 222.864C408.351 223.839 408.351 225.055 408.351 226.201C408.351 231.805 408.408 237.441 409.237 242.989C409.433 244.318 409.68 245.648 409.806 246.991C409.95 248.859 409.979 250.735 409.895 252.608L409.262 276.988C409.186 279.97 409.035 283.174 407.193 285.517C406.635 286.303 406.373 287.261 406.453 288.221C406.934 294.338 407.946 300.405 408.952 306.452C410.572 305.721 412.342 305.384 414.116 305.469C415.891 305.554 417.621 306.058 419.164 306.94C422.356 296.894 424.121 286.449 424.408 275.911C424.554 270.725 424.333 265.507 425.13 260.384C426.465 251.759 425.921 242.913 424.94 234.237C424.63 231.489 423.972 228.658 422.213 226.531C420.548 224.669 418.331 223.39 415.886 222.883C413.545 222.269 411.451 222.902 408.984 222.864Z" fill="#5B5583"/>
<path opacity="0.1" d="M408.984 222.864C408.351 223.839 408.351 225.055 408.351 226.201C408.351 231.805 408.408 237.441 409.237 242.989C409.433 244.318 409.68 245.648 409.806 246.991C409.95 248.859 409.979 250.735 409.895 252.608L409.262 276.988C409.186 279.97 409.035 283.174 407.193 285.517C406.635 286.303 406.373 287.261 406.453 288.221C406.934 294.338 407.946 300.405 408.952 306.452C410.572 305.721 412.342 305.384 414.116 305.469C415.891 305.554 417.621 306.058 419.164 306.94C422.356 296.894 424.121 286.449 424.408 275.911C424.554 270.725 424.333 265.507 425.13 260.384C426.465 251.759 425.921 242.913 424.94 234.237C424.63 231.489 423.972 228.658 422.213 226.531C420.548 224.669 418.331 223.39 415.886 222.883C413.545 222.269 411.451 222.902 408.984 222.864Z" fill="black"/>
<path d="M416.715 293.566C412.472 315.33 414.789 337.866 423.371 358.309C424.112 359.822 424.632 361.435 424.915 363.096C425.263 366.199 423.833 369.182 423.017 372.183C421.119 379.01 422.213 386.279 423.428 393.264C423.934 396.177 424.455 399.088 424.991 401.996C425.516 404.833 426.022 407.917 424.706 410.488C425.838 415.212 426.509 419.892 427.641 424.616C427.761 424.99 427.798 425.385 427.749 425.775C427.521 426.393 427.119 426.932 426.591 427.326C425.747 428.183 425.14 429.245 424.831 430.407C424.521 431.57 424.52 432.793 424.826 433.956C427.717 431.879 431.747 432.607 435.05 433.956C438.353 435.305 441.604 437.123 445.173 437.123C444.654 432.93 444.154 428.529 445.698 424.597C446.596 422.317 448.178 420.164 448.134 417.726C448.089 415.542 446.754 413.591 446.432 411.432C446.312 410.088 446.363 408.735 446.584 407.404C447.431 399.653 446.47 391.826 445.508 384.088C445.399 382.562 445.04 381.065 444.445 379.656C443.996 378.744 443.325 377.87 443.338 376.85C443.338 375.666 444.293 374.704 444.648 373.576C445.28 371.499 444.116 368.675 445.869 367.39C450.487 363.995 448.716 355.89 448.614 350.159C448.534 345.215 448.323 340.276 447.982 335.341C450.89 343.525 452.079 352.221 451.474 360.886C451.272 363.723 450.898 366.706 452.006 369.327C452.853 371.341 454.536 373 454.992 375.134C455.276 376.451 455.074 377.813 455.137 379.155C455.201 380.498 455.656 381.961 456.814 382.638C456.902 388.743 457.447 395.271 457.541 401.376C457.48 404.496 457.734 407.615 458.301 410.685C458.585 411.661 458.742 412.67 458.769 413.686C458.626 414.961 458.289 416.206 457.769 417.378C456.667 420.646 456.378 424.134 456.93 427.539C457.481 430.943 458.855 434.162 460.933 436.914C462.426 434.26 465.538 432.854 468.575 432.633C471.612 432.411 474.611 433.177 477.553 433.95C477.103 430.25 477.839 426.503 479.653 423.248C480.14 422.515 480.513 421.712 480.76 420.867C481.102 419.259 480.305 417.657 479.875 416.067C479.172 413.534 479.419 410.805 479.584 408.158C480.136 399.293 479.743 390.394 478.413 381.612C478.208 379.882 477.802 378.182 477.205 376.546C476.977 375.964 476.699 375.406 476.509 374.818C476.21 373.761 476.04 372.673 476.003 371.575L475.275 361.443C474.763 354.345 477.091 347.335 478.717 340.407C479.444 337.304 480.235 334.207 480.723 331.054C481.387 326.761 481.494 322.372 482.469 318.136C483.342 314.336 484.917 310.632 485.246 306.737C485.752 300.703 483.247 294.87 480.817 289.336C479.805 287.056 475.977 287.284 473.516 286.879C456.061 284.01 437.676 283.991 421.213 290.457C419.511 291.163 417.978 292.222 416.715 293.566Z" fill="#3C354C"/>
<path d="M429.299 181.171L431.235 188.707C431.761 190.435 432.053 192.226 432.102 194.033C432.122 194.691 431.976 195.345 431.678 195.932C431.359 196.415 430.951 196.832 430.476 197.161C429.153 198.168 428.236 200.517 426.724 201.214C427.502 202.569 428.578 201.688 429.982 202.366C432.456 203.569 434.721 205.298 437.403 205.893C439.934 206.45 442.591 205.925 445.103 205.26C448.665 204.291 452.208 202.955 455.074 200.618C457.94 198.282 459.572 196.217 459.56 192.525C456.396 192.899 453.581 189.701 452.183 186.826C451.698 185.733 451.341 184.588 451.12 183.413L449.424 175.947C447.577 176.352 446.071 177.676 444.306 178.366C442.541 179.056 440.453 179.12 438.492 179.208C435.01 179.367 431.548 179.816 428.141 180.551C427.673 180.646 427.085 180.943 427.199 181.399" fill="#FBB3B2"/>
<path opacity="0.1" d="M429.299 181.171L431.235 188.707C431.761 190.435 432.053 192.226 432.102 194.033C432.122 194.691 431.976 195.345 431.678 195.932C431.359 196.415 430.951 196.832 430.476 197.161C429.153 198.168 428.236 200.517 426.724 201.214C427.502 202.569 428.578 201.688 429.982 202.366C432.456 203.569 434.721 205.298 437.403 205.893C439.934 206.45 442.591 205.925 445.103 205.26C448.665 204.291 452.208 202.955 455.074 200.618C457.94 198.282 459.572 196.217 459.56 192.525C456.396 192.899 453.581 189.701 452.183 186.826C451.698 185.733 451.341 184.588 451.12 183.413L449.424 175.947C447.577 176.352 446.071 177.676 444.306 178.366C442.541 179.056 440.453 179.12 438.492 179.208C435.01 179.367 431.548 179.816 428.141 180.551C427.673 180.646 427.085 180.943 427.199 181.399" fill="black"/>
<path d="M437.612 185.326C446.865 185.326 454.365 177.818 454.365 168.557C454.365 159.296 446.865 151.789 437.612 151.789C428.36 151.789 420.859 159.296 420.859 168.557C420.859 177.818 428.36 185.326 437.612 185.326Z" fill="#FBB3B2"/>
<path d="M442.224 196.198C443.12 194.262 444.414 192.535 446.02 191.132C448.38 189.062 451.607 187.383 452.164 184.293L457.276 190.252C457.554 190.528 457.769 190.861 457.908 191.227C457.973 191.571 457.963 191.924 457.88 192.264C457.797 192.604 457.643 192.922 457.428 193.197C456.162 195.217 454.169 196.66 452.284 198.123C447.963 201.549 443.825 205.202 439.89 209.066C439.716 209.267 439.484 209.409 439.226 209.471C438.981 209.478 438.74 209.409 438.536 209.275C435.14 207.49 432.135 205.044 429.698 202.081C429.514 201.859 429.286 201.606 428.989 201.625C428.81 201.658 428.644 201.744 428.514 201.872C426.813 203.265 424.953 204.931 422.77 204.715C425.598 202.683 427.199 199.288 427.793 195.85C427.911 194.673 428.153 193.512 428.514 192.386C428.702 191.823 429.025 191.314 429.455 190.906C429.886 190.497 430.41 190.201 430.982 190.043C429.603 192.152 430.545 195.141 432.399 196.844C434.2 198.374 436.359 199.422 438.675 199.89C440.826 200.295 441.459 197.857 442.224 196.198Z" fill="#323444"/>
<path d="M420.429 295.288C422.814 295.877 425.073 296.878 427.388 297.619C431.609 298.941 436.05 299.409 440.453 298.993C441.808 298.963 443.126 298.543 444.249 297.783C444.546 297.543 444.818 297.258 445.135 297.036C445.664 296.718 446.238 296.481 446.837 296.333C452.638 294.516 457.497 290.596 462.211 286.758C462.362 286.632 462.533 286.473 462.521 286.271C462.499 286.133 462.432 286.006 462.331 285.91L459.851 283.06C453.347 284.168 446.685 283.751 440.086 283.586C438.731 283.526 437.374 283.562 436.024 283.694C434.721 283.846 433.437 284.175 432.152 284.453C427.274 285.517 422.289 285.923 417.348 286.619C417.002 286.645 416.667 286.749 416.367 286.923C416.159 287.084 415.981 287.282 415.842 287.506L414.109 289.944C413.436 290.764 412.94 291.715 412.653 292.736C412.248 294.636 413.096 295.269 414.71 295.022C416.615 294.743 418.557 294.833 420.429 295.288Z" fill="#323444"/>
<path d="M439.82 206.165C437.885 204.18 435.691 202.466 433.297 201.068C432.331 200.453 431.258 200.024 430.134 199.801C429.569 199.69 428.986 199.703 428.426 199.841C427.866 199.979 427.344 200.238 426.895 200.599C426.332 201.099 425.977 201.796 425.433 202.322C424.749 202.897 423.964 203.342 423.118 203.632C420.238 204.864 417.508 206.422 414.982 208.274C413.604 209.238 412.364 210.384 411.293 211.681C408.427 215.354 407.997 220.35 408.073 225.011C408.13 228.253 411.236 230.659 413.375 233.085C415.38 235.471 417.195 238.012 418.803 240.684C419.954 242.507 421.156 244.483 421.011 246.655C420.891 248.435 419.853 250.106 420.018 251.879C420.075 252.513 420.277 253.095 420.334 253.71C420.448 254.976 419.948 256.242 419.822 257.509C419.651 259.301 420.233 261.08 420.264 262.885C420.241 264.121 420.084 265.35 419.796 266.552C418.581 272.34 417.057 278.159 417.367 284.067L413.862 284.701C414.194 285.026 414.445 285.426 414.594 285.866C414.743 286.307 414.786 286.777 414.72 287.237C414.654 287.698 414.481 288.137 414.214 288.518C413.947 288.899 413.595 289.212 413.185 289.431C418.657 291.261 424.573 290.336 430.375 290.33C435.176 290.33 439.959 290.963 444.755 290.875C449.551 290.786 454.498 289.918 458.452 287.202C459.528 286.467 460.515 285.606 461.647 284.967C463.164 284.18 464.799 283.645 466.487 283.383C469.615 282.786 472.794 282.502 475.977 282.535C477.534 282.535 479.229 282.598 480.469 281.661C481.836 280.622 482.184 278.742 482.367 277.038C482.551 275.24 482.665 273.435 482.696 271.63C482.749 270.225 482.675 268.818 482.475 267.426C482.285 266.408 482.038 265.401 481.735 264.411L479.35 256.002C478.363 252.532 479.735 248.726 480.027 245.129C480.096 244.28 480.109 243.293 479.457 242.748C479.223 242.552 478.9 242.419 478.824 242.115C478.79 241.97 478.786 241.821 478.812 241.675C478.839 241.529 478.894 241.39 478.976 241.266C480.242 238.733 482.14 236.498 483.873 234.212C486.785 230.202 489.488 226.045 491.971 221.756C491.194 212.782 487.418 204.332 481.254 197.769C479.989 196.394 478.54 195.077 476.768 194.457C475.611 194.103 474.41 193.909 473.2 193.881C468.24 193.545 463.077 193.247 458.756 190.752C458.446 190.537 458.095 190.389 457.725 190.315C456.77 190.208 456.074 191.151 455.454 191.898C453.859 193.798 451.512 194.887 449.45 196.287C445.603 198.902 442.598 202.499 439.82 206.165Z" fill="#5B5583"/>
<path d="M492.402 224.346C493.389 227.474 493.294 230.818 493.616 234.079C493.807 236.047 494.152 237.997 494.648 239.911C494.874 240.963 495.28 241.968 495.85 242.881C496.419 243.717 497.235 244.394 497.596 245.338C497.793 245.977 497.881 246.645 497.855 247.314L497.931 251.683C498.094 253.999 497.741 256.321 496.9 258.484L494.173 266.786C492.699 271.282 491.187 275.848 488.53 279.761C488.155 280.424 487.588 280.956 486.904 281.287C486.368 281.429 485.819 281.514 485.265 281.541C484.301 281.713 483.426 282.216 482.792 282.964C482.158 283.712 481.804 284.657 481.792 285.638C481.159 284.712 480.368 283.904 479.457 283.25L473.909 278.818C472.011 277.273 470.03 275.702 467.727 274.809C470.825 273.841 473.575 271.994 475.643 269.492C477.712 266.989 479.011 263.94 479.381 260.713C479.379 259.753 479.596 258.804 480.014 257.94C480.476 257.192 481.33 256.622 481.393 255.742C481.469 254.634 480.216 253.798 480.216 252.69C480.216 251.955 480.76 251.348 481.001 250.657C481.226 249.804 481.226 248.908 481.001 248.055L480.235 243.799C480.19 243.373 480.061 242.96 479.856 242.583C479.569 242.223 479.252 241.888 478.907 241.583C477.591 240.107 478.173 237.783 478.907 235.966C480.592 231.932 482.763 228.119 485.373 224.612C486.301 223.434 487.161 222.204 487.948 220.926C488.618 219.761 488.77 218.146 489.479 217.127C490.39 219.521 491.623 221.883 492.402 224.346Z" fill="#5B5583"/>
<path d="M467.531 275.069C467.249 275.279 467.005 275.536 466.81 275.829C466.065 276.766 465.072 277.474 463.944 277.874C464.577 278.33 465.152 278.78 465.747 279.242C470.147 282.643 474.177 286.5 477.768 290.748C478.166 289.323 480.552 289.425 481.134 288.063C481.271 287.674 481.314 287.257 481.26 286.847C481.139 284.714 480.835 282.596 480.349 280.515C480.158 279.444 479.725 278.43 479.084 277.551C478.198 276.481 476.819 275.968 475.503 275.525C473.51 274.828 469.556 273.847 467.531 275.069Z" fill="#323444"/>
<path d="M459.623 280.046C457.725 281.452 456.061 283.212 453.929 284.175C452.423 284.859 450.709 285.156 449.393 286.176C450.108 287.753 451.968 288.57 453.695 288.506C455.424 288.336 457.081 287.728 458.509 286.74C459.642 286.043 460.97 285.232 462.204 285.72C462.394 286.683 461.572 287.588 461.572 288.563C461.572 289.538 462.381 290.248 463.178 290.761C466.975 293.211 471.859 293.009 476.382 292.724C476.642 292.733 476.897 292.658 477.11 292.508C477.208 292.394 477.283 292.261 477.329 292.118C477.376 291.974 477.394 291.823 477.382 291.673C477.439 290.672 477.464 289.678 477.471 288.677C477.598 287.871 477.494 287.044 477.169 286.295C476.844 285.545 476.312 284.905 475.636 284.447C473.181 282.335 470.533 280.459 467.727 278.843C464.944 277.228 462.122 278.184 459.623 280.046Z" fill="#FBB3B2"/>
<path d="M443.496 161.547C440.687 161.883 438.644 164.08 438.928 166.467C439.213 168.855 441.718 170.501 444.527 170.159C447.336 169.817 449.38 167.626 449.095 165.245C448.811 162.864 446.305 161.211 443.496 161.547ZM444.451 169.501C442.073 169.785 439.953 168.386 439.706 166.372C439.46 164.359 441.2 162.497 443.572 162.212C445.945 161.927 448.07 163.326 448.317 165.34C448.564 167.354 446.824 169.216 444.451 169.501Z" fill="#3C354C"/>
<path d="M429.805 163.193C426.996 163.529 424.953 165.726 425.237 168.107C425.522 170.488 428.027 172.141 430.836 171.806C433.645 171.47 435.689 169.273 435.404 166.885C435.12 164.498 432.614 162.858 429.805 163.193ZM430.76 171.141C428.382 171.426 426.262 170.026 426.022 168.019C425.781 166.011 427.509 164.143 429.887 163.852C432.266 163.561 434.386 164.967 434.626 166.98C434.866 168.994 433.133 170.856 430.76 171.141Z" fill="#3C354C"/>
<path d="M419.638 164.416L425.743 165.72L425.142 167.328L419.385 165.638L419.638 164.416Z" fill="#3C354C"/>
<path d="M453.669 160.325L448.039 163.042L449.007 164.46L454.201 161.452L453.669 160.325Z" fill="#3C354C"/>
<path d="M434.841 165.315L439.124 164.802L438.903 165.866L435.227 166.113L434.841 165.315Z" fill="#3C354C"/>
<path d="M426.534 163.877C426.937 163.01 427.153 162.067 427.167 161.11C427.182 160.538 427.28 159.97 427.458 159.426C427.769 158.734 428.242 158.128 428.837 157.659C430.811 155.987 433.639 155.126 436.429 155.006C439.471 154.866 442.498 155.52 445.211 156.905C446.039 157.294 446.782 157.845 447.393 158.527C448.279 159.609 448.469 161.009 449.361 162.079C449.97 162.728 450.736 163.209 451.585 163.476C452.434 163.742 453.337 163.784 454.207 163.599C454.517 162.497 454.112 161.332 454.271 160.205C454.52 159.239 454.856 158.298 455.276 157.393C456.257 154.499 454.827 151.143 451.879 149.414C450.848 148.781 449.627 148.369 448.855 147.514C448.083 146.66 447.899 145.773 447.368 144.918C445.957 142.657 442.307 141.6 439.529 142.645C438.656 142.974 437.884 143.474 436.999 143.829C435.354 144.506 433.481 144.627 431.671 144.855C429.888 145.02 428.144 145.478 426.509 146.21C424.946 146.982 423.637 148.224 423.276 149.705C423.105 150.389 423.143 151.099 422.972 151.776C422.099 155.215 416.462 156.886 416.146 160.395C416.032 161.661 416.721 162.877 417.582 163.909C418.177 164.612 419.6 166.493 420.606 166.765C421.612 167.037 422.378 166.081 423.339 165.752C424.858 165.277 425.775 165.176 426.534 163.877Z" fill="#CBCEDA"/>
<path d="M497.906 386.913C497.906 418.727 517.848 444.475 542.49 444.475L497.906 386.913Z" fill="#46455B"/>
<path d="M542.49 444.481C542.49 412.306 564.748 386.273 592.25 386.273L542.49 444.481Z" fill="#2C83D3"/>
<path d="M514.064 389.801C514.064 420.025 526.781 444.481 542.49 444.481L514.064 389.801Z" fill="#2C83D3"/>
<path d="M542.49 444.481C542.49 403.371 568.215 370.1 600 370.1L542.49 444.481Z" fill="#46455B"/>
<path opacity="0.1" d="M540.561 455.474C546.682 455.474 551.645 454.635 551.645 453.6C551.645 452.565 546.682 451.726 540.561 451.726C534.439 451.726 529.476 452.565 529.476 453.6C529.476 454.635 534.439 455.474 540.561 455.474Z" fill="#2C83D3"/>
<path d="M533.114 444.887C533.114 444.887 539.441 444.69 541.339 443.335C543.237 441.98 551.063 440.352 551.537 442.531C552.012 444.709 561.027 453.366 553.897 453.423C546.767 453.48 537.309 452.308 535.411 451.149C533.513 449.99 533.114 444.887 533.114 444.887Z" fill="#A8A8A8"/>
<path opacity="0.2" d="M554.03 452.663C546.894 452.72 537.448 451.548 535.543 450.39C534.095 449.509 533.519 446.337 533.323 444.88H533.114C533.114 444.88 533.513 449.984 535.417 451.143C537.321 452.302 546.767 453.474 553.904 453.417C555.966 453.417 556.675 452.663 556.637 451.58C556.352 452.239 555.599 452.65 554.03 452.663Z" fill="black"/>
<path d="M14.2288 405.505C14.2288 430.835 30.0898 451.301 49.6963 451.301L14.2288 405.505Z" fill="#46455B"/>
<path d="M49.6964 451.301C49.6964 425.705 67.4111 404.992 89.2826 404.992L49.6964 451.301Z" fill="#2C83D3"/>
<path d="M27.0784 407.81C27.0784 431.873 37.2011 451.314 49.6964 451.314L27.0784 407.81Z" fill="#2C83D3"/>
<path d="M49.6964 451.302C49.6964 418.594 70.1633 392.125 95.4511 392.125L49.6964 451.302Z" fill="#46455B"/>
<path opacity="0.1" d="M48.159 460.053C53.0298 460.053 56.9784 459.384 56.9784 458.558C56.9784 457.733 53.0298 457.064 48.159 457.064C43.2881 457.064 39.3395 457.733 39.3395 458.558C39.3395 459.384 43.2881 460.053 48.159 460.053Z" fill="#2C83D3"/>
<path d="M42.2371 451.624C42.2371 451.624 47.2669 451.466 48.7789 450.358C50.291 449.25 56.5228 447.983 56.8961 449.725C57.2694 451.466 64.4565 458.343 58.7941 458.387C53.1317 458.432 45.5966 457.501 44.0845 456.583C42.5724 455.664 42.2371 451.624 42.2371 451.624Z" fill="#A8A8A8"/>
<path opacity="0.2" d="M58.8764 457.836C53.1823 457.881 45.6789 456.95 44.1668 456.025C43.0153 455.329 42.5598 452.802 42.4016 451.643H42.2371C42.2371 451.643 42.5535 455.702 44.0655 456.627C45.5776 457.552 53.1001 458.476 58.7751 458.432C60.4138 458.432 60.9832 457.836 60.9515 456.969C60.7238 457.476 60.0974 457.798 58.8764 457.836Z" fill="black"/>
</svg>
