<svg width="600" height="480" viewBox="0 0 600 480" fill="none" xmlns="http://www.w3.org/2000/svg">
<path d="M530.506 274.387C527.212 301.648 520.369 323.535 510.975 340.991C498.475 364.249 477.094 373.619 457.994 383.425C452.474 386.253 446.736 388.663 440.831 390.634C406.075 402.287 367.175 399.196 336.619 393.043C315.187 388.724 293.432 386.067 271.562 385.097C265.325 384.826 259.081 384.691 252.831 384.693C243.194 384.705 69.6624 387.887 27.4125 305.252C16.9812 284.869 9.8312 259.968 7.26245 229.616C-0.00629616 143.806 39.9437 87.448 91.4749 50.6109C188.956 -19.0723 322.575 -16.1499 418.619 55.3688C482.594 103.008 542.494 175.106 530.506 274.387Z" fill="#D0D0D0"/>
<path d="M187.5 249.544C187.5 317.752 145.527 341.568 93.75 341.568C41.9733 341.568 0 317.752 0 249.544C0 181.336 93.75 94.564 93.75 94.564C93.75 94.564 187.5 181.336 187.5 249.544Z" fill="#144776"/>
<path d="M90.335 331.134L91.295 274.05L131.254 203.429L91.4457 265.095L91.8769 239.428L119.416 188.334L91.9913 232.635L92.7675 186.471L122.258 145.794L92.8894 179.212L93.3744 94.564L90.3263 206.623L90.5769 202L60.5944 157.665L90.0963 210.874L87.3025 262.432L87.2194 261.063L52.655 214.406L87.1144 265.897L86.765 272.345L86.7025 272.442L86.7313 272.971L79.6438 403.777H89.1132L90.2494 336.213L124.624 284.848L90.335 331.134Z" fill="#3F3D56"/>
<path d="M600 253.77C600 321.979 558.027 345.794 506.25 345.794C454.473 345.794 412.5 321.979 412.5 253.77C412.5 185.562 506.25 98.7903 506.25 98.7903C506.25 98.7903 600 185.562 600 253.77Z" fill="#144776"/>
<path d="M502.835 335.361L503.795 278.276L543.754 207.655L503.946 269.321L504.377 243.654L531.916 192.561L504.491 236.862L505.268 190.698L534.758 150.021L505.389 183.439L505.874 98.7905L502.826 210.849L503.077 206.227L473.094 161.891L502.596 215.101L499.803 266.658L499.719 265.289L465.155 218.633L499.614 270.124L499.265 276.572L499.203 276.668L499.231 277.198L492.144 408.003H501.613L502.749 340.44L537.124 289.075L502.835 335.361Z" fill="#3F3D56"/>
<path d="M405 195.842C405 270.416 359.109 296.455 302.5 296.455C245.891 296.455 200 270.416 200 195.842C200 121.267 302.5 26.397 302.5 26.397C302.5 26.397 405 121.267 405 195.842Z" fill="#144776"/>
<path d="M298.766 285.047L299.816 222.635L343.504 145.422L299.981 212.844L300.452 184.781L330.562 128.919L300.577 177.355L301.426 126.882L333.668 82.4086L301.559 118.946L302.089 26.397L298.757 148.915L299.031 143.86L266.25 95.387L298.505 153.563L295.451 209.932L295.36 208.435L257.569 157.425L295.246 213.722L294.863 220.771L294.795 220.877L294.826 221.456L287.077 364.469H297.431L298.672 290.6L336.256 234.441L298.766 285.047Z" fill="#3F3D56"/>
<path d="M520 414.187C520 430.193 411.429 480 277.5 480C143.571 480 35 430.193 35 414.187C35 398.181 134.821 362.261 268.75 362.261C402.679 362.261 520 398.181 520 414.187Z" fill="#3F3D56"/>
<path opacity="0.1" d="M520 414.187C520 430.193 411.429 480 277.5 480C143.571 480 35 430.193 35 414.187C35 398.181 134.821 362.261 268.75 362.261C402.679 362.261 520 398.181 520 414.187Z" fill="black"/>
<path d="M520 414.187C520 430.193 411.429 443.169 277.5 443.169C143.571 443.169 35 430.193 35 414.187C35 398.181 134.821 362.261 268.75 362.261C402.679 362.261 520 398.181 520 414.187Z" fill="#3F3D56"/>
<path d="M359.018 333.932C359.018 356.894 373.929 375.474 392.356 375.474L359.018 333.932Z" fill="#3F3D56"/>
<path d="M392.356 375.473C392.356 352.254 408.996 333.465 429.559 333.465L392.356 375.473Z" fill="#144776"/>
<path d="M371.097 336.013C371.097 357.824 380.605 375.474 392.356 375.474L371.097 336.013Z" fill="#144776"/>
<path d="M392.356 375.474C392.356 345.804 411.589 321.796 435.357 321.796L392.356 375.474Z" fill="#3F3D56"/>
<path d="M385.343 375.767C385.343 375.767 390.07 375.626 391.495 374.646C392.92 373.666 398.768 372.495 399.121 374.067C399.475 375.639 406.226 381.886 400.889 381.927C395.551 381.969 388.486 381.124 387.064 380.287C385.642 379.45 385.343 375.767 385.343 375.767Z" fill="#A8A8A8"/>
<path opacity="0.2" d="M400.984 381.38C395.646 381.422 388.581 380.577 387.159 379.74C386.076 379.103 385.645 376.816 385.5 375.761C385.4 375.765 385.343 375.767 385.343 375.767C385.343 375.767 385.642 379.45 387.064 380.287C388.486 381.124 395.551 381.969 400.889 381.927C402.43 381.915 402.962 381.386 402.933 380.601C402.718 381.075 402.131 381.371 400.984 381.38Z" fill="black"/>
<path opacity="0.1" d="M280.625 423.848C326.188 423.848 363.125 418.171 363.125 411.168C363.125 404.166 326.188 398.489 280.625 398.489C235.062 398.489 198.125 404.166 198.125 411.168C198.125 418.171 235.062 423.848 280.625 423.848Z" fill="black"/>
<path d="M316.875 382.79H308.75V400.904H316.875V382.79Z" fill="#FFB9B9"/>
<path d="M317.5 138.256H286.25V192.597H317.5V138.256Z" fill="#FF6584"/>
<path d="M340.451 241.1L341.532 249.459L313.05 257.818L309.444 242.493L340.451 241.1Z" fill="#FFB9B9"/>
<path d="M298.268 160.643C298.268 160.643 297.547 166.913 296.105 166.913C294.663 166.913 289.615 169.351 289.615 169.351L288.173 175.968L298.268 181.889L314.852 180.148L319.539 173.182L314.852 168.654C314.852 168.654 310.887 160.295 312.329 158.553C313.771 156.812 298.268 160.643 298.268 160.643Z" fill="#FFB9B9"/>
<path opacity="0.1" d="M298.268 160.643C298.268 160.643 297.547 166.913 296.105 166.913C294.663 166.913 289.615 169.351 289.615 169.351L288.173 175.968L298.268 181.889L314.852 180.148L319.539 173.182L314.852 168.654C314.852 168.654 310.887 160.295 312.329 158.553C313.771 156.812 298.268 160.643 298.268 160.643Z" fill="black"/>
<path d="M253.201 377.632C253.201 377.632 249.956 398.53 245.99 399.923C242.025 401.317 261.133 403.755 261.133 403.755L262.575 396.092C262.575 396.092 262.936 382.16 264.378 380.07C265.82 377.981 253.201 377.632 253.201 377.632Z" fill="#FFB9B9"/>
<path d="M289.976 256.077C289.976 256.077 342.253 247.021 342.614 245.279C342.974 243.538 353.43 258.515 346.94 287.772C340.45 317.029 324.226 385.992 324.226 385.992C324.226 385.992 307.642 390.868 308.002 387.036C308.363 383.205 313.771 316.68 313.771 316.68L310.166 288.468L304.036 291.951L278.439 340.713L265.459 382.857C265.459 382.857 248.875 385.643 251.399 379.722C253.922 373.801 262.215 327.826 262.215 327.826L284.928 263.043C284.928 263.043 284.207 256.077 289.976 256.077Z" fill="#2F2E41"/>
<path d="M303.135 165.345C311.498 165.345 318.277 158.796 318.277 150.717C318.277 142.638 311.498 136.088 303.135 136.088C294.772 136.088 287.993 142.638 287.993 150.717C287.993 158.796 294.772 165.345 303.135 165.345Z" fill="#FFB9B9"/>
<path d="M318.818 169.002C318.818 169.002 311.608 175.62 294.663 173.879C277.717 172.137 299.349 211.146 299.349 211.146L306.2 250.504C306.2 250.504 336.484 247.021 337.566 240.403C338.648 233.786 318.818 169.002 318.818 169.002Z" fill="#F2F2F2"/>
<path d="M311.608 206.27C311.608 206.27 302.955 202.091 299.71 190.597C296.465 179.103 293.581 167.261 291.778 167.609C290.256 167.903 276.14 173.164 271.565 176.681C270.722 177.329 270.202 177.919 270.146 178.407C269.786 181.541 283.126 212.888 283.126 212.888C283.126 212.888 293.581 235.527 289.255 242.842C284.928 250.156 284.568 259.56 292.499 258.863C300.431 258.167 326.75 256.774 323.145 237.269C323.145 237.269 329.995 250.852 349.103 241.1C349.103 241.1 360.64 239.359 360.28 235.527C359.919 231.696 341.893 198.608 341.893 198.608C341.893 198.608 339.008 183.979 344.416 178.407L332.158 164.475C332.158 164.475 329.274 160.295 326.39 162.385C323.505 164.475 317.016 167.958 315.934 168.306C314.853 168.654 314.141 167.054 314.141 167.054C311.643 172.102 310.642 177.719 311.247 183.283C312.329 192.338 311.608 206.27 311.608 206.27Z" fill="#2F2E41"/>
<path d="M254.283 395.744C254.283 395.744 253.478 393.306 248.833 395.744C248.833 395.744 250.317 388.082 245.27 388.082C240.222 388.082 238.419 397.137 238.419 397.137C238.419 397.137 236.977 403.058 227.243 405.496C217.508 407.934 225.08 416.294 231.93 416.294C238.78 416.294 247.793 411.069 247.793 411.069C247.793 411.069 266.541 411.417 266.902 407.935C267.262 404.452 265.099 394.003 263.657 394.003C262.215 394.003 259.33 398.879 259.33 398.879L254.283 395.744Z" fill="#2F2E41"/>
<path d="M315.574 389.615C315.574 389.615 310.526 384.39 307.642 393.098C304.758 401.805 302.594 405.288 304.397 406.681C306.2 408.074 307.642 407.378 306.921 410.164C306.2 412.951 309.084 418.872 315.574 418.872C322.063 418.872 323.866 414.344 323.505 411.209C323.145 408.074 320.261 404.243 320.261 404.243L317.376 394.491L315.574 389.615Z" fill="#2F2E41"/>
<path d="M344.056 144.622L324.947 150.891C324.947 150.891 307.642 160.644 315.213 162.733C322.784 164.823 329.274 156.464 329.274 156.464L345.858 152.284L344.056 144.622Z" fill="#FFB9B9"/>
<path d="M292.832 128.096C290.564 129.597 288.758 131.654 287.04 133.729C283.551 137.945 280.133 142.981 280.992 148.315C281.319 150.34 282.251 152.226 282.776 154.212C283.484 156.893 283.437 159.699 283.386 162.466C283.428 163.641 283.277 164.816 282.939 165.946C282.434 167.047 281.84 168.107 281.162 169.118C279.426 172.243 279.383 175.955 279.382 179.501C279.299 180.695 279.467 181.893 279.876 183.022C280.35 184.089 281.233 184.925 281.965 185.845C283.178 187.4 283.988 189.212 284.326 191.132C284.664 193.051 284.52 195.021 283.908 196.875C284.849 196.879 285.771 196.624 286.567 196.139C287.363 195.654 287.999 194.96 288.401 194.138C288.526 195.022 288.448 195.921 288.171 196.772C287.894 197.623 287.425 198.405 286.799 199.06C290.927 197.875 295.351 195.878 296.857 191.981C297.299 190.657 297.548 189.28 297.598 187.89C298.399 178.116 298.857 167.977 295.228 158.82C294.067 155.891 292.487 153.055 292.098 149.941C291.709 146.827 292.899 143.228 295.86 141.942C295.929 142.739 296.296 143.485 296.892 144.041C297.551 144.513 298.77 144.217 298.782 143.424L300.212 145.348C300.761 145.088 301.229 144.693 301.571 144.203L302.551 145.363L304.637 143.897L306.448 145.784C307.146 145.4 307.702 144.816 308.039 144.112C308.428 144.675 308.91 145.293 309.607 145.354C311.126 145.486 311.439 143.158 312.766 142.431C313.256 142.222 313.808 142.19 314.321 142.34C314.833 142.49 315.274 142.813 315.561 143.25C316.108 144.149 316.307 145.206 316.124 146.234C315.574 151.023 311.344 155.394 312.599 160.057C313.304 162.68 315.679 164.783 315.858 167.487C316.001 169.648 314.686 171.692 314.707 173.857C314.73 176.395 316.545 178.55 318.317 180.424C321.47 183.758 324.789 186.937 328.273 189.959L327.197 188.139C327.699 188.101 328.205 188.168 328.678 188.336C329.151 188.504 329.581 188.769 329.938 189.113C330.247 188.067 329.735 186.978 329.25 185.996C326.352 180.116 324.012 173.855 323.662 167.35C323.176 158.31 326.541 149.128 324.409 140.313C323.182 135.377 320.324 130.962 316.266 127.737C314.294 126.169 312.798 125.229 310.244 125.056C307.389 124.817 304.517 124.839 301.666 125.121C298.516 125.411 295.486 126.431 292.832 128.096Z" fill="#FF6584"/>
<path d="M329.274 164.823C329.274 164.823 333.24 165.171 335.042 164.823C336.845 164.475 339.369 162.733 339.369 162.733L353.069 152.981L341.171 154.722C341.171 154.722 343.335 138.701 342.614 138.352C341.892 138.004 377.585 131.387 376.864 142.184C376.143 152.981 355.953 174.227 344.416 178.407L336.845 179.452L329.274 164.823Z" fill="#2F2E41"/>
<path d="M368.125 288.303H198.125V326.946H368.125V288.303Z" fill="white"/>
<path d="M345.938 297.058H219.688V317.587H345.938V297.058Z" fill="#3F3D56"/>
<path d="M249.027 306.872C248.976 306.346 246.566 306.111 243.259 306.243C245.175 303.636 246.285 301.556 245.856 301.229C245.451 300.919 243.793 302.256 241.775 304.426C241.584 301.515 241.141 299.473 240.625 299.473C240.062 299.473 239.586 301.902 239.43 305.24C236.621 303.289 234.354 302.144 234.005 302.571C233.671 302.979 235.189 304.7 237.602 306.759C234.417 307.215 232.174 307.859 232.224 308.377C232.274 308.903 234.684 309.137 237.991 309.005C236.075 311.612 234.965 313.692 235.394 314.02C235.799 314.329 237.457 312.993 239.475 310.822C239.666 313.734 240.109 315.775 240.625 315.775C241.188 315.775 241.664 313.347 241.82 310.008C244.629 311.959 246.896 313.104 247.246 312.678C247.579 312.27 246.061 310.549 243.648 308.49C246.833 308.033 249.076 307.389 249.027 306.872Z" fill="white"/>
<path d="M270.277 306.872C270.226 306.346 267.816 306.111 264.509 306.243C266.425 303.636 267.535 301.556 267.106 301.229C266.701 300.919 265.043 302.256 263.025 304.426C262.834 301.515 262.391 299.473 261.875 299.473C261.312 299.473 260.836 301.902 260.68 305.24C257.871 303.289 255.604 302.144 255.255 302.571C254.921 302.979 256.439 304.7 258.852 306.759C255.667 307.215 253.424 307.859 253.474 308.377C253.524 308.903 255.934 309.137 259.241 309.005C257.325 311.612 256.215 313.692 256.644 314.02C257.049 314.329 258.707 312.993 260.725 310.822C260.916 313.734 261.359 315.775 261.875 315.775C262.438 315.775 262.914 313.347 263.07 310.008C265.879 311.959 268.146 313.104 268.496 312.678C268.829 312.27 267.311 310.549 264.898 308.49C268.083 308.033 270.326 307.389 270.277 306.872Z" fill="white"/>
<path d="M291.526 306.872C291.476 306.346 289.066 306.111 285.759 306.243C287.675 303.636 288.785 301.556 288.356 301.229C287.951 300.919 286.293 302.256 284.275 304.426C284.084 301.515 283.641 299.473 283.125 299.473C282.562 299.473 282.086 301.902 281.93 305.24C279.121 303.289 276.854 302.144 276.504 302.571C276.171 302.979 277.689 304.7 280.102 306.759C276.917 307.215 274.674 307.859 274.723 308.377C274.774 308.903 277.184 309.137 280.491 309.005C278.575 311.612 277.465 313.692 277.894 314.02C278.299 314.329 279.957 312.993 281.975 310.822C282.166 313.734 282.609 315.775 283.125 315.775C283.688 315.775 284.164 313.347 284.32 310.008C287.129 311.959 289.396 313.104 289.745 312.678C290.079 312.27 288.561 310.549 286.148 308.49C289.333 308.033 291.576 307.389 291.526 306.872Z" fill="white"/>
<path d="M312.777 306.872C312.726 306.346 310.316 306.111 307.009 306.243C308.925 303.636 310.035 301.556 309.606 301.229C309.201 300.919 307.543 302.256 305.525 304.426C305.334 301.515 304.891 299.473 304.375 299.473C303.812 299.473 303.336 301.902 303.18 305.24C300.371 303.289 298.104 302.144 297.755 302.571C297.421 302.979 298.939 304.7 301.352 306.759C298.167 307.215 295.924 307.859 295.974 308.377C296.024 308.903 298.434 309.137 301.741 309.005C299.825 311.612 298.715 313.692 299.144 314.02C299.549 314.329 301.207 312.993 303.225 310.822C303.416 313.734 303.859 315.775 304.375 315.775C304.938 315.775 305.414 313.347 305.57 310.008C308.379 311.959 310.646 313.104 310.996 312.678C311.329 312.27 309.811 310.549 307.398 308.49C310.583 308.033 312.826 307.389 312.777 306.872Z" fill="white"/>
<path d="M334.027 306.872C333.976 306.346 331.566 306.111 328.259 306.243C330.175 303.636 331.285 301.556 330.856 301.229C330.451 300.919 328.793 302.256 326.775 304.426C326.584 301.515 326.141 299.473 325.625 299.473C325.062 299.473 324.586 301.902 324.43 305.24C321.621 303.289 319.354 302.144 319.005 302.571C318.671 302.979 320.189 304.7 322.602 306.759C319.417 307.215 317.174 307.859 317.224 308.377C317.274 308.903 319.684 309.137 322.991 309.005C321.075 311.612 319.965 313.692 320.394 314.02C320.799 314.329 322.457 312.993 324.475 310.822C324.666 313.734 325.109 315.775 325.625 315.775C326.188 315.775 326.664 313.347 326.82 310.008C329.629 311.959 331.896 313.104 332.246 312.678C332.579 312.27 331.061 310.549 328.648 308.49C331.833 308.033 334.076 307.389 334.027 306.872Z" fill="white"/>
<path d="M267.983 271.75C267.983 271.75 266.18 294.738 274.833 295.783C283.486 296.828 275.554 269.66 275.554 269.66L267.983 271.75Z" fill="#FFB9B9"/>
<path d="M272.67 177.71L270.146 178.407C270.146 178.407 259.691 259.212 266.541 274.885C266.541 274.885 273.752 271.054 277.357 271.75L283.126 205.922L272.67 177.71Z" fill="#2F2E41"/>
</svg>
