<svg width="600" height="480" viewBox="0 0 600 480" fill="none" xmlns="http://www.w3.org/2000/svg">
<path opacity="0.1" d="M585.407 278.267C585.407 278.632 585.407 278.996 585.407 279.355C585.342 285.644 584.961 291.917 584.265 298.174C584.269 298.211 584.269 298.249 584.265 298.287C584.21 298.807 584.149 299.322 584.088 299.842C583.984 300.72 583.875 301.593 583.753 302.472C582.329 313.168 579.975 323.726 576.714 334.03C572.346 347.952 566.171 361.269 558.34 373.651C555.931 377.438 553.365 381.102 550.642 384.645C549.189 386.522 547.706 388.357 546.174 390.163C545.099 391.426 544.005 392.669 542.89 393.893L542.194 394.646C536.327 400.955 530.002 406.84 523.27 412.257C512.282 421.176 500.452 428.936 488.432 436.133C487.748 436.546 487.059 436.952 486.369 437.329C486.321 437.363 486.27 437.393 486.216 437.418C469.881 447.091 452.941 455.819 435.488 462.807C416.382 470.477 396.652 476.054 376.41 478.493C348.195 481.888 319.639 479.127 291.595 474.38C268.272 470.456 245.231 465.064 222.615 458.24L218.891 457.098C216.962 456.496 215.035 455.882 213.111 455.257C201.484 451.491 189.987 447.306 178.621 442.703C150.073 431.189 122.802 416.849 97.2303 399.907C93.9746 397.763 90.7657 395.571 87.6036 393.331C83.184 390.214 78.8174 387.006 74.5036 383.706L71.842 381.686C60.5528 373.029 49.9759 363.517 40.2089 353.237C27.0722 339.236 15.8462 323.443 8.46595 305.413C7.30204 302.579 6.23581 299.692 5.26724 296.751L5.17567 296.458C4.68732 294.964 4.23559 293.469 3.82049 291.915C3.21005 289.691 2.67489 287.439 2.21503 285.16C2.11736 284.723 2.03189 284.287 1.95254 283.845C0.493512 276.173 -0.150886 268.374 0.0296443 260.572C0.182319 253.737 0.999938 246.931 2.47141 240.247C3.9775 233.319 6.29842 226.584 9.38772 220.179C12.1795 214.42 15.7367 209.047 19.9667 204.2C22.9391 200.812 26.2819 197.753 29.9352 195.078C36.5585 190.248 43.9021 186.882 51.5143 184.222C55.0915 182.966 58.7175 181.866 62.3619 180.844C64.944 180.115 67.5384 179.421 70.1206 178.74L77.7389 176.725C82.6224 175.422 87.506 174.083 92.3163 172.636C105.429 168.715 118.278 163.968 130.164 156.891C132.044 155.773 133.961 154.547 135.877 153.232C138.319 151.57 140.724 149.765 143.105 147.816C145.51 145.843 147.866 143.733 150.113 141.497C150.461 141.151 150.803 140.804 151.145 140.451C152.976 138.562 154.752 136.583 156.4 134.527C157.206 133.523 157.988 132.5 158.732 131.46C159.764 130.02 160.741 128.555 161.644 127.049C166.174 119.516 168.969 111.207 168.64 102.449C168.592 101.006 168.459 99.5672 168.243 98.1391C167.449 92.8605 166.686 87.7076 166.125 82.6681C163.768 61.823 164.764 42.9207 180.739 25.1601C200.603 3.0835 231.778 -1.4179 260.157 0.345596C342.207 5.42686 416.9 51.3018 482.541 105.916C488.218 110.635 493.826 115.417 499.365 120.264C500.761 121.483 502.159 122.711 503.559 123.946C513.936 133.098 524.155 142.591 533.672 152.76C534.441 153.585 535.21 154.41 535.967 155.241C536.431 155.755 536.901 156.263 537.359 156.783C540.326 160.071 543.205 163.438 545.997 166.886C553.475 176.037 560.08 185.843 565.726 196.178C574.372 212.397 580.226 229.903 583.051 247.989C584.113 254.557 584.812 261.176 585.144 267.818C585.248 269.772 585.315 271.733 585.352 273.688C585.352 274.316 585.352 274.937 585.352 275.565C585.413 276.474 585.413 277.358 585.407 278.267Z" fill="#144776"/>
<path d="M240.501 268.242L230.734 438.488L240.501 438.614L248.437 265.851L240.501 268.242Z" fill="#3F3D56"/>
<path d="M204.485 354.498H83.6174V380.203H204.485V354.498Z" fill="#144776"/>
<path d="M212.421 377.208V393.349H87.567C83.1474 390.232 78.7807 387.024 74.4669 383.724V377.208H212.421Z" fill="#3F3D56"/>
<path d="M237.351 340.474C237.009 342.022 236.564 343.552 236.094 345.077C234.708 349.482 233.041 353.828 232.718 358.408C232.284 364.457 233.939 371.493 229.666 375.887C228.567 377.023 227.132 377.872 226.15 379.085C225.998 379.276 225.86 379.475 225.734 379.683C224.855 381.106 224.752 382.84 224.739 384.466C224.75 387.933 224.98 391.397 225.429 394.837C226.876 406.674 229.733 418.534 225.979 429.707C225.298 431.645 224.506 433.543 223.604 435.392C221.773 439.337 219.777 443.229 219.178 447.503C218.739 450.671 218.873 453.935 218.849 457.158C216.92 456.556 214.993 455.942 213.068 455.316C201.441 451.55 189.944 447.366 178.578 442.763C178.608 442.601 178.639 442.434 178.663 442.272C179.536 436.952 178.34 431.512 176.887 426.323C173.835 415.33 169.513 404.444 166.955 393.373C165.925 389.049 165.249 384.651 164.934 380.221C164.861 379.229 164.818 378.23 164.812 377.232C164.782 375.929 164.812 374.626 164.867 373.311C164.995 370.686 165.111 367.572 162.969 365.976C161.791 365.109 160.234 364.959 158.861 364.433C156.211 363.423 154.398 361.08 152.298 359.203C151.297 358.251 150.073 357.552 148.735 357.167C147.396 356.782 145.981 356.721 144.613 356.991C130.89 360.069 120.806 371.469 108.035 377.232C107.541 377.459 107.046 377.675 106.546 377.878C104.894 378.47 103.322 379.257 101.864 380.221C100.839 380.918 100.096 381.943 99.7637 383.12C99.4401 384.388 99.7209 385.715 99.8796 387.018C100.137 389.137 100.044 391.283 99.6049 393.373C99.4394 394.183 99.2212 394.981 98.9518 395.764C98.4634 397.181 97.8102 398.568 97.1876 399.948C93.9319 397.804 90.723 395.612 87.5609 393.373C83.1413 390.256 78.7746 387.048 74.4608 383.748L71.842 381.686C60.5528 373.029 49.9759 363.517 40.2089 353.237C41.5092 349.65 43.3893 346.314 44.2928 342.638C44.8056 340.527 44.9948 338.334 45.7029 336.283C46.5195 334.157 47.6552 332.163 49.0725 330.365C54.2634 323.276 60.6019 317.065 67.8375 311.977C75.4009 306.668 84.1363 302.412 90.9428 296.386C93.7049 294.018 96.0861 291.255 98.0056 288.19C98.1216 288.005 98.2314 287.808 98.3291 287.593C98.8604 286.511 99.2285 285.359 99.4218 284.173C99.9102 281.495 99.8369 278.554 100.081 275.983C108.373 277.389 116.826 277.639 125.189 276.725C134.925 275.655 144.448 273.006 154.185 271.978C154.917 271.894 155.656 271.829 156.394 271.769C159.514 271.524 162.639 271.47 165.771 271.506C168.39 271.506 171.008 271.619 173.627 271.703L202.458 272.66C205.651 272.767 208.911 272.887 211.884 274.029C215.412 275.386 218.238 278.088 220.503 281.059C220.79 281.441 221.077 281.824 221.345 282.218C223.209 284.881 224.703 287.773 225.789 290.821C225.905 291.132 226.015 291.419 226.119 291.759C226.394 292.59 226.632 293.427 226.845 294.276C227.01 294.94 227.157 295.603 227.291 296.273C227.963 299.584 228.359 302.968 229.422 306.166C229.495 306.399 229.574 306.632 229.66 306.86C230.935 310.363 233.054 313.501 234.653 316.867C235.806 319.303 236.686 321.855 237.278 324.477C238.474 329.742 238.499 335.198 237.351 340.474Z" fill="#35323E"/>
<path d="M149.716 126.54C147.14 124.532 143.404 126.002 140.388 127.3C137.86 128.393 135.257 129.314 132.599 130.055C132.055 130.26 131.465 130.32 130.89 130.229C129.669 129.942 129.156 128.525 128.247 127.664C126.666 126.176 124.077 126.528 122.039 127.335C120 128.142 117.985 129.308 115.8 129.129C113.468 128.95 111.441 127.264 109.085 127.21C104.934 127.114 101.448 132.124 97.5232 130.797C95.1303 129.99 93.2501 126.941 90.8938 127.808C89.0625 128.489 88.8977 130.97 87.7928 132.59C86.4925 134.479 83.9592 135.011 81.7921 135.848C74.9613 138.49 70.4379 145.945 71.3292 153.083C71.8236 157.022 73.7709 160.633 75.059 164.393C78.8803 175.327 77.5679 187.659 82.3843 198.204C82.9947 197.642 83.3366 197.433 83.9287 196.877C82.4058 199.97 82.1121 203.507 83.1046 206.801C83.6113 208.456 84.4354 209.999 85.058 211.619C85.7048 213.436 86.2269 215.293 86.6207 217.178L91.9316 240.122C94.0071 249.089 96.0887 258.056 96.4488 267.238C96.6731 273.208 96.2062 279.184 95.057 285.052C104.678 283.492 113.48 279.313 123.229 279.367C126.806 279.367 130.353 279.965 133.899 280.443C144.24 281.86 154.67 282.553 165.111 282.517C166.735 282.608 168.361 282.384 169.897 281.86C171.24 281.298 172.339 280.3 173.609 279.576C176.093 278.142 179.103 277.783 181.966 277.783C195.023 277.55 207.604 282.23 220.576 283.88C225.698 273.353 226.003 260.74 222.072 249.734C220.906 246.464 219.337 243.278 218.873 239.841C218.687 237.728 218.638 235.605 218.726 233.486C218.706 228.061 217.708 222.682 215.778 217.597C215.021 215.606 214.112 213.58 214.191 211.457C214.27 209.335 215.339 207.356 216.388 205.479C218.519 201.653 220.662 197.792 223.671 194.564C226.754 191.228 230.612 188.687 234.427 186.194L243.846 180.001C242.558 172.033 240.898 163.64 237.449 156.311C234 148.982 228.842 142.245 221.864 137.958C219.512 136.572 217.05 135.373 214.502 134.372C210.937 132.901 207.226 131.604 203.362 131.383C198.966 131.137 194.638 132.291 190.298 133.009C176.637 135.262 160.557 134.987 149.716 126.54Z" fill="#144776"/>
<path d="M252.71 264.823L248.229 270.364L239.781 280.808L230.014 292.877L227.285 296.249H221.992L90.9366 296.398L8.86265 296.488H5.2C4.71165 294.993 4.25992 293.499 3.84482 291.945C3.23438 289.721 2.69922 287.469 2.23936 285.19C2.14169 284.753 2.05623 284.317 1.97687 283.874L31.7542 264.811L42.9497 264.751L77.1955 264.56L96.3207 264.452H99.8124H102.004L114.75 264.386L211.896 263.842L216.865 263.812H219.019L224.727 263.782L245.964 263.663L250.042 262.145L250.341 262.455L252.71 264.823Z" fill="#3F3D56"/>
<path d="M250.879 261.834L250.372 262.431L247.039 266.275L240.178 274.208L225.789 290.821L98.3291 287.634L2.21503 285.243C2.11736 284.807 2.03189 284.37 1.95254 283.928C0.493512 276.256 -0.150886 268.457 0.0296443 260.656L10.688 255.312L13.1297 254.08L32.1328 244.515L48.8101 236.146L92.3101 241.682L101.943 242.907L106.301 243.457L112.681 244.27L113.218 244.342L213.251 257.045L224.306 258.45L230.795 259.275L250.793 261.822L250.879 261.834Z" fill="#504F60"/>
<path d="M230.124 290.528L230.02 292.877L229.409 306.142L226.125 379.073L225.429 394.837L223.598 435.392L222.566 458.299L218.843 457.158C216.914 456.556 214.987 455.942 213.062 455.316L221.992 296.303L222.182 292.967L226.113 291.771L230.124 290.528Z" fill="#3F3D56"/>
<path d="M9.14355 290.354L8.86885 296.494L8.46596 305.461C7.30205 302.627 6.23581 299.74 5.26724 296.799L5.17568 296.506C4.68732 295.011 4.2356 293.517 3.8205 291.963L9.14355 290.354Z" fill="#3F3D56"/>
<path d="M168.774 199.968C184.282 199.968 196.854 183.374 196.854 162.904C196.854 142.435 184.282 125.841 168.774 125.841C153.266 125.841 140.694 142.435 140.694 162.904C140.694 183.374 153.266 199.968 168.774 199.968Z" fill="#A1616A"/>
<path opacity="0.1" d="M168.774 199.968C184.282 199.968 196.854 183.374 196.854 162.904C196.854 142.435 184.282 125.841 168.774 125.841C153.266 125.841 140.694 142.435 140.694 162.904C140.694 183.374 153.266 199.968 168.774 199.968Z" fill="black"/>
<path d="M172.742 178.746C194.319 178.746 211.81 161.617 211.81 140.487C211.81 119.357 194.319 102.228 172.742 102.228C151.165 102.228 133.674 119.357 133.674 140.487C133.674 161.617 151.165 178.746 172.742 178.746Z" fill="#A1616A"/>
<path d="M173.517 81.5204C171.132 81.7066 168.764 82.0602 166.43 82.5785C160.252 84.0491 154.911 87.313 149.71 90.5172C147.378 91.9579 144.979 93.4584 143.532 95.5746C140.932 99.3706 141.939 104.201 140.48 108.415C139.723 110.579 138.331 112.522 137.153 114.537C133.912 120.06 132.215 126.128 130.548 132.136C130.206 133.379 130.109 135.065 131.494 135.543C132.292 135.706 133.122 135.613 133.863 135.28C138.24 133.863 143.801 133.457 147.049 136.332C150.296 139.208 150.021 144.307 153.885 146.495C158.311 149.024 165.221 145.969 169.238 148.952C170.96 150.231 171.582 152.282 172.992 153.824C176.276 157.411 182.595 157.237 187.85 156.514C190.866 156.095 194.565 155.815 196.397 157.889C197.276 158.869 197.526 160.214 198.545 161.099C200.377 162.701 203.728 161.888 205.517 160.244C207.305 158.6 208.16 156.376 209.649 154.529C212.549 150.942 217.646 148.988 220.637 145.443C223.14 142.454 223.897 138.712 224.581 135.101L227.126 121.716C228.158 116.288 229.098 110.358 225.979 105.576C224.868 103.854 223.274 102.372 222.316 100.59C221.675 99.3945 221.315 98.1331 220.57 97.0033C219.687 95.8263 218.632 94.7829 217.439 93.9067L211.414 89.0227C209.353 87.2569 207.151 85.6576 204.827 84.2403C196.226 79.3324 183.345 80.6237 173.517 81.5204Z" fill="#464353"/>
<path d="M44.836 180.073C43.3892 181.579 42.0524 183.205 40.5018 184.616C39.1379 185.804 37.7116 186.922 36.2287 187.964C33.8358 189.717 31.4958 191.533 29.2087 193.41C26.8225 195.257 24.6634 197.37 22.7746 199.705C19.5148 203.991 17.9704 209.323 14.9182 213.753C12.2201 217.68 8.41701 220.783 5.67612 224.681C4.47369 226.319 3.58056 228.156 3.03901 230.103C2.63478 231.987 2.45249 233.91 2.49572 235.835C2.44078 238.992 2.39195 242.184 3.05122 245.275C3.7105 248.365 5.15724 251.402 7.63564 253.429C9.93701 255.312 12.9099 256.178 15.8217 256.896C17.3234 257.26 18.9471 257.601 20.3756 257.021C21.4208 256.504 22.3281 255.755 23.0249 254.833L30.454 246.464C35.423 240.845 40.5873 235.106 47.4059 231.818C49.5425 230.796 51.795 230.025 53.9377 229.033C63.021 224.746 69.4429 215.971 71.9335 206.406C72.5439 204.069 72.9346 201.683 73.3314 199.298L74.4058 192.758C74.4883 192.43 74.4883 192.088 74.4058 191.76C74.2375 191.391 73.9668 191.076 73.6244 190.851C68.4498 186.759 63.6048 182.282 59.1325 177.461C58.0704 176.313 57.0753 174.741 55.8483 173.778C54.31 172.583 54.426 172.672 52.5764 173.778C49.7311 175.542 47.1295 177.658 44.836 180.073Z" fill="#A1616A"/>
<path d="M95.6553 223.592C95.5935 223.454 95.5037 223.328 95.3913 223.224C95.2789 223.12 95.1462 223.04 95.0011 222.987C94.8561 222.935 94.7017 222.911 94.5472 222.919C94.3927 222.926 94.2414 222.964 94.1022 223.03C93.9631 223.096 93.839 223.189 93.7375 223.304C93.636 223.418 93.5591 223.551 93.5114 223.695C93.4637 223.839 93.4463 223.991 93.4602 224.142C93.474 224.293 93.5189 224.439 93.592 224.573L92.9816 224.866L111.185 261.403L114.475 259.831L96.2719 223.27L95.6553 223.592Z" fill="#3F3D56"/>
<path opacity="0.04" d="M44.836 180.073C43.3892 181.579 42.0524 183.205 40.5018 184.616C39.1379 185.804 37.7116 186.922 36.2287 187.964C33.8358 189.717 31.4958 191.533 29.2087 193.41C26.8225 195.257 24.6634 197.37 22.7746 199.705C19.5148 203.991 17.9704 209.323 14.9182 213.753C12.2201 217.68 8.41701 220.783 5.67612 224.681C4.47369 226.319 3.58056 228.156 3.03901 230.103C2.63478 231.987 2.45249 233.91 2.49572 235.835C2.44078 238.992 2.39195 242.184 3.05122 245.275C3.7105 248.365 5.15724 251.402 7.63564 253.429C9.93701 255.312 12.9099 256.178 15.8217 256.896C17.3234 257.26 18.9471 257.601 20.3756 257.021C21.4208 256.504 22.3281 255.755 23.0249 254.833L30.454 246.464C35.423 240.845 40.5873 235.106 47.4059 231.818C49.5425 230.796 51.795 230.025 53.9377 229.033C63.021 224.746 69.4429 215.971 71.9335 206.406C72.5439 204.069 72.9346 201.683 73.3314 199.298L74.4058 192.758C74.4883 192.43 74.4883 192.088 74.4058 191.76C74.2375 191.391 73.9668 191.076 73.6244 190.851C68.4498 186.759 63.6048 182.282 59.1325 177.461C58.0704 176.313 57.0753 174.741 55.8483 173.778C54.31 172.583 54.426 172.672 52.5764 173.778C49.7311 175.542 47.1295 177.658 44.836 180.073Z" fill="black"/>
<path d="M255.28 247.409C255.219 251.223 255.066 255.15 253.449 258.63C252.753 260.136 251.672 261.619 250.054 262.115C249.075 262.336 248.062 262.373 247.069 262.222C235.093 261.192 223.025 262.129 211.365 264.996C214.478 258.899 212.689 251.588 213.55 244.82C213.788 242.973 214.222 241.156 214.386 239.303C214.997 232.727 212.122 226.343 210.803 219.851C209.658 214.231 209.658 208.445 210.803 202.825C211.028 201.379 211.535 199.988 212.299 198.73C213.193 197.506 214.368 196.505 215.729 195.807C220.674 193.051 226.504 192.734 232.059 193.099C235.801 193.344 243.303 192.998 246.422 195.251C249.835 197.72 250.915 206.012 251.837 209.843C253.217 215.72 254.156 221.688 254.645 227.7C255.243 234.251 255.371 240.833 255.28 247.409Z" fill="#A1616A"/>
<path d="M36.6135 260.644L58.5894 274.991L157.481 271.404L92.1637 260.644H36.6135Z" fill="white"/>
<path d="M65.5911 146.65C61.9834 149.765 58.9251 153.435 55.5066 156.753C50.8184 161.308 45.4892 165.182 40.1845 169.038C42.0865 169.558 43.8178 170.554 45.2089 171.927C46.6 173.299 47.6032 175.002 48.1203 176.869C48.3522 177.748 48.4682 178.662 48.7307 179.523C49.3411 181.562 50.6841 183.319 52.1248 184.903C58.3146 191.736 66.9768 196.793 70.6272 205.228C70.7464 205.639 71.0047 205.997 71.3598 206.245C71.6568 206.373 71.9867 206.411 72.306 206.352C75.6085 206.012 78.1357 203.405 80.2417 200.87C84.6369 195.49 88.4522 189.548 90.6192 182.984C92.7863 176.421 93.1342 169.163 90.7718 162.659C89.5937 159.419 87.7746 156.442 85.9677 153.495C84.3846 150.917 82.8056 148.342 81.2306 145.772C80.4065 144.415 79.3566 141.659 77.7389 140.989C74.2472 139.519 67.8314 144.456 65.5911 146.65Z" fill="#144776"/>
<path d="M245.391 185.286L250.586 197.242C244.93 195.307 238.886 194.717 232.952 195.523C227.019 196.329 221.366 198.506 216.462 201.875C213.501 203.949 210.785 206.555 209.448 209.867C208.788 209.99 208.106 209.928 207.481 209.688C206.856 209.448 206.312 209.039 205.913 208.51C205.132 207.437 204.679 206.168 204.607 204.852C204.125 200.26 205.901 195.759 207.659 191.467C208.477 189.458 209.32 187.408 210.773 185.776C212.225 184.144 214.154 183.068 216.083 182.052C222.237 178.719 228.683 175.93 235.343 173.718C238.151 172.828 241.093 172.846 242.668 175.416C244.493 178.483 243.962 182.022 245.391 185.286Z" fill="#144776"/>
<path d="M36.7416 221.16C38.0418 222.176 39.1834 223.377 40.5202 224.346C41.9341 225.307 43.4385 226.134 45.0131 226.815L51.032 229.648C52.8972 230.598 54.849 231.374 56.8618 231.968C59.4378 232.643 62.1421 232.709 64.7304 233.337C67.9962 234.126 70.9813 235.77 74.1983 236.72C77.4154 237.671 81.1818 237.826 83.8677 235.847C85.5464 234.61 86.8162 232.566 88.8978 232.261C90.2407 232.087 91.5349 232.721 92.7313 233.337L108.395 241.401C110.507 242.489 112.742 243.697 113.847 245.771C114.951 247.845 114.207 250.996 111.881 251.534C111.07 251.625 110.255 251.671 109.439 251.671C108.633 251.767 107.754 252.233 107.644 253.028C107.64 253.522 107.773 254.007 108.029 254.433C108.731 256.011 108.939 257.9 108.121 259.431C107.303 260.961 105.294 261.911 103.689 261.224C103.963 263.537 101.394 265.157 99.1044 265.773C93.3296 267.321 87.2068 266.371 81.3039 265.391C78.9842 265.008 76.6279 264.613 74.5157 263.597C73.5024 263.113 72.5623 262.491 71.5368 262.043C68.7227 260.817 65.5239 260.979 62.4473 261.033C48.2179 261.278 34.1106 258.695 20.1193 256.125C17.5249 255.646 14.8573 255.138 12.6414 253.734C8.36826 251.008 6.78111 245.412 7.48312 240.462C8.18513 235.513 10.749 231.029 13.2701 226.677L16.536 221.04C16.9629 220.176 17.5605 219.404 18.2941 218.768C23.0982 215.176 32.6272 217.92 36.7416 221.16Z" fill="#A1616A"/>
<path opacity="0.04" d="M36.7416 221.16C38.0418 222.176 39.1834 223.377 40.5202 224.346C41.9341 225.307 43.4385 226.134 45.0131 226.815L51.032 229.648C52.8972 230.598 54.849 231.374 56.8618 231.968C59.4378 232.643 62.1421 232.709 64.7304 233.337C67.9962 234.126 70.9813 235.77 74.1983 236.72C77.4154 237.671 81.1818 237.826 83.8677 235.847C85.5464 234.61 86.8162 232.566 88.8978 232.261C90.2407 232.087 91.5349 232.721 92.7313 233.337L108.395 241.401C110.507 242.489 112.742 243.697 113.847 245.771C114.951 247.845 114.207 250.996 111.881 251.534C111.07 251.625 110.255 251.671 109.439 251.671C108.633 251.767 107.754 252.233 107.644 253.028C107.64 253.522 107.773 254.007 108.029 254.433C108.731 256.011 108.939 257.9 108.121 259.431C107.303 260.961 105.294 261.911 103.689 261.224C103.963 263.537 101.394 265.157 99.1044 265.773C93.3296 267.321 87.2068 266.371 81.3039 265.391C78.9842 265.008 76.6279 264.613 74.5157 263.597C73.5024 263.113 72.5623 262.491 71.5368 262.043C68.7227 260.817 65.5239 260.979 62.4473 261.033C48.2179 261.278 34.1106 258.695 20.1193 256.125C17.5249 255.646 14.8573 255.138 12.6414 253.734C8.36826 251.008 6.78111 245.412 7.48312 240.462C8.18513 235.513 10.749 231.029 13.2701 226.677L16.536 221.04C16.9629 220.176 17.5605 219.404 18.2941 218.768C23.0982 215.176 32.6272 217.92 36.7416 221.16Z" fill="black"/>
<path d="M223.085 231.489C219.905 232.96 216.254 233.104 212.933 234.233C209.613 235.363 206.792 237.396 203.746 239.052C195.811 243.392 186.654 245.03 177.662 246.59C172.211 247.546 166.674 248.503 161.18 248.276C153.745 247.965 146.603 245.538 139.4 243.708C132.196 241.879 124.511 240.648 117.375 242.704C113.649 243.815 110.242 245.771 107.431 248.412C104.621 251.053 102.485 254.306 101.198 257.906C99.7026 262.204 99.4951 266.837 99.782 271.368C101.284 272.45 103.384 270.95 104.202 269.306C105.02 267.662 105.465 265.648 107.052 264.691C109.805 265.606 110.477 269.198 112.748 270.974C114.164 272.086 116.056 272.379 117.857 272.63L127.136 273.921C129.37 274.232 131.964 274.441 133.582 272.899C134.37 272.152 134.803 271.105 135.523 270.304C137.001 268.702 139.467 268.427 141.664 268.642C148.526 269.312 154.96 273.67 161.772 272.636C164.116 272.283 166.296 271.303 168.53 270.532C181.77 265.952 196.482 268.738 210.26 266.114C215.516 265.116 220.576 263.346 225.576 261.481C228.292 260.471 231.039 259.413 233.359 257.703C235.557 256.048 237.29 253.874 238.396 251.385C239.502 248.895 239.945 246.172 239.683 243.469C239.172 239.35 237.074 235.578 233.817 232.924C232.742 232.027 231.332 230.312 230.044 229.75C227.584 228.692 225.173 230.527 223.085 231.489Z" fill="#A1616A"/>
<g opacity="0.1">
<path opacity="0.1" d="M205.248 155.121C204.229 154.236 203.978 152.891 203.099 151.911C201.268 149.836 197.569 150.117 194.553 150.536C189.297 151.259 182.955 151.427 179.695 147.846C178.285 146.303 177.662 144.259 175.941 142.974C171.924 139.985 165.014 143.045 160.588 140.517C156.724 138.311 156.974 133.194 153.751 130.354C150.528 127.515 144.942 127.885 140.566 129.302C139.825 129.635 138.995 129.727 138.197 129.565C136.811 129.087 136.909 127.401 137.251 126.158C138.917 120.15 140.614 114.082 143.856 108.559C145.034 106.544 146.426 104.601 147.183 102.437C148.507 98.6471 147.83 94.3609 149.57 90.7742C147.702 91.9698 145.907 93.273 144.753 94.9587C142.153 98.7547 143.16 103.585 141.701 107.799C140.944 109.963 139.552 111.906 138.374 113.921C135.133 119.444 133.436 125.512 131.769 131.52C131.427 132.763 131.33 134.449 132.715 134.927C133.513 135.09 134.343 134.998 135.084 134.664C139.461 133.248 145.022 132.841 148.269 135.716C151.517 138.592 151.242 143.691 155.106 145.879C159.532 148.408 166.442 145.353 170.459 148.336C172.18 149.615 172.803 151.666 174.213 153.208C177.497 156.795 183.815 156.621 189.071 155.898C192.087 155.48 195.786 155.199 197.617 157.273C198.496 158.253 198.747 159.598 199.766 160.483C201.598 162.085 204.949 161.272 206.737 159.628C207.884 158.459 208.866 157.144 209.655 155.719C208.068 156.191 206.377 156.119 205.248 155.121Z" fill="black"/>
<path opacity="0.1" d="M216.37 148.545C215.977 149.041 215.612 149.558 215.278 150.094C217.622 148.456 220.106 146.925 221.858 144.839C222.313 144.299 222.721 143.723 223.079 143.117C220.643 144.827 218.104 146.399 216.37 148.545Z" fill="black"/>
</g>
<path d="M339.698 266.921L341.529 438.488L350.075 437.293L348.244 266.921H339.698Z" fill="#3F3D56"/>
<path d="M390.975 298.006L392.806 469.574L401.352 468.378L399.521 298.006H390.975Z" fill="#3F3D56"/>
<path d="M550.624 384.675L550.587 381.381V379.42L550.264 349.243L549.757 302.065L549.672 297.994H541.125L541.168 301.916L541.437 327.185L541.553 338.124L541.65 346.984L541.809 362.299L541.907 371.332V372.289L542.035 384.161L542.145 394.628L542.841 393.875C543.96 392.651 545.055 391.408 546.125 390.145L550.624 384.675Z" fill="#3F3D56"/>
<path d="M381.513 325.804L376.63 332.954L381.513 365.527L423.023 376.653H490.172L530.461 379.038L549.653 366.173L546.332 344.079L531.682 325.804H381.513Z" fill="#144776"/>
<path d="M376.629 332.954L374.188 352.812C374.188 352.812 361.368 391.747 464.533 389.362C567.698 386.976 549.995 379.032 549.995 379.032L549.385 355.993C549.385 355.993 552.98 366.896 500.549 365.42C448.118 363.943 399.216 359.173 399.216 359.173C399.216 359.173 380.903 362.347 376.629 332.954Z" fill="#3F3D56"/>
<path d="M462.58 154.954C456.695 157.578 452.239 162.665 449.254 168.29C446.269 173.916 444.59 180.091 442.936 186.224C441.19 192.693 439.438 199.179 438.534 205.808C436.923 217.597 438.132 229.989 443.662 240.576C449.193 251.163 459.412 259.705 471.376 261.744C475.997 262.539 480.747 262.378 485.416 261.905C493.857 261.03 502.172 259.236 510.206 256.555C518.6 253.775 527.335 249.495 531.071 241.61C533.238 237.037 533.422 231.824 533.318 226.791C533.03 213.072 530.914 199.449 527.024 186.266C525.895 182.44 524.582 178.585 522.189 175.362C519.797 172.14 516.525 169.779 513.185 167.591C498.907 158.176 480.142 147.134 462.58 154.954Z" fill="#FBBEBE"/>
<path opacity="0.05" d="M462.58 154.954C456.695 157.578 452.239 162.665 449.254 168.29C446.269 173.916 444.59 180.091 442.936 186.224C441.19 192.693 439.438 199.179 438.534 205.808C436.923 217.597 438.132 229.989 443.662 240.576C449.193 251.163 459.412 259.705 471.376 261.744C475.997 262.539 480.747 262.378 485.416 261.905C493.857 261.03 502.172 259.236 510.206 256.555C518.6 253.775 527.335 249.495 531.071 241.61C533.238 237.037 533.422 231.824 533.318 226.791C533.03 213.072 530.914 199.449 527.024 186.266C525.895 182.44 524.582 178.585 522.189 175.362C519.797 172.14 516.525 169.779 513.185 167.591C498.907 158.176 480.142 147.134 462.58 154.954Z" fill="black"/>
<path d="M455.969 230.198C457.672 232.491 459.732 234.508 462.073 236.176C467.885 240.11 475.344 240.642 482.401 240.857C488.066 241.024 494.561 240.707 498.114 236.379C499.713 234.431 500.433 231.944 501.08 229.523C505.074 214.656 507.91 199.514 509.566 184.228L525.73 184.281C532.726 213.615 532.152 244.109 531.541 274.232L530.656 318.158L520.242 317.076C495.513 314.511 470.748 311.947 445.884 311.504C431.316 311.242 416.744 311.713 402.225 312.915L424.903 246.883C427.846 238.298 430.819 229.6 431.508 220.58C432.503 207.494 428.755 193.679 433.95 181.573C434.365 180.599 434.89 179.589 435.836 179.081C436.783 178.573 437.979 178.698 439.066 178.836C441.117 179.105 447.386 178.836 448.875 180.121C451.073 181.986 449.62 182.267 448.845 185.274C447.459 190.654 446.147 195.634 446.165 201.241C446.183 211.421 449.407 222.17 455.969 230.198Z" fill="#144776"/>
<path d="M550.624 384.675C553.346 381.136 555.912 377.471 558.321 373.681C557.101 371.123 555.758 368.624 554.689 366.011C553.053 362.006 552.113 357.762 551.185 353.547C550.868 352.113 550.553 350.678 550.239 349.243C546.821 333.635 543.61 317.805 542.944 301.981C542.883 300.666 542.845 299.351 542.828 298.036C542.828 297.845 542.828 297.659 542.828 297.438C542.828 295.997 542.828 294.557 542.828 293.122C542.902 289.535 543.134 285.919 543.555 282.32C543.634 281.615 543.726 280.909 543.823 280.204C543.823 280.048 543.86 279.899 543.885 279.743L585.395 278.261L588.886 278.135C591.285 278.052 593.825 277.92 595.803 276.587C599.13 274.351 599.52 269.766 599.465 265.827C599.263 255.87 598.111 245.953 596.022 236.206C594.447 228.877 592.201 221.387 587.159 215.755C583.02 211.128 577.025 207.763 574.871 202.006C574.071 199.866 573.869 197.517 572.832 195.472C571.794 193.428 570.079 191.927 568.461 190.349C562.768 184.824 558.045 178.418 554.482 171.387C552.01 166.509 549.33 161.129 546.1 157.757C545.942 157.584 545.783 157.422 545.618 157.267C542.871 154.607 539.727 153.441 536.004 155.252C535.334 155.581 534.697 155.97 534.099 156.412C532.772 157.405 531.558 158.535 530.479 159.784C526.718 164.019 523.418 168.627 520.633 173.533C518.675 176.987 516.993 180.585 515.603 184.293C514.506 187.223 513.598 190.218 512.886 193.26C512.361 195.514 511.946 197.792 511.617 200.075C510.396 208.659 510.396 217.411 510.567 226.103C510.75 234.09 511.11 242.094 511.849 250.051C512.032 251.976 512.235 253.899 512.459 255.82C512.907 259.618 513.46 263.404 514.119 267.178C514.382 268.618 514.65 270.059 514.95 271.494C515.023 271.876 515.102 272.259 515.182 272.636L515.218 272.797C516.025 276.132 516.65 279.506 517.092 282.906C517.141 283.332 517.178 283.757 517.202 284.179C517.305 286.133 517.289 288.091 517.153 290.043C517.013 292.351 516.793 294.652 516.683 296.96C516.683 297.366 516.683 297.767 516.641 298.156C516.61 299.321 516.641 300.487 516.641 301.653C516.764 304.441 517.103 307.217 517.654 309.956C518.683 315.05 520.462 319.972 522.934 324.566C523.166 324.997 523.404 325.421 523.642 325.839C526.737 331.256 530.644 336.223 533.507 341.765C535.977 346.752 537.821 352.012 539.001 357.433C539.408 359.222 539.795 361.016 540.161 362.813C540.729 365.683 541.235 368.576 541.754 371.469C541.803 371.756 541.858 372.067 541.913 372.33C542.603 376.168 543.329 379.988 544.263 383.736C544.806 385.918 545.417 388.07 546.131 390.186L550.624 384.675Z" fill="#464353"/>
<path d="M542.468 337.557C542.468 338.095 542.432 338.633 542.407 339.177C542.298 341.8 542.052 344.415 541.669 347.014C541.163 350.56 540.277 354.045 539.025 357.409C538.196 359.622 537.141 361.747 535.876 363.752C534.754 365.532 533.44 367.19 531.957 368.696C528.294 372.426 523.02 373.616 517.916 375.188C515.568 375.854 513.299 376.761 511.147 377.896C510.762 378.105 510.383 378.332 510.017 378.571L503.632 382.714C501.642 383.999 499.609 385.332 498.242 387.239C498.018 387.564 497.814 387.901 497.631 388.25C496.767 390.005 496.135 391.861 495.751 393.773C492.43 407.319 489.103 420.877 486.827 434.627C486.674 435.535 486.527 436.45 486.369 437.365L486.314 437.652C486.286 437.584 486.254 437.518 486.216 437.454C469.881 447.127 452.941 455.854 435.488 462.843L431.698 431.757C431.302 429.23 431.172 426.67 431.307 424.117C431.667 420.094 433.34 416.28 433.791 412.269C434.219 408.342 433.462 404.379 431.612 400.869C430.892 399.506 429.988 398.167 429.823 396.643C429.659 395.118 430.556 393.725 432.119 393.57C433.34 392.243 433.437 390.432 433.077 388.638C432.886 387.702 432.6 386.787 432.223 385.906C431.185 383.408 429.872 380.688 430.764 378.135C430.999 377.672 431.105 377.156 431.069 376.64C431.075 376.609 431.075 376.576 431.069 376.545C430.861 375.875 430.049 375.582 429.628 375.014C428.835 373.956 429.628 372.516 430.117 371.296C430.591 369.986 430.867 368.614 430.934 367.225C431.002 366.454 431.05 365.677 431.136 364.912C431.255 363.876 431.445 362.85 431.704 361.839C433.187 356.112 436.753 351.113 441.733 347.779C444.108 346.213 446.751 345.071 449.174 343.594C451.657 341.955 454.027 340.158 456.268 338.214C461.644 333.83 467.233 329.697 473.037 325.816C479.277 321.642 485.74 317.799 492.4 314.302C493.824 313.549 495.249 312.816 496.673 312.102C498.224 311.305 499.784 310.55 501.355 309.837C506.385 307.487 512.093 308.366 517.654 309.932C519.986 310.584 522.287 311.361 524.509 312.066C526.679 312.757 528.767 313.675 530.736 314.804C535.662 317.638 539.734 321.823 541.424 327.107C541.427 327.141 541.427 327.175 541.424 327.209C542.499 330.52 542.566 334.071 542.468 337.557Z" fill="#F86D70"/>
<path opacity="0.1" d="M542.468 337.557C542.468 338.095 542.432 338.633 542.407 339.177C542.298 341.8 542.052 344.415 541.669 347.014C541.163 350.56 540.277 354.045 539.025 357.409C538.196 359.622 537.141 361.747 535.876 363.752C534.754 365.532 533.44 367.19 531.957 368.696C528.294 372.426 523.02 373.616 517.916 375.188C515.568 375.854 513.299 376.761 511.147 377.896C510.762 378.105 510.383 378.332 510.017 378.571L503.632 382.714C501.642 383.999 499.609 385.332 498.242 387.239C498.018 387.564 497.814 387.901 497.631 388.25C496.767 390.005 496.135 391.861 495.751 393.773C492.43 407.319 489.103 420.877 486.827 434.627C486.674 435.535 486.527 436.45 486.369 437.365L486.314 437.652C486.286 437.584 486.254 437.518 486.216 437.454C469.881 447.127 452.941 455.854 435.488 462.843L431.698 431.757C431.302 429.23 431.172 426.67 431.307 424.117C431.667 420.094 433.34 416.28 433.791 412.269C434.219 408.342 433.462 404.379 431.612 400.869C430.892 399.506 429.988 398.167 429.823 396.643C429.659 395.118 430.556 393.725 432.119 393.57C433.34 392.243 433.437 390.432 433.077 388.638C432.886 387.702 432.6 386.787 432.223 385.906C431.185 383.408 429.872 380.688 430.764 378.135C430.999 377.672 431.105 377.156 431.069 376.64C431.075 376.609 431.075 376.576 431.069 376.545C430.861 375.875 430.049 375.582 429.628 375.014C428.835 373.956 429.628 372.516 430.117 371.296C430.591 369.986 430.867 368.614 430.934 367.225C431.002 366.454 431.05 365.677 431.136 364.912C431.255 363.876 431.445 362.85 431.704 361.839C433.187 356.112 436.753 351.113 441.733 347.779C444.108 346.213 446.751 345.071 449.174 343.594C451.657 341.955 454.027 340.158 456.268 338.214C461.644 333.83 467.233 329.697 473.037 325.816C479.277 321.642 485.74 317.799 492.4 314.302C493.824 313.549 495.249 312.816 496.673 312.102C498.224 311.305 499.784 310.55 501.355 309.837C506.385 307.487 512.093 308.366 517.654 309.932C519.986 310.584 522.287 311.361 524.509 312.066C526.679 312.757 528.767 313.675 530.736 314.804C535.662 317.638 539.734 321.823 541.424 327.107C541.427 327.141 541.427 327.175 541.424 327.209C542.499 330.52 542.566 334.071 542.468 337.557Z" fill="black"/>
<path d="M484.507 238.538C484.445 238.399 484.355 238.273 484.243 238.169C484.131 238.065 483.998 237.985 483.853 237.932C483.708 237.88 483.553 237.856 483.399 237.864C483.244 237.871 483.093 237.909 482.954 237.975C482.815 238.041 482.691 238.134 482.589 238.249C482.488 238.363 482.411 238.496 482.363 238.64C482.315 238.784 482.298 238.936 482.312 239.087C482.326 239.238 482.371 239.384 482.444 239.518L481.833 239.811L500.037 276.348L503.327 274.776L485.124 238.215L484.507 238.538Z" fill="#3F3D56"/>
<path d="M507.264 200.266C528.841 200.266 546.332 183.137 546.332 162.007C546.332 140.878 528.841 123.749 507.264 123.749C485.687 123.749 468.196 140.878 468.196 162.007C468.196 183.137 485.687 200.266 507.264 200.266Z" fill="#FBBEBE"/>
<path d="M558.828 138.323C558.645 135.282 558.184 132.262 557.449 129.302C555.153 119.636 550.96 110.119 543.738 103.178C543.293 101.482 542.761 99.8076 542.145 98.1629C542.133 98.1222 542.119 98.0822 542.102 98.0434C539.948 92.2495 536.834 86.8427 532.884 82.0403C530.595 79.2546 527.629 76.5048 523.978 76.3971C522.953 76.3613 521.866 76.5346 520.926 76.0743C520.235 75.6366 519.652 75.0523 519.223 74.3646C517.415 72.1276 515.017 70.4167 512.289 69.4169C509.561 68.417 506.605 68.1662 503.742 68.6916L503.363 68.7693C503.15 68.8111 502.936 68.8589 502.753 68.9127C502.57 68.9665 502.24 69.0562 501.984 69.1339C502.265 69.5883 502.539 70.0486 502.808 70.5148C503.532 71.7782 504.204 73.0694 504.822 74.3886C505.335 75.4885 505.809 76.6064 506.245 77.7422C499.994 78.4416 494.903 82.7876 490.251 86.9243L479.3 96.6565C479.28 96.6729 479.262 96.6909 479.245 96.7103L478.927 97.0092C478.848 97.0869 478.769 97.1646 478.695 97.2483C478.666 97.2732 478.639 97.3013 478.616 97.332C478.525 97.4276 478.439 97.5293 478.354 97.6309C478.201 97.8192 478.065 98.0191 477.945 98.2287C477.885 98.3184 477.832 98.4123 477.786 98.5096C477.769 98.5383 477.755 98.5683 477.743 98.5993C477.703 98.6808 477.669 98.7647 477.639 98.8504C477.637 98.8622 477.637 98.8744 477.639 98.8862C477.622 98.9352 477.608 98.9851 477.597 99.0357C477.472 99.4564 477.509 99.9072 477.7 100.303L484.922 100.381H485.771C485.807 101.325 485.838 102.276 485.874 103.22C484.728 104.06 483.628 104.958 482.578 105.91C481.433 106.948 480.358 108.059 479.361 109.234C472.847 116.94 469.447 126.893 469.105 136.912C469.105 137.223 469.105 137.51 469.105 137.833C469.105 138.747 469.105 139.662 469.105 140.571C469.105 141.168 469.16 141.766 469.209 142.364C469.212 143.143 469.423 143.907 469.82 144.582C469.872 144.657 469.929 144.729 469.991 144.797C470.357 145.186 470.796 145.503 471.285 145.73L471.81 145.981C472.072 146.106 472.322 146.226 472.567 146.363C474.868 147.637 476.229 150.093 478.323 151.672C478.445 151.761 478.567 151.851 478.689 151.929L478.964 152.108L479.135 152.216L479.367 152.347C479.519 152.437 479.676 152.519 479.837 152.592L480.13 152.736H480.179C480.423 152.843 480.667 152.945 480.918 153.035L481.265 153.154L481.369 153.19C481.467 153.22 481.571 153.256 481.674 153.28C481.882 153.34 482.085 153.393 482.285 153.441L482.895 153.573C483.133 153.615 483.378 153.656 483.622 153.686L483.982 153.734L484.348 153.77C484.93 153.822 485.516 153.852 486.106 153.86C487.958 153.848 489.807 153.723 491.643 153.483L507.221 151.69C510.756 151.289 514.364 150.889 517.849 151.594C520.804 152.192 523.526 153.567 526.395 154.541C527.042 154.762 527.69 154.966 528.343 155.139C528.581 155.205 528.825 155.276 529.069 155.336L529.405 155.42L530.186 155.605C530.467 155.671 530.748 155.737 531.029 155.79C531.425 155.874 531.816 155.946 532.213 156.018C532.482 156.071 532.756 156.113 533.031 156.161H533.086L533.867 156.281H534.056L534.636 156.358C534.917 156.4 535.198 156.436 535.485 156.466C536.108 156.542 536.73 156.607 537.353 156.663C538.36 156.759 539.373 156.831 540.405 156.89L541.418 156.95L542.432 156.998L545.484 157.13H545.618H546.046C547.314 157.216 548.589 157.152 549.843 156.938C550.062 156.896 550.276 156.849 550.49 156.789C550.703 156.729 550.88 156.669 551.1 156.598C553.389 155.737 555.062 153.758 556.222 151.642C556.466 151.193 556.692 150.745 556.899 150.285C557.107 149.824 557.296 149.358 557.467 148.892C557.681 148.294 557.864 147.726 558.022 147.128C558.071 146.967 558.114 146.806 558.151 146.638C558.187 146.471 558.273 146.142 558.322 145.891C558.474 145.204 558.59 144.51 558.676 143.811C558.676 143.589 558.731 143.362 558.755 143.141C558.81 142.543 558.853 141.987 558.877 141.402C558.877 140.959 558.877 140.511 558.877 140.062C558.871 139.578 558.828 138.939 558.828 138.323ZM543.176 102.634C542.682 102.18 542.175 101.744 541.663 101.331C542.233 101.684 542.742 102.124 543.17 102.634H543.176Z" fill="#464353"/>
<path d="M432.284 159.903C427.687 159.347 423.127 157.375 418.591 158.343C415.753 158.941 413.311 160.668 411.04 162.444C402.59 169.077 395.404 177.122 389.815 186.206C388.868 187.565 388.202 189.092 387.856 190.702C387.563 192.567 388.082 194.462 388.698 196.249C392.874 208.331 401.804 218.422 405.87 230.539C410.143 243.284 408.66 257.213 405.51 270.268C401.605 286.386 395.259 301.841 386.684 316.119C385.519 318.243 384.061 320.198 382.35 321.93C380.128 324.022 377.142 325.517 375.824 328.255C375.213 329.45 375.036 330.813 374.603 332.093C373.382 335.679 370.428 338.752 370.141 342.536C369.927 345.423 371.325 348.155 372.173 350.905C373.604 355.63 373.452 360.678 371.74 365.312C368.645 373.621 360.551 381.178 362.901 389.72C368.145 388.244 373.956 386.325 376.428 381.56C377.301 379.874 377.735 377.866 379.206 376.634C382.142 374.189 387.141 376.401 390.261 374.154C392.617 372.444 392.703 368.941 391.653 366.251C390.603 363.561 388.796 361.193 387.99 358.426C386.586 353.434 388.832 348.155 388.417 342.996C388.222 340.605 387.471 338.316 387.416 335.936C387.312 331.315 389.925 326.969 393.398 323.831C396.872 320.693 401.163 318.612 405.388 316.562L421.357 308.79C427.15 305.981 433.498 302.555 435.397 296.506C436.117 294.24 436.123 291.825 436.16 289.458C436.703 253.285 445.958 217.842 455.157 182.805C456.585 177.377 458.038 171.925 460.163 166.712C462.287 161.499 466.444 157.315 468.562 152.473C456.274 151.062 445.048 161.47 432.284 159.903Z" fill="#464353"/>
<path d="M520.315 386.833C521.726 395.202 522.586 403.75 523.258 412.257C512.27 421.176 500.439 428.936 488.42 436.133C487.736 436.546 487.046 436.952 486.357 437.329L486.302 437.616C486.274 437.548 486.241 437.482 486.204 437.418C485.271 435.445 483.641 433.869 481.613 432.983C477.108 423.717 472.607 414.451 468.11 405.185C465.669 400.182 463.227 395.13 462.006 389.732C462.006 389.619 461.951 389.499 461.933 389.385C461.005 385.201 460.791 380.855 460.175 376.616C459.862 374.189 459.304 371.798 458.508 369.479C457.776 367.416 456.768 365.414 455.877 363.399C454.778 360.912 453.857 358.396 453.814 355.711C453.814 354.857 453.869 353.918 453.442 353.201C452.985 352.583 452.421 352.049 451.775 351.623C450.969 350.923 450.358 350.034 449.999 349.04C449.641 348.045 449.546 346.978 449.724 345.938C446.061 346.123 443.998 349.979 442.527 353.249C441.189 356.447 439.433 359.461 437.301 362.216C435.748 364.183 433.772 365.793 431.514 366.932C431.313 367.028 431.112 367.123 430.904 367.207C425.807 369.407 419.855 368.63 414.331 367.638C409.502 366.771 404.509 365.695 400.626 362.754L400.211 362.431C399.062 361.495 398.036 360.423 397.159 359.238C393.905 354.887 392.464 349.154 391.665 343.696C391.592 343.182 391.518 342.668 391.451 342.153C390.896 338.297 390.743 334.395 390.993 330.508C391.067 329.552 391.17 328.595 391.299 327.645C391.384 327.047 391.476 326.402 391.579 325.78C391.576 325.762 391.576 325.744 391.579 325.726C391.738 324.74 391.909 323.747 392.08 322.737C392.69 319.348 393.301 315.868 395.132 312.951C396.337 311.136 397.858 309.542 399.625 308.24C400.284 307.732 400.962 307.248 401.646 306.782C402.757 306.029 403.898 305.311 405.058 304.636C407.976 302.925 411.04 301.465 414.215 300.272C414.971 299.985 415.741 299.716 416.51 299.459C419.5 298.417 422.717 298.168 425.837 298.736C428.602 299.127 431.396 299.287 434.188 299.214C441.349 299.076 448.54 297.737 455.688 296.87C465.614 295.675 476.278 295.531 484.934 300.457C485.349 300.69 485.752 300.935 486.155 301.192C490.428 303.93 493.871 307.768 496.649 312.054C497.259 312.957 497.79 313.884 498.315 314.822C499.525 316.977 500.619 319.191 501.593 321.458C502.169 322.571 502.48 323.797 502.503 325.045C502.489 325.282 502.456 325.518 502.405 325.75C502.24 326.599 501.911 327.424 501.795 328.285C501.41 331.543 504.236 334.263 505.292 337.365C505.976 339.386 505.903 341.55 506.288 343.678C506.843 346.667 508.339 349.357 509.682 352.047C511.804 356.377 513.619 360.845 515.115 365.42C516.177 368.606 517.086 371.84 517.886 375.104C518.146 376.152 518.393 377.202 518.625 378.254C519.29 381.148 519.833 383.981 520.315 386.833Z" fill="#F86D70"/>
<path d="M585.401 298.305V302.49L584.613 302.478L583.734 302.466L573.918 302.346L549.732 302.035L542.944 301.952L541.186 301.928L530.998 301.802L516.64 301.617L486.179 301.228L433.321 300.559L414.245 300.32L406.59 300.224L399.545 300.134L395.156 300.075L390.999 300.021L360.178 299.632L351.632 299.525L349.77 299.501L348.561 296.446L339.777 274.262L338.172 270.209L339.393 265.426L344.886 269.013L348.268 269.426L403.947 276.205L414.398 277.478L436.557 280.18L458.264 282.822L466.773 283.856L517.129 289.99L531.199 291.705L542.847 293.122L584.259 298.168L585.401 298.305Z" fill="#3F3D56"/>
<path d="M339.393 265.426L350.381 293.523L585.401 298.305V267.817L339.393 265.426Z" fill="#504F60"/>
<path d="M351.601 296.512L353.433 468.079L361.979 466.884L360.148 296.512H351.601Z" fill="#3F3D56"/>
<path d="M584.613 302.472H583.734C582.311 313.168 579.956 323.726 576.696 334.029L573.918 302.346L573.802 300.995L584.07 299.835L584.412 299.8L584.613 302.472Z" fill="#3F3D56"/>
<path d="M551.216 282.165L461.786 283.958L434.011 274.991L508.485 270.807L551.216 282.165Z" fill="white"/>
<path d="M439.035 247.301C438.087 247.657 437.247 248.244 436.593 249.005C436.082 249.83 435.771 250.758 435.684 251.719L434.182 260.489C433.953 261.291 433.994 262.144 434.298 262.922C434.689 263.657 435.824 264.04 436.392 263.43C436.319 265.145 436.471 266.975 437.491 268.374C438.51 269.772 440.647 270.508 442.087 269.533C442.313 269.894 442.616 270.202 442.976 270.436C443.336 270.671 443.743 270.825 444.17 270.89C444.596 270.955 445.033 270.928 445.448 270.812C445.863 270.695 446.247 270.491 446.574 270.215C445.707 270.502 445.646 271.799 446.263 272.457C446.953 273.053 447.833 273.398 448.753 273.431C459.48 274.912 470.417 273.564 480.435 269.527C481.381 269.145 478.891 257.721 478.64 256.549C478.03 253.793 477.725 250.428 475.35 248.575C469.673 244.139 459.589 243.266 452.672 243.792C447.947 244.142 443.326 245.331 439.035 247.301Z" fill="#FBBEBE"/>
<path opacity="0.1" d="M530.028 248.628C507.948 249.041 485.41 249.393 464.338 242.919C466.351 250.558 466.212 258.588 463.935 266.156L567.173 274.525C571.55 274.877 589.698 276.886 593.965 275.876C598.232 274.865 558.163 261.941 559.781 257.942C564.231 246.924 579.138 240.468 568.4 240.056C554.848 239.53 543.683 248.377 530.028 248.628Z" fill="black"/>
<path d="M530.638 249.824C508.558 250.236 486.021 250.589 464.948 244.115C466.961 251.754 466.822 259.784 464.545 267.351L567.783 275.721C572.16 276.073 590.309 278.112 594.576 277.072C598.843 276.031 597.842 270.908 599.459 266.909C603.909 255.892 579.748 241.664 569.01 241.252C555.459 240.725 544.294 249.573 530.638 249.824Z" fill="#464353"/>
<path d="M495.532 251.486C496.48 251.841 497.32 252.428 497.973 253.19C498.483 254.015 498.796 254.943 498.889 255.904L500.391 264.673C500.617 265.476 500.576 266.328 500.275 267.106C499.884 267.842 498.742 268.224 498.181 267.614C498.248 269.33 498.101 271.159 497.082 272.558C496.063 273.957 493.926 274.692 492.479 273.718C492.253 274.078 491.95 274.386 491.591 274.621C491.231 274.855 490.824 275.01 490.397 275.075C489.97 275.14 489.534 275.113 489.119 274.996C488.704 274.88 488.319 274.676 487.993 274.399C488.859 274.686 488.927 275.984 488.31 276.641C487.617 277.238 486.735 277.582 485.813 277.616C475.088 279.096 464.154 277.749 454.137 273.712C453.191 273.329 455.676 261.905 455.932 260.734C456.543 257.978 456.848 254.612 459.222 252.759C464.893 248.323 474.984 247.451 481.9 247.977C486.624 248.328 491.243 249.517 495.532 251.486Z" fill="#FBBEBE"/>
<path d="M349.636 232.446C347.609 235.004 345.576 237.617 344.27 240.6C341.773 246.291 342.14 252.735 342.555 258.916C342.671 260.71 342.817 262.539 343.776 264.027C344.604 265.152 345.697 266.064 346.962 266.688C352.249 269.629 358.438 270.508 364.482 271.165C373.736 272.169 383.023 272.781 392.342 273C415.429 273.55 438.87 271.703 461.359 276.826C458.575 272.684 458.581 267.202 460.138 262.479C461.695 257.757 464.692 253.644 467.628 249.597C457.336 246.404 446.299 251.39 435.519 250.894C424.452 250.386 414.208 244.121 403.129 244.127C400.748 244.127 398.325 244.42 396.011 243.858C393.698 243.296 391.457 241.586 391.244 239.261C394.198 239.912 397 237.438 398.221 234.724C399.442 232.01 399.662 228.943 400.846 226.211C403.794 219.414 411.761 216.264 416.717 210.668C417.499 209.783 418.237 208.737 418.213 207.566C418.096 206.573 417.67 205.64 416.992 204.893C412.872 199.513 406.663 196.524 401.505 192.34C399.71 190.881 396.091 185.381 394.076 184.873C390.34 183.935 387.172 189.219 384.742 191.796C372.477 204.848 360.774 218.398 349.636 232.446Z" fill="#464353"/>
<path opacity="0.07" d="M472.384 230.927C473.931 232.051 475.306 233.386 476.467 234.891C477.046 235.647 477.458 236.512 477.678 237.432C477.898 238.352 477.92 239.306 477.743 240.235C477.554 238.503 477.948 236.757 478.866 235.264C479.784 233.771 481.176 232.614 482.828 231.968L472.384 230.927Z" fill="black"/>
<g opacity="0.1">
<path opacity="0.1" d="M506.239 74.1615C505.52 72.2931 504.693 70.4668 503.76 68.6917C503.157 68.8052 502.562 68.9549 501.978 69.14C503.025 70.8435 503.969 72.6061 504.804 74.4185C505.274 74.299 505.75 74.2153 506.239 74.1615Z" fill="black"/>
<path opacity="0.1" d="M541.656 97.7327C541.821 97.8642 541.98 98.0136 542.139 98.1511C542.127 98.1123 542.113 98.0744 542.096 98.0375C541.958 97.9379 541.811 97.8363 541.656 97.7327Z" fill="black"/>
<path opacity="0.1" d="M484.91 100.363C485.227 100.118 485.52 99.8607 485.862 99.6216L485.764 96.7821L479.245 96.7163C478.189 97.6668 477.066 99.0298 477.688 100.303L484.91 100.363Z" fill="black"/>
<path opacity="0.1" d="M556.185 148.163C555.025 150.279 553.353 152.264 551.063 153.118C549.299 153.776 547.358 153.716 545.472 153.632C539.038 153.375 532.494 153.094 526.414 151.008C523.569 150.028 520.847 148.659 517.868 148.055C514.382 147.35 510.774 147.75 507.24 148.157L491.661 149.95C487.065 150.476 481.943 150.871 478.274 148.109C476.174 146.531 474.819 144.074 472.518 142.806C471.547 142.268 470.393 141.922 469.765 141.013C469.368 140.338 469.157 139.574 469.154 138.795C469.105 138.167 469.075 137.54 469.051 136.912C468.984 138.736 469.019 140.562 469.154 142.382C469.157 143.161 469.368 143.925 469.765 144.6C470.375 145.502 471.547 145.849 472.518 146.393C474.819 147.66 476.18 150.117 478.274 151.696C481.937 154.457 487.065 154.087 491.661 153.537L507.24 151.743C510.774 151.337 514.382 150.936 517.868 151.642C520.822 152.24 523.545 153.615 526.414 154.595C532.518 156.681 539.038 156.986 545.472 157.219C547.358 157.297 549.299 157.363 551.063 156.705C553.353 155.85 555.025 153.866 556.185 151.749C558.431 147.654 559.06 143.01 558.822 138.329C558.691 141.757 557.791 145.114 556.185 148.163Z" fill="black"/>
</g>
<path opacity="0.1" d="M506.062 78.0054L514.608 85.7767C514.608 85.7767 507.282 82.7877 506.062 78.0054Z" fill="black"/>
</svg>
