<svg width="365" height="240" viewBox="0 0 365 240" fill="none" xmlns="http://www.w3.org/2000/svg">
<path d="M364.436 209.954H212.593C212.443 209.954 212.299 209.894 212.193 209.787C212.088 209.68 212.028 209.535 212.028 209.385C212.028 209.234 212.088 209.089 212.193 208.982C212.299 208.876 212.443 208.816 212.593 208.816H364.436C364.585 208.816 364.729 208.876 364.835 208.982C364.941 209.089 365 209.234 365 209.385C365 209.535 364.941 209.68 364.835 209.787C364.729 209.894 364.585 209.954 364.436 209.954Z" fill="#3F3D56"/>
<path d="M289.659 140.48C298.299 140.48 305.303 133.42 305.303 124.712C305.303 116.003 298.299 108.944 289.659 108.944C281.019 108.944 274.015 116.003 274.015 124.712C274.015 133.42 281.019 140.48 289.659 140.48Z" fill="#2F2E41"/>
<path d="M298.369 214.188L299.574 219.918L322.079 217.961L320.3 209.503L298.369 214.188Z" fill="#A0616A"/>
<path d="M296.618 232.098L292.831 214.087L299.735 212.612L302.059 223.664C302.447 225.51 302.092 227.435 301.072 229.017C300.051 230.599 298.449 231.707 296.618 232.098Z" fill="#2F2E41"/>
<path d="M284.271 213.882L281.738 219.154L260.355 211.817L264.093 204.035L284.271 213.882Z" fill="#A0616A"/>
<path d="M278.434 222.191L283.319 212.023L289.671 215.122L281.711 231.693C280.026 230.871 278.734 229.408 278.12 227.626C277.505 225.844 277.618 223.889 278.434 222.191Z" fill="#2F2E41"/>
<path d="M242.144 203.469C242.876 203.606 243.629 203.58 244.35 203.392C245.071 203.205 245.742 202.86 246.316 202.382C246.891 201.905 247.354 201.306 247.674 200.629C247.995 199.951 248.163 199.211 248.169 198.461L283.428 165.696L274.671 158.861L242.749 193.237C241.497 193.311 240.316 193.845 239.43 194.738C238.543 195.631 238.012 196.821 237.937 198.082C237.863 199.343 238.25 200.588 239.025 201.581C239.801 202.574 240.91 203.245 242.144 203.469Z" fill="#A0616A"/>
<path d="M290.066 142.148C296.497 142.148 301.71 136.893 301.71 130.412C301.71 123.93 296.497 118.676 290.066 118.676C283.635 118.676 278.422 123.93 278.422 130.412C278.422 136.893 283.635 142.148 290.066 142.148Z" fill="#A0616A"/>
<path d="M264.533 169.627L267.852 159.593L284.918 145.736C284.918 145.736 293.452 146.692 304.355 140.48L307.913 140.582C308.519 140.6 309.116 140.741 309.666 140.997C310.217 141.254 310.71 141.62 311.116 142.075C311.522 142.529 311.832 143.062 312.028 143.64C312.223 144.219 312.3 144.832 312.254 145.441C311.357 157.142 309.624 187.273 314.548 197.58C314.548 197.58 288.474 204.269 276.622 190.413C276.622 190.413 281.363 185.156 276.622 175.6L270.459 177.511L264.533 169.627Z" fill="#24527C"/>
<path d="M278.044 190.413C278.044 190.413 247.229 187.546 243.911 196.624C240.592 205.703 244.385 210.003 250.074 211.915C255.763 213.826 269.511 216.215 269.511 216.215L275.674 208.57L291.792 209.525C291.792 209.525 309.753 220.025 314.718 231.254C315.784 233.684 317.483 235.778 319.635 237.312C321.786 238.847 324.311 239.765 326.939 239.969C330.92 240.248 334.459 238.732 334.459 232.461C334.459 218.126 314.548 197.58 314.548 197.58L278.044 190.413Z" fill="#2F2E41"/>
<path d="M254.578 204.508C254.578 204.508 262.637 202.119 275.437 208.331L254.578 204.508Z" fill="#2F2E41"/>
<path d="M278.45 122.928C282.998 125.725 288.124 127.428 293.431 127.903L291.852 125.996C293.001 126.424 294.211 126.666 295.436 126.713C296.049 126.731 296.658 126.604 297.214 126.342C297.77 126.08 298.257 125.69 298.636 125.204C298.946 124.699 299.13 124.126 299.172 123.534C299.215 122.942 299.115 122.348 298.88 121.804C298.399 120.718 297.65 119.774 296.705 119.062C295.029 117.726 293.051 116.828 290.947 116.449C288.844 116.07 286.68 116.222 284.649 116.89C283.255 117.31 282.007 118.117 281.048 119.218C280.576 119.773 280.249 120.437 280.095 121.151C279.94 121.865 279.965 122.607 280.165 123.309" fill="#2F2E41"/>
<path d="M291.132 110.694C287.459 106.94 283.015 104.044 278.112 102.208C274.965 101.033 271.539 100.307 268.249 100.974C264.959 101.642 261.847 103.936 260.929 107.19C260.178 109.85 260.954 112.715 262.118 115.22C263.283 117.724 264.838 120.047 265.78 122.645C266.742 125.296 267.031 128.147 266.621 130.939C266.212 133.731 265.117 136.376 263.437 138.634C261.756 140.891 259.543 142.69 256.997 143.867C254.452 145.043 251.655 145.561 248.861 145.371C252.094 145.808 255.074 147.34 258.234 148.155C261.394 148.97 265.124 148.914 267.472 146.633C269.957 144.219 270.006 140.293 269.886 136.817C269.708 131.649 269.529 126.482 269.35 121.314C269.259 118.679 269.182 115.959 270.125 113.499C271.067 111.039 273.309 108.885 275.925 108.908C277.908 108.925 279.663 110.135 281.253 111.329C282.843 112.523 284.526 113.797 286.501 113.975C288.476 114.152 290.731 112.679 290.583 110.686" fill="#2F2E41"/>
<path d="M208.118 115.155H4.26666C3.13547 115.154 2.05096 114.701 1.25108 113.894C0.451206 113.088 0.00127359 111.995 0 110.855V4.30041C0.00131366 3.16027 0.451258 2.06723 1.25113 1.26103C2.051 0.454834 3.13548 0.00132405 4.26666 0H208.118C209.25 0.00128492 210.334 0.454781 211.134 1.26099C211.934 2.06719 212.384 3.16026 212.385 4.30041V110.855C212.384 111.995 211.934 113.088 211.134 113.894C210.334 114.701 209.25 115.154 208.118 115.155ZM4.26666 0.955646C3.38684 0.95664 2.54334 1.30935 1.92121 1.9364C1.29908 2.56345 0.949134 3.41363 0.948148 4.30041V110.855C0.949174 111.742 1.29914 112.592 1.92126 113.219C2.54338 113.846 3.38685 114.199 4.26666 114.2H208.118C208.998 114.199 209.842 113.846 210.464 113.219C211.086 112.592 211.436 111.742 211.437 110.855V4.30041C211.436 3.41364 211.086 2.56349 210.464 1.93645C209.842 1.30941 208.998 0.95668 208.118 0.955646H4.26666Z" fill="#3F3D56" fill-opacity="0.7"/>
<path d="M66.3703 50.8882H34.1333C33.0021 50.8869 31.9176 50.4334 31.1178 49.6272C30.3179 48.821 29.868 47.7279 29.8666 46.5878V19.8297C29.868 18.6896 30.3179 17.5965 31.1178 16.7903C31.9176 15.9841 33.0021 15.5306 34.1333 15.5293H66.3703C67.5015 15.5306 68.586 15.9841 69.3859 16.7903C70.1858 17.5965 70.6357 18.6896 70.637 19.8297V46.5878C70.6357 47.7279 70.1858 48.821 69.3859 49.6272C68.586 50.4334 67.5015 50.8869 66.3703 50.8882ZM34.1333 16.4849C33.2535 16.4859 32.41 16.8387 31.7878 17.4657C31.1657 18.0927 30.8158 18.9429 30.8148 19.8297V46.5878C30.8158 47.4746 31.1657 48.3248 31.7878 48.9518C32.41 49.5788 33.2535 49.9316 34.1333 49.9326H66.3703C67.2501 49.9315 68.0936 49.5788 68.7157 48.9518C69.3379 48.3247 69.6878 47.4746 69.6888 46.5878V19.8297C69.6878 18.9429 69.3379 18.0928 68.7157 17.4658C68.0936 16.8387 67.2501 16.486 66.3703 16.4849H34.1333Z" fill="#3F3D56" fill-opacity="0.4"/>
<path d="M28.2074 60.9224C27.3901 60.9224 26.6063 61.2496 26.0284 61.832C25.4506 62.4145 25.1259 63.2045 25.1259 64.0282C25.1259 64.8519 25.4506 65.6419 26.0284 66.2244C26.6063 66.8068 27.3901 67.1341 28.2074 67.1341H184.178C184.995 67.1341 185.779 66.8068 186.357 66.2244C186.934 65.6419 187.259 64.8519 187.259 64.0282C187.259 63.2045 186.934 62.4145 186.357 61.832C185.779 61.2496 184.995 60.9224 184.178 60.9224H28.2074Z" fill="#E6E6E6"/>
<path d="M80.8296 28.4304C80.0123 28.4304 79.2285 28.7576 78.6506 29.3401C78.0727 29.9226 77.7481 30.7125 77.7481 31.5363C77.7481 32.36 78.0727 33.15 78.6506 33.7324C79.2285 34.3149 80.0123 34.6421 80.8296 34.6421H147.674C148.491 34.6421 149.275 34.3149 149.853 33.7324C150.431 33.15 150.755 32.36 150.755 31.5363C150.755 30.7125 150.431 29.9226 149.853 29.3401C149.275 28.7576 148.491 28.4304 147.674 28.4304H80.8296Z" fill="#24527C"/>
<path d="M80.8296 44.6765C80.0123 44.6765 79.2285 45.0037 78.6506 45.5862C78.0727 46.1687 77.7481 46.9586 77.7481 47.7824C77.7481 48.6061 78.0727 49.3961 78.6506 49.9785C79.2285 50.561 80.0123 50.8882 80.8296 50.8882H182.755C183.573 50.8882 184.356 50.561 184.934 49.9785C185.512 49.3961 185.837 48.6061 185.837 47.7824C185.837 46.9586 185.512 46.1687 184.934 45.5862C184.356 45.0037 183.573 44.6765 182.755 44.6765H80.8296Z" fill="#24527C"/>
<path d="M28.2074 77.1685C27.3901 77.1685 26.6063 77.4957 26.0284 78.0781C25.4506 78.6606 25.1259 79.4506 25.1259 80.2743C25.1259 81.098 25.4506 81.888 26.0284 82.4705C26.6063 83.0529 27.3901 83.3802 28.2074 83.3802H184.178C184.995 83.3802 185.779 83.0529 186.357 82.4705C186.934 81.888 187.259 81.098 187.259 80.2743C187.259 79.4506 186.934 78.6606 186.357 78.0781C185.779 77.4957 184.995 77.1685 184.178 77.1685H28.2074Z" fill="#E6E6E6"/>
<path d="M28.2074 93.4143C27.3901 93.4143 26.6063 93.7415 26.0284 94.324C25.4506 94.9065 25.1259 95.6964 25.1259 96.5202C25.1259 97.3439 25.4506 98.1339 26.0284 98.7163C26.6063 99.2988 27.3901 99.626 28.2074 99.626H184.178C184.995 99.626 185.779 99.2988 186.357 98.7163C186.934 98.1339 187.259 97.3439 187.259 96.5202C187.259 95.6964 186.934 94.9065 186.357 94.324C185.779 93.7415 184.995 93.4143 184.178 93.4143H28.2074Z" fill="#E6E6E6"/>
<path d="M49.8706 46.5569C57.1504 46.5569 63.0519 40.6087 63.0519 33.2714C63.0519 25.934 57.1504 19.9858 49.8706 19.9858C42.5908 19.9858 36.6893 25.934 36.6893 33.2714C36.6893 40.6087 42.5908 46.5569 49.8706 46.5569Z" fill="#CCCCCC"/>
<path d="M50.2133 47.9622C55.6315 47.9622 60.0238 43.5351 60.0238 38.0741C60.0238 32.6131 55.6315 28.186 50.2133 28.186C44.7951 28.186 40.4028 32.6131 40.4028 38.0741C40.4028 43.5351 44.7951 47.9622 50.2133 47.9622Z" fill="#E6E6E6"/>
<path d="M40.4266 31.7682C44.2579 34.1255 48.5772 35.5599 53.0483 35.96L51.7179 34.3532C52.6866 34.7142 53.7059 34.9182 54.738 34.9577C55.2547 34.9728 55.7678 34.8656 56.236 34.6447C56.7042 34.4238 57.1145 34.0954 57.434 33.6858C57.695 33.2605 57.85 32.7778 57.8858 32.279C57.9217 31.7803 57.8373 31.2801 57.6399 30.8213C57.2345 29.9062 56.6034 29.1109 55.8068 28.5111C54.3948 27.3853 52.7283 26.629 50.956 26.3098C49.1837 25.9905 47.3605 26.1181 45.649 26.6813C44.475 27.035 43.4235 27.7147 42.6151 28.6428C42.2177 29.1103 41.9417 29.67 41.8119 30.2715C41.682 30.8731 41.7024 31.4977 41.8711 32.0894" fill="#CCCCCC"/>
<path d="M295.458 188.687C295.72 188.689 295.982 188.711 296.241 188.755L312.338 171.483L310.697 165.969L318.63 162.385L323.553 174.516L300.394 193.084C300.518 194.095 300.335 195.12 299.867 196.022C299.4 196.925 298.671 197.663 297.777 198.138C296.883 198.613 295.867 198.803 294.864 198.681C293.861 198.56 292.918 198.134 292.161 197.46C291.404 196.785 290.868 195.894 290.626 194.906C290.383 193.917 290.445 192.878 290.803 191.925C291.161 190.973 291.798 190.153 292.63 189.575C293.461 188.996 294.448 188.686 295.458 188.687H295.458Z" fill="#A0616A"/>
<path d="M306.015 141.197C306.567 140.949 307.162 140.817 307.766 140.808C308.37 140.799 308.97 140.912 309.529 141.143C310.088 141.373 310.595 141.714 311.02 142.147C311.445 142.58 311.779 143.095 312.001 143.66L320.237 164.61L307.437 173.211L306.015 141.197Z" fill="#24527C"/>
<path d="M292.601 190.466C284.66 185.742 275.487 183.55 266.287 184.177C257.087 184.804 248.291 188.222 241.053 193.981C240.525 194.497 239.937 194.947 239.3 195.319C238.736 195.566 238.063 195.361 237.499 195.219C233.769 194.273 229.855 192.819 227.109 189.993C224.738 187.554 223.081 183.82 224.275 180.42C224.781 179.13 225.675 178.032 226.833 177.282C227.99 176.531 229.353 176.166 230.727 176.238C234.012 176.534 235.356 180.21 234.638 183.09C233.791 186.494 230.504 188.77 227.384 189.863C221.634 191.878 214.964 190.473 210.212 186.725C207.698 184.76 205.794 182.113 204.723 179.094C203.418 175.377 203.337 171.348 204.015 167.492C205.431 159.429 209.767 152.511 213.837 145.583C217.627 139.134 221.412 132.225 221.886 124.587C222.264 118.51 220.683 111.797 216.187 107.474C215.125 106.453 213.919 105.594 212.609 104.926C211.795 104.51 211.074 105.746 211.891 106.163C217.707 109.131 220.293 115.712 220.502 121.987C220.761 129.812 217.208 136.925 213.394 143.515C209.203 150.756 204.518 157.867 202.814 166.211C202.006 170.17 201.875 174.326 202.965 178.245C203.877 181.586 205.71 184.597 208.253 186.928C212.994 191.243 219.862 193.207 226.115 191.727C229.47 190.933 232.825 189.091 234.791 186.167C236.699 183.328 236.89 179.15 234.44 176.552C232.272 174.252 228.79 174.406 226.253 175.977C223.337 177.782 222.07 181 222.599 184.363C223.191 188.118 225.804 191.275 228.916 193.263C230.688 194.362 232.588 195.234 234.574 195.861C235.564 196.2 236.572 196.485 237.594 196.714C238.267 196.903 238.979 196.902 239.653 196.714C240.295 196.429 240.883 196.031 241.388 195.54C242.236 194.836 243.114 194.172 244.015 193.541C245.761 192.318 247.591 191.221 249.489 190.258C255.17 187.363 261.406 185.743 267.767 185.51C274.129 185.277 280.465 186.436 286.339 188.907C288.25 189.706 290.103 190.641 291.883 191.704C292.045 191.792 292.235 191.813 292.413 191.763C292.591 191.713 292.742 191.595 292.835 191.434C292.928 191.274 292.956 191.083 292.912 190.902C292.868 190.722 292.757 190.565 292.601 190.466V190.466Z" fill="#3F3D56" fill-opacity="0.7"/>
</svg>
