<svg width="37" height="37" viewBox="0 0 37 37" fill="none" xmlns="http://www.w3.org/2000/svg">
<path d="M13.0587 0H21.7645V9.25H13.0587V0ZM0 27.75H8.70579V37H0V27.75ZM0 13.875H8.70579V23.125H0V13.875ZM0 0H8.70579V9.25H0V0ZM21.7645 19.4713V13.875H13.0587V23.125H18.3257L21.7645 19.4713ZM36.7384 16.8581L34.192 14.1525C34.1091 14.0644 34.0107 13.9945 33.9024 13.9468C33.7941 13.8991 33.6781 13.8746 33.5608 13.8746C33.4436 13.8746 33.3275 13.8991 33.2192 13.9468C33.1109 13.9945 33.0125 14.0644 32.9297 14.1525L31.0144 16.1875L34.8232 20.2344L36.7384 18.1994C36.8214 18.1113 36.8871 18.0068 36.932 17.8917C36.9769 17.7766 37 17.6533 37 17.5287C37 17.4042 36.9769 17.2809 36.932 17.1658C36.8871 17.0507 36.8214 16.9462 36.7384 16.8581ZM15.2351 32.9531V37H19.0439L33.5608 21.5756L29.7521 17.5287L15.2351 32.9531ZM26.1174 0H34.8232V9.25H26.1174V0Z" fill="white"/>
</svg>
