<svg width="37" height="30" viewBox="0 0 37 30" fill="none" xmlns="http://www.w3.org/2000/svg">
<path d="M12.025 20.625C11.8869 20.625 11.7487 20.6455 11.6169 20.6889C10.8676 20.9355 10.0796 21.0938 9.25003 21.0938C8.42042 21.0938 7.63244 20.9355 6.88261 20.6889C6.7508 20.6455 6.6132 20.625 6.47503 20.625C2.88719 20.625 -0.0190458 23.5828 3.23597e-05 27.2238C0.00812611 28.7625 1.2563 30 2.77503 30H15.725C17.2438 30 18.4919 28.7625 18.5 27.2238C18.5191 23.5828 15.6129 20.625 12.025 20.625ZM9.25003 18.75C12.3153 18.75 14.8 16.2316 14.8 13.125C14.8 10.0184 12.3153 7.5 9.25003 7.5C6.18481 7.5 3.70003 10.0184 3.70003 13.125C3.70003 16.2316 6.18481 18.75 9.25003 18.75ZM34.225 0H12.025C10.4947 0 9.25003 1.30371 9.25003 2.90566V5.625C10.604 5.625 11.8574 6.02227 12.95 6.66797V3.75H33.3V20.625H29.6V16.875H22.2V20.625H17.7924C18.8966 21.6029 19.7072 22.8943 20.087 24.375H34.225C35.7553 24.375 37 23.0713 37 21.4693V2.90566C37 1.30371 35.7553 0 34.225 0Z" fill="white"/>
</svg>
